<svg version="1.1" xmlns="http://www.w3.org/2000/svg" xmlns:xlink="http://www.w3.org/1999/xlink" width="800" height="800"><defs><clipPath id="QsFFnCwdJcDx"><path fill="none" stroke="none" d="M 10.5 10.5 L 770.5 10.5 L 770.5 790.5 L 10.5 790.5 L 10.5 10.5"/></clipPath><clipPath id="nmLDAtyHBfLH"><path fill="none" stroke="none" d="M 10.5 10.5 L 770.5 10.5 L 770.5 790.5 L 10.5 790.5 L 10.5 10.5"/></clipPath><clipPath id="dQDVTVLIikOJ"><path fill="none" stroke="none" d="M 10.5 10.5 L 770.5 10.5 L 770.5 790.5 L 10.5 790.5 L 10.5 10.5"/></clipPath><clipPath id="CiNcIXdGKLWB"><path fill="none" stroke="none" d="M 10.5 10.5 L 770.5 10.5 L 770.5 790.5 L 10.5 790.5 L 10.5 10.5"/></clipPath></defs><path fill="rgb(255,255,255)" stroke="none" paint-order="stroke" d="M 0.5 0.5 L 800.5 0.5 L 800.5 800.5 L 0.5 800.5 L 0.5 0.5" fill-opacity="1"/><rect fill="#FFFFFF" stroke="none" x="10" y="10" width="760" height="780" transform="matrix(1, 0, 0, 1, 0.5, 0.5)"/><path fill="rgb(0,0,0)" stroke="none" paint-order="stroke" d="M 10.5 10.5 L 770.5 10.5 L 770.5 790.5 L 10.5 790.5 L 10.5 10.5" fill-opacity="1"/><path fill="none" stroke="rgb(229,229,229)" paint-order="fill" d="M 10.5 10.5 L 770.5 10.5 L 770.5 790.5 L 10.5 790.5 L 10.5 10.5" stroke-opacity="1" stroke-linejoin="bevel" stroke-miterlimit="10" stroke-dasharray=""/><path fill="none" stroke="none"/><path fill="rgb(170,155,205)" stroke="none" paint-order="stroke" d="M 396.90509033203125 380.2684326171875 L 396.76580810546875 380.70831298828125 L 381.6387939453125 372.5103454589844 L 381.4418640136719 371.88824462890625 L 396.90509033203125 380.2684326171875 Z" fill-opacity="1" fill-rule="evenodd" clip-path="url(#dQDVTVLIikOJ)"/><path fill="none" stroke="rgb(0,0,0)" paint-order="fill" d="M 396.90509033203125 380.2684326171875 L 396.76580810546875 380.70831298828125 L 381.6387939453125 372.5103454589844 L 381.4418640136719 371.88824462890625 L 396.90509033203125 380.2684326171875 Z" stroke-opacity="1" stroke-linejoin="bevel" stroke-miterlimit="10" stroke-dasharray="" clip-path="url(#dQDVTVLIikOJ)"/><path fill="rgb(187,175,215)" stroke="none" paint-order="stroke" d="M 381.4418640136719 371.88824462890625 L 382.11627197265625 374.0185546875 L 366.5129699707031 376.90142822265625 L 364.58331298828125 375.0030212402344 L 381.4418640136719 371.88824462890625 Z" fill-opacity="1" fill-rule="evenodd" clip-path="url(#dQDVTVLIikOJ)"/><path fill="none" stroke="rgb(0,0,0)" paint-order="fill" d="M 381.4418640136719 371.88824462890625 L 382.11627197265625 374.0185546875 L 366.5129699707031 376.90142822265625 L 364.58331298828125 375.0030212402344 L 381.4418640136719 371.88824462890625 Z" stroke-opacity="1" stroke-linejoin="bevel" stroke-miterlimit="10" stroke-dasharray="" clip-path="url(#dQDVTVLIikOJ)"/><path fill="rgb(170,155,205)" stroke="none" paint-order="stroke" d="M 364.58331298828125 375.0030212402344 L 365.7157897949219 376.1171569824219 L 353.1978454589844 386.7256774902344 L 351.493408203125 386.0962829589844 L 364.58331298828125 375.0030212402344 Z" fill-opacity="1" fill-rule="evenodd" clip-path="url(#dQDVTVLIikOJ)"/><path fill="none" stroke="rgb(0,0,0)" paint-order="fill" d="M 364.58331298828125 375.0030212402344 L 365.7157897949219 376.1171569824219 L 353.1978454589844 386.7256774902344 L 351.493408203125 386.0962829589844 L 364.58331298828125 375.0030212402344 Z" stroke-opacity="1" stroke-linejoin="bevel" stroke-miterlimit="10" stroke-dasharray="" clip-path="url(#dQDVTVLIikOJ)"/><path fill="rgb(170,155,205)" stroke="none" paint-order="stroke" d="M 351.493408203125 386.0962829589844 L 351.6318054199219 386.14739990234375 L 344.3319396972656 401.7106018066406 L 344.16754150390625 401.71490478515625 L 351.493408203125 386.0962829589844 Z" fill-opacity="1" fill-rule="evenodd" clip-path="url(#dQDVTVLIikOJ)"/><path fill="none" stroke="rgb(0,0,0)" paint-order="fill" d="M 351.493408203125 386.0962829589844 L 351.6318054199219 386.14739990234375 L 344.3319396972656 401.7106018066406 L 344.16754150390625 401.71490478515625 L 351.493408203125 386.0962829589844 Z" stroke-opacity="1" stroke-linejoin="bevel" stroke-miterlimit="10" stroke-dasharray="" clip-path="url(#dQDVTVLIikOJ)"/><path fill="rgb(170,155,205)" stroke="none" paint-order="stroke" d="M 344.16754150390625 401.71490478515625 L 346.1946716308594 401.6617736816406 L 345.0960998535156 418.14483642578125 L 343.0187072753906 418.9521789550781 L 344.16754150390625 401.71490478515625 Z" fill-opacity="1" fill-rule="evenodd" clip-path="url(#dQDVTVLIikOJ)"/><path fill="none" stroke="rgb(0,0,0)" paint-order="fill" d="M 344.16754150390625 401.71490478515625 L 346.1946716308594 401.6617736816406 L 345.0960998535156 418.14483642578125 L 343.0187072753906 418.9521789550781 L 344.16754150390625 401.71490478515625 Z" stroke-opacity="1" stroke-linejoin="bevel" stroke-miterlimit="10" stroke-dasharray="" clip-path="url(#dQDVTVLIikOJ)"/><path fill="rgb(187,175,215)" stroke="none" paint-order="stroke" d="M 343.0187072753906 418.9521789550781 L 347.8192443847656 417.0865783691406 L 351.92449951171875 431.9980773925781 L 347.585693359375 435.5408630371094 L 343.0187072753906 418.9521789550781 Z" fill-opacity="1" fill-rule="evenodd" clip-path="url(#dQDVTVLIikOJ)"/><path fill="none" stroke="rgb(0,0,0)" paint-order="fill" d="M 343.0187072753906 418.9521789550781 L 347.8192443847656 417.0865783691406 L 351.92449951171875 431.9980773925781 L 347.585693359375 435.5408630371094 L 343.0187072753906 418.9521789550781 Z" stroke-opacity="1" stroke-linejoin="bevel" stroke-miterlimit="10" stroke-dasharray="" clip-path="url(#dQDVTVLIikOJ)"/><path fill="rgb(187,175,215)" stroke="none" paint-order="stroke" d="M 347.585693359375 435.5408630371094 L 350.9847412109375 432.7654113769531 L 359.5907287597656 445.92169189453125 L 356.93194580078125 449.82879638671875 L 347.585693359375 435.5408630371094 Z" fill-opacity="1" fill-rule="evenodd" clip-path="url(#dQDVTVLIikOJ)"/><path fill="none" stroke="rgb(0,0,0)" paint-order="fill" d="M 347.585693359375 435.5408630371094 L 350.9847412109375 432.7654113769531 L 359.5907287597656 445.92169189453125 L 356.93194580078125 449.82879638671875 L 347.585693359375 435.5408630371094 Z" stroke-opacity="1" stroke-linejoin="bevel" stroke-miterlimit="10" stroke-dasharray="" clip-path="url(#dQDVTVLIikOJ)"/><path fill="rgb(170,155,205)" stroke="none" paint-order="stroke" d="M 356.93194580078125 449.82879638671875 L 358.5743408203125 447.4152526855469 L 370.9013366699219 457.7658386230469 L 369.8930969238281 460.7118835449219 L 356.93194580078125 449.82879638671875 Z" fill-opacity="1" fill-rule="evenodd" clip-path="url(#dQDVTVLIikOJ)"/><path fill="none" stroke="rgb(0,0,0)" paint-order="fill" d="M 356.93194580078125 449.82879638671875 L 358.5743408203125 447.4152526855469 L 370.9013366699219 457.7658386230469 L 369.8930969238281 460.7118835449219 L 356.93194580078125 449.82879638671875 Z" stroke-opacity="1" stroke-linejoin="bevel" stroke-miterlimit="10" stroke-dasharray="" clip-path="url(#dQDVTVLIikOJ)"/><path fill="rgb(187,175,215)" stroke="none" paint-order="stroke" d="M 369.8930969238281 460.7118835449219 L 371.80804443359375 455.11651611328125 L 385.7259521484375 461.32196044921875 L 385.23687744140625 467.55303955078125 L 369.8930969238281 460.7118835449219 Z" fill-opacity="1" fill-rule="evenodd" clip-path="url(#dQDVTVLIikOJ)"/><path fill="none" stroke="rgb(0,0,0)" paint-order="fill" d="M 369.8930969238281 460.7118835449219 L 371.80804443359375 455.11651611328125 L 385.7259521484375 461.32196044921875 L 385.23687744140625 467.55303955078125 L 369.8930969238281 460.7118835449219 Z" stroke-opacity="1" stroke-linejoin="bevel" stroke-miterlimit="10" stroke-dasharray="" clip-path="url(#dQDVTVLIikOJ)"/><path fill="rgb(170,155,205)" stroke="none" paint-order="stroke" d="M 385.23687744140625 467.55303955078125 L 385.3960876464844 465.5245666503906 L 401.4260559082031 467.99407958984375 L 401.76690673828125 470.099609375 L 385.23687744140625 467.55303955078125 Z" fill-opacity="1" fill-rule="evenodd" clip-path="url(#dQDVTVLIikOJ)"/><path fill="none" stroke="rgb(0,0,0)" paint-order="fill" d="M 385.23687744140625 467.55303955078125 L 385.3960876464844 465.5245666503906 L 401.4260559082031 467.99407958984375 L 401.76690673828125 470.099609375 L 385.23687744140625 467.55303955078125 Z" stroke-opacity="1" stroke-linejoin="bevel" stroke-miterlimit="10" stroke-dasharray="" clip-path="url(#dQDVTVLIikOJ)"/><path fill="rgb(170,155,205)" stroke="none" paint-order="stroke" d="M 401.76690673828125 470.099609375 L 401.5131530761719 468.5321960449219 L 417.7607421875 466.875732421875 L 418.3888244628906 468.40496826171875 L 401.76690673828125 470.099609375 Z" fill-opacity="1" fill-rule="evenodd" clip-path="url(#dQDVTVLIikOJ)"/><path fill="none" stroke="rgb(0,0,0)" paint-order="fill" d="M 401.76690673828125 470.099609375 L 401.5131530761719 468.5321960449219 L 417.7607421875 466.875732421875 L 418.3888244628906 468.40496826171875 L 401.76690673828125 470.099609375 Z" stroke-opacity="1" stroke-linejoin="bevel" stroke-miterlimit="10" stroke-dasharray="" clip-path="url(#dQDVTVLIikOJ)"/><path fill="rgb(187,175,215)" stroke="none" paint-order="stroke" d="M 418.3888244628906 468.40496826171875 L 416.40814208984375 463.58233642578125 L 431.0497741699219 458.33575439453125 L 434.1498107910156 462.7572937011719 L 418.3888244628906 468.40496826171875 Z" fill-opacity="1" fill-rule="evenodd" clip-path="url(#dQDVTVLIikOJ)"/><path fill="none" stroke="rgb(0,0,0)" paint-order="fill" d="M 418.3888244628906 468.40496826171875 L 416.40814208984375 463.58233642578125 L 431.0497741699219 458.33575439453125 L 434.1498107910156 462.7572937011719 L 418.3888244628906 468.40496826171875 Z" stroke-opacity="1" stroke-linejoin="bevel" stroke-miterlimit="10" stroke-dasharray="" clip-path="url(#dQDVTVLIikOJ)"/><path fill="rgb(170,155,205)" stroke="none" paint-order="stroke" d="M 434.1498107910156 462.7572937011719 L 432.17620849609375 459.94232177734375 L 445.64801025390625 451.2145690917969 L 448.2596130371094 453.6162109375 L 434.1498107910156 462.7572937011719 Z" fill-opacity="1" fill-rule="evenodd" clip-path="url(#dQDVTVLIikOJ)"/><path fill="none" stroke="rgb(0,0,0)" paint-order="fill" d="M 434.1498107910156 462.7572937011719 L 432.17620849609375 459.94232177734375 L 445.64801025390625 451.2145690917969 L 448.2596130371094 453.6162109375 L 434.1498107910156 462.7572937011719 Z" stroke-opacity="1" stroke-linejoin="bevel" stroke-miterlimit="10" stroke-dasharray="" clip-path="url(#dQDVTVLIikOJ)"/><path fill="rgb(170,155,205)" stroke="none" paint-order="stroke" d="M 448.2596130371094 453.6162109375 L 445.22979736328125 450.8299560546875 L 456.4470520019531 439.4045104980469 L 460.09783935546875 441.5582275390625 L 448.2596130371094 453.6162109375 Z" fill-opacity="1" fill-rule="evenodd" clip-path="url(#dQDVTVLIikOJ)"/><path fill="none" stroke="rgb(0,0,0)" paint-order="fill" d="M 448.2596130371094 453.6162109375 L 445.22979736328125 450.8299560546875 L 456.4470520019531 439.4045104980469 L 460.09783935546875 441.5582275390625 L 448.2596130371094 453.6162109375 Z" stroke-opacity="1" stroke-linejoin="bevel" stroke-miterlimit="10" stroke-dasharray="" clip-path="url(#dQDVTVLIikOJ)"/><path fill="rgb(170,155,205)" stroke="none" paint-order="stroke" d="M 460.09783935546875 441.5582275390625 L 457.3331298828125 439.9272155761719 L 466.0852966308594 426.16827392578125 L 469.2120666503906 427.2301025390625 L 460.09783935546875 441.5582275390625 Z" fill-opacity="1" fill-rule="evenodd" clip-path="url(#dQDVTVLIikOJ)"/><path fill="none" stroke="rgb(0,0,0)" paint-order="fill" d="M 460.09783935546875 441.5582275390625 L 457.3331298828125 439.9272155761719 L 466.0852966308594 426.16827392578125 L 469.2120666503906 427.2301025390625 L 460.09783935546875 441.5582275390625 Z" stroke-opacity="1" stroke-linejoin="bevel" stroke-miterlimit="10" stroke-dasharray="" clip-path="url(#dQDVTVLIikOJ)"/><path fill="rgb(187,175,215)" stroke="none" paint-order="stroke" d="M 469.2120666503906 427.2301025390625 L 464.67431640625 425.6891174316406 L 470.4198913574219 410.68695068359375 L 475.3091735839844 411.3101501464844 L 469.2120666503906 427.2301025390625 Z" fill-opacity="1" fill-rule="evenodd" clip-path="url(#dQDVTVLIikOJ)"/><path fill="none" stroke="rgb(0,0,0)" paint-order="fill" d="M 469.2120666503906 427.2301025390625 L 464.67431640625 425.6891174316406 L 470.4198913574219 410.68695068359375 L 475.3091735839844 411.3101501464844 L 469.2120666503906 427.2301025390625 Z" stroke-opacity="1" stroke-linejoin="bevel" stroke-miterlimit="10" stroke-dasharray="" clip-path="url(#dQDVTVLIikOJ)"/><path fill="rgb(170,155,205)" stroke="none" paint-order="stroke" d="M 475.3091735839844 411.3101501464844 L 472.0658264160156 410.8967590332031 L 474.8868103027344 394.7069091796875 L 478.2423095703125 394.4765625 L 475.3091735839844 411.3101501464844 Z" fill-opacity="1" fill-rule="evenodd" clip-path="url(#dQDVTVLIikOJ)"/><path fill="none" stroke="rgb(0,0,0)" paint-order="fill" d="M 475.3091735839844 411.3101501464844 L 472.0658264160156 410.8967590332031 L 474.8868103027344 394.7069091796875 L 478.2423095703125 394.4765625 L 475.3091735839844 411.3101501464844 Z" stroke-opacity="1" stroke-linejoin="bevel" stroke-miterlimit="10" stroke-dasharray="" clip-path="url(#dQDVTVLIikOJ)"/><path fill="rgb(187,175,215)" stroke="none" paint-order="stroke" d="M 478.2423095703125 394.4765625 L 471.9466247558594 394.90875244140625 L 471.7171936035156 379.0409851074219 L 477.9951477050781 377.3822326660156 L 478.2423095703125 394.4765625 Z" fill-opacity="1" fill-rule="evenodd" clip-path="url(#dQDVTVLIikOJ)"/><path fill="none" stroke="rgb(0,0,0)" paint-order="fill" d="M 478.2423095703125 394.4765625 L 471.9466247558594 394.90875244140625 L 471.7171936035156 379.0409851074219 L 477.9951477050781 377.3822326660156 L 478.2423095703125 394.4765625 Z" stroke-opacity="1" stroke-linejoin="bevel" stroke-miterlimit="10" stroke-dasharray="" clip-path="url(#dQDVTVLIikOJ)"/><path fill="rgb(187,175,215)" stroke="none" paint-order="stroke" d="M 477.9951477050781 377.3822326660156 L 472.72662353515625 378.7742614746094 L 469.59649658203125 363.0357666015625 L 474.6644592285156 360.63531494140625 L 477.9951477050781 377.3822326660156 Z" fill-opacity="1" fill-rule="evenodd" clip-path="url(#dQDVTVLIikOJ)"/><path fill="none" stroke="rgb(0,0,0)" paint-order="fill" d="M 477.9951477050781 377.3822326660156 L 472.72662353515625 378.7742614746094 L 469.59649658203125 363.0357666015625 L 474.6644592285156 360.63531494140625 L 477.9951477050781 377.3822326660156 Z" stroke-opacity="1" stroke-linejoin="bevel" stroke-miterlimit="10" stroke-dasharray="" clip-path="url(#dQDVTVLIikOJ)"/><path fill="rgb(170,155,205)" stroke="none" paint-order="stroke" d="M 474.6644592285156 360.63531494140625 L 474.4429626464844 360.740234375 L 468.2370300292969 344.931396484375 L 468.442138671875 344.7847595214844 L 474.6644592285156 360.63531494140625 Z" fill-opacity="1" fill-rule="evenodd" clip-path="url(#dQDVTVLIikOJ)"/><path fill="none" stroke="rgb(0,0,0)" paint-order="fill" d="M 474.6644592285156 360.63531494140625 L 474.4429626464844 360.740234375 L 468.2370300292969 344.931396484375 L 468.442138671875 344.7847595214844 L 474.6644592285156 360.63531494140625 Z" stroke-opacity="1" stroke-linejoin="bevel" stroke-miterlimit="10" stroke-dasharray="" clip-path="url(#dQDVTVLIikOJ)"/><path fill="rgb(170,155,205)" stroke="none" paint-order="stroke" d="M 468.442138671875 344.7847595214844 L 467.1739807128906 345.6912841796875 L 458.4731750488281 331.4523620605469 L 459.597412109375 330.3103332519531 L 468.442138671875 344.7847595214844 Z" fill-opacity="1" fill-rule="evenodd" clip-path="url(#dQDVTVLIikOJ)"/><path fill="none" stroke="rgb(0,0,0)" paint-order="fill" d="M 468.442138671875 344.7847595214844 L 467.1739807128906 345.6912841796875 L 458.4731750488281 331.4523620605469 L 459.597412109375 330.3103332519531 L 468.442138671875 344.7847595214844 Z" stroke-opacity="1" stroke-linejoin="bevel" stroke-miterlimit="10" stroke-dasharray="" clip-path="url(#dQDVTVLIikOJ)"/><path fill="rgb(187,175,215)" stroke="none" paint-order="stroke" d="M 459.597412109375 330.3103332519531 L 453.0528564453125 336.9583435058594 L 442.96990966796875 325.4665222167969 L 448.45953369140625 317.6162109375 L 459.597412109375 330.3103332519531 Z" fill-opacity="1" fill-rule="evenodd" clip-path="url(#dQDVTVLIikOJ)"/><path fill="none" stroke="rgb(0,0,0)" paint-order="fill" d="M 459.597412109375 330.3103332519531 L 453.0528564453125 336.9583435058594 L 442.96990966796875 325.4665222167969 L 448.45953369140625 317.6162109375 L 459.597412109375 330.3103332519531 Z" stroke-opacity="1" stroke-linejoin="bevel" stroke-miterlimit="10" stroke-dasharray="" clip-path="url(#dQDVTVLIikOJ)"/><path fill="rgb(187,175,215)" stroke="none" paint-order="stroke" d="M 448.45953369140625 317.6162109375 L 443.371337890625 324.8924865722656 L 431.4596862792969 315.23370361328125 L 435.40155029296875 307.02789306640625 L 448.45953369140625 317.6162109375 Z" fill-opacity="1" fill-rule="evenodd" clip-path="url(#dQDVTVLIikOJ)"/><path fill="none" stroke="rgb(0,0,0)" paint-order="fill" d="M 448.45953369140625 317.6162109375 L 443.371337890625 324.8924865722656 L 431.4596862792969 315.23370361328125 L 435.40155029296875 307.02789306640625 L 448.45953369140625 317.6162109375 Z" stroke-opacity="1" stroke-linejoin="bevel" stroke-miterlimit="10" stroke-dasharray="" clip-path="url(#dQDVTVLIikOJ)"/><path fill="rgb(170,155,205)" stroke="none" paint-order="stroke" d="M 435.40155029296875 307.02789306640625 L 434.9765625 307.91259765625 L 420.53826904296875 299.75445556640625 L 420.8253173828125 298.7917785644531 L 435.40155029296875 307.02789306640625 Z" fill-opacity="1" fill-rule="evenodd" clip-path="url(#dQDVTVLIikOJ)"/><path fill="none" stroke="rgb(0,0,0)" paint-order="fill" d="M 435.40155029296875 307.02789306640625 L 434.9765625 307.91259765625 L 420.53826904296875 299.75445556640625 L 420.8253173828125 298.7917785644531 L 435.40155029296875 307.02789306640625 Z" stroke-opacity="1" stroke-linejoin="bevel" stroke-miterlimit="10" stroke-dasharray="" clip-path="url(#dQDVTVLIikOJ)"/><path fill="rgb(204,195,225)" stroke="none" paint-order="stroke" d="M 420.8253173828125 298.7917785644531 L 417.4439697265625 310.1324462890625 L 403.5145568847656 305.0546569824219 L 405.1478271484375 293.0767517089844 L 420.8253173828125 298.7917785644531 Z" fill-opacity="1" fill-rule="evenodd" clip-path="url(#dQDVTVLIikOJ)"/><path fill="none" stroke="rgb(0,0,0)" paint-order="fill" d="M 420.8253173828125 298.7917785644531 L 417.4439697265625 310.1324462890625 L 403.5145568847656 305.0546569824219 L 405.1478271484375 293.0767517089844 L 420.8253173828125 298.7917785644531 Z" stroke-opacity="1" stroke-linejoin="bevel" stroke-miterlimit="10" stroke-dasharray="" clip-path="url(#dQDVTVLIikOJ)"/><path fill="rgb(187,175,215)" stroke="none" paint-order="stroke" d="M 405.1478271484375 293.0767517089844 L 403.92034912109375 302.0786437988281 L 388.93255615234375 299.23919677734375 L 388.7892150878906 289.97760009765625 L 405.1478271484375 293.0767517089844 Z" fill-opacity="1" fill-rule="evenodd" clip-path="url(#dQDVTVLIikOJ)"/><path fill="none" stroke="rgb(0,0,0)" paint-order="fill" d="M 405.1478271484375 293.0767517089844 L 403.92034912109375 302.0786437988281 L 388.93255615234375 299.23919677734375 L 388.7892150878906 289.97760009765625 L 405.1478271484375 293.0767517089844 Z" stroke-opacity="1" stroke-linejoin="bevel" stroke-miterlimit="10" stroke-dasharray="" clip-path="url(#dQDVTVLIikOJ)"/><path fill="rgb(170,155,205)" stroke="none" paint-order="stroke" d="M 388.7892150878906 289.97760009765625 L 388.8189697265625 291.9007263183594 L 372.481201171875 291.4508972167969 L 372.1621398925781 289.5198059082031 L 388.7892150878906 289.97760009765625 Z" fill-opacity="1" fill-rule="evenodd" clip-path="url(#dQDVTVLIikOJ)"/><path fill="none" stroke="rgb(0,0,0)" paint-order="fill" d="M 388.7892150878906 289.97760009765625 L 388.8189697265625 291.9007263183594 L 372.481201171875 291.4508972167969 L 372.1621398925781 289.5198059082031 L 388.7892150878906 289.97760009765625 Z" stroke-opacity="1" stroke-linejoin="bevel" stroke-miterlimit="10" stroke-dasharray="" clip-path="url(#dQDVTVLIikOJ)"/><path fill="rgb(153,135,195)" stroke="none" paint-order="stroke" d="M 372.1621398925781 289.5198059082031 L 371.8280029296875 287.49774169921875 L 355.02801513671875 289.68231201171875 L 355.66278076171875 291.6653137207031 L 372.1621398925781 289.5198059082031 Z" fill-opacity="1" fill-rule="evenodd" clip-path="url(#dQDVTVLIikOJ)"/><path fill="none" stroke="rgb(0,0,0)" paint-order="fill" d="M 372.1621398925781 289.5198059082031 L 371.8280029296875 287.49774169921875 L 355.02801513671875 289.68231201171875 L 355.66278076171875 291.6653137207031 L 372.1621398925781 289.5198059082031 Z" stroke-opacity="1" stroke-linejoin="bevel" stroke-miterlimit="10" stroke-dasharray="" clip-path="url(#dQDVTVLIikOJ)"/><path fill="rgb(170,155,205)" stroke="none" paint-order="stroke" d="M 355.66278076171875 291.6653137207031 L 356.320556640625 293.72027587890625 L 340.6231689453125 298.28607177734375 L 339.6632995605469 296.3189697265625 L 355.66278076171875 291.6653137207031 Z" fill-opacity="1" fill-rule="evenodd" clip-path="url(#dQDVTVLIikOJ)"/><path fill="none" stroke="rgb(0,0,0)" paint-order="fill" d="M 355.66278076171875 291.6653137207031 L 356.320556640625 293.72027587890625 L 340.6231689453125 298.28607177734375 L 339.6632995605469 296.3189697265625 L 355.66278076171875 291.6653137207031 Z" stroke-opacity="1" stroke-linejoin="bevel" stroke-miterlimit="10" stroke-dasharray="" clip-path="url(#dQDVTVLIikOJ)"/><path fill="rgb(187,175,215)" stroke="none" paint-order="stroke" d="M 339.6632995605469 296.3189697265625 L 343.85931396484375 304.91796875 L 329.9528503417969 311.35546875 L 324.5057678222656 303.3356018066406 L 339.6632995605469 296.3189697265625 Z" fill-opacity="1" fill-rule="evenodd" clip-path="url(#dQDVTVLIikOJ)"/><path fill="none" stroke="rgb(0,0,0)" paint-order="fill" d="M 339.6632995605469 296.3189697265625 L 343.85931396484375 304.91796875 L 329.9528503417969 311.35546875 L 324.5057678222656 303.3356018066406 L 339.6632995605469 296.3189697265625 Z" stroke-opacity="1" stroke-linejoin="bevel" stroke-miterlimit="10" stroke-dasharray="" clip-path="url(#dQDVTVLIikOJ)"/><path fill="rgb(170,155,205)" stroke="none" paint-order="stroke" d="M 324.5057678222656 303.3356018066406 L 326.0433044433594 305.599365234375 L 312.361328125 314.5768127441406 L 310.4974060058594 312.5272216796875 L 324.5057678222656 303.3356018066406 Z" fill-opacity="1" fill-rule="evenodd" clip-path="url(#dQDVTVLIikOJ)"/><path fill="none" stroke="rgb(0,0,0)" paint-order="fill" d="M 324.5057678222656 303.3356018066406 L 326.0433044433594 305.599365234375 L 312.361328125 314.5768127441406 L 310.4974060058594 312.5272216796875 L 324.5057678222656 303.3356018066406 Z" stroke-opacity="1" stroke-linejoin="bevel" stroke-miterlimit="10" stroke-dasharray="" clip-path="url(#dQDVTVLIikOJ)"/><path fill="rgb(170,155,205)" stroke="none" paint-order="stroke" d="M 310.4974060058594 312.5272216796875 L 314.7932434082031 317.25103759765625 L 302.8789367675781 327.795654296875 L 297.9070129394531 323.670166015625 L 310.4974060058594 312.5272216796875 Z" fill-opacity="1" fill-rule="evenodd" clip-path="url(#dQDVTVLIikOJ)"/><path fill="none" stroke="rgb(0,0,0)" paint-order="fill" d="M 310.4974060058594 312.5272216796875 L 314.7932434082031 317.25103759765625 L 302.8789367675781 327.795654296875 L 297.9070129394531 323.670166015625 L 310.4974060058594 312.5272216796875 Z" stroke-opacity="1" stroke-linejoin="bevel" stroke-miterlimit="10" stroke-dasharray="" clip-path="url(#dQDVTVLIikOJ)"/><path fill="rgb(187,175,215)" stroke="none" paint-order="stroke" d="M 297.9070129394531 323.670166015625 L 307.27880859375 331.4465026855469 L 297.4422912597656 342.9890441894531 L 286.9627685546875 336.5125732421875 L 297.9070129394531 323.670166015625 Z" fill-opacity="1" fill-rule="evenodd" clip-path="url(#dQDVTVLIikOJ)"/><path fill="none" stroke="rgb(0,0,0)" paint-order="fill" d="M 297.9070129394531 323.670166015625 L 307.27880859375 331.4465026855469 L 297.4422912597656 342.9890441894531 L 286.9627685546875 336.5125732421875 L 297.9070129394531 323.670166015625 Z" stroke-opacity="1" stroke-linejoin="bevel" stroke-miterlimit="10" stroke-dasharray="" clip-path="url(#dQDVTVLIikOJ)"/><path fill="rgb(187,175,215)" stroke="none" paint-order="stroke" d="M 286.9627685546875 336.5125732421875 L 297.2610778808594 342.8770751953125 L 289.05535888671875 355.72637939453125 L 277.8507080078125 350.7810974121094 L 286.9627685546875 336.5125732421875 Z" fill-opacity="1" fill-rule="evenodd" clip-path="url(#dQDVTVLIikOJ)"/><path fill="none" stroke="rgb(0,0,0)" paint-order="fill" d="M 286.9627685546875 336.5125732421875 L 297.2610778808594 342.8770751953125 L 289.05535888671875 355.72637939453125 L 277.8507080078125 350.7810974121094 L 286.9627685546875 336.5125732421875 Z" stroke-opacity="1" stroke-linejoin="bevel" stroke-miterlimit="10" stroke-dasharray="" clip-path="url(#dQDVTVLIikOJ)"/><path fill="rgb(187,175,215)" stroke="none" paint-order="stroke" d="M 277.8507080078125 350.7810974121094 L 286.54681396484375 354.61920166015625 L 279.96142578125 368.8365478515625 L 270.71441650390625 366.1877746582031 L 277.8507080078125 350.7810974121094 Z" fill-opacity="1" fill-rule="evenodd" clip-path="url(#dQDVTVLIikOJ)"/><path fill="none" stroke="rgb(0,0,0)" paint-order="fill" d="M 277.8507080078125 350.7810974121094 L 286.54681396484375 354.61920166015625 L 279.96142578125 368.8365478515625 L 270.71441650390625 366.1877746582031 L 277.8507080078125 350.7810974121094 Z" stroke-opacity="1" stroke-linejoin="bevel" stroke-miterlimit="10" stroke-dasharray="" clip-path="url(#dQDVTVLIikOJ)"/><path fill="rgb(187,175,215)" stroke="none" paint-order="stroke" d="M 270.71441650390625 366.1877746582031 L 279.6497802734375 368.7472839355469 L 274.96820068359375 383.78369140625 L 265.6554870605469 382.43621826171875 L 270.71441650390625 366.1877746582031 Z" fill-opacity="1" fill-rule="evenodd" clip-path="url(#dQDVTVLIikOJ)"/><path fill="none" stroke="rgb(0,0,0)" paint-order="fill" d="M 270.71441650390625 366.1877746582031 L 279.6497802734375 368.7472839355469 L 274.96820068359375 383.78369140625 L 265.6554870605469 382.43621826171875 L 270.71441650390625 366.1877746582031 Z" stroke-opacity="1" stroke-linejoin="bevel" stroke-miterlimit="10" stroke-dasharray="" clip-path="url(#dQDVTVLIikOJ)"/><path fill="rgb(187,175,215)" stroke="none" paint-order="stroke" d="M 265.6554870605469 382.43621826171875 L 275.4988098144531 383.8604736328125 L 272.8081359863281 399.32781982421875 L 262.7345275878906 399.2275085449219 L 265.6554870605469 382.43621826171875 Z" fill-opacity="1" fill-rule="evenodd" clip-path="url(#dQDVTVLIikOJ)"/><path fill="none" stroke="rgb(0,0,0)" paint-order="fill" d="M 265.6554870605469 382.43621826171875 L 275.4988098144531 383.8604736328125 L 272.8081359863281 399.32781982421875 L 262.7345275878906 399.2275085449219 L 265.6554870605469 382.43621826171875 Z" stroke-opacity="1" stroke-linejoin="bevel" stroke-miterlimit="10" stroke-dasharray="" clip-path="url(#dQDVTVLIikOJ)"/><path fill="rgb(187,175,215)" stroke="none" paint-order="stroke" d="M 262.7345275878906 399.2275085449219 L 272.3929138183594 399.3236999511719 L 271.6888732910156 415.0736083984375 L 261.9729309082031 416.265380859375 L 262.7345275878906 399.2275085449219 Z" fill-opacity="1" fill-rule="evenodd" clip-path="url(#dQDVTVLIikOJ)"/><path fill="none" stroke="rgb(0,0,0)" paint-order="fill" d="M 262.7345275878906 399.2275085449219 L 272.3929138183594 399.3236999511719 L 271.6888732910156 415.0736083984375 L 261.9729309082031 416.265380859375 L 262.7345275878906 399.2275085449219 Z" stroke-opacity="1" stroke-linejoin="bevel" stroke-miterlimit="10" stroke-dasharray="" clip-path="url(#dQDVTVLIikOJ)"/><path fill="rgb(170,155,205)" stroke="none" paint-order="stroke" d="M 261.9729309082031 416.265380859375 L 262.7597961425781 416.1688537597656 L 264.13348388671875 433.060546875 L 263.35504150390625 433.2611083984375 L 261.9729309082031 416.265380859375 Z" fill-opacity="1" fill-rule="evenodd" clip-path="url(#dQDVTVLIikOJ)"/><path fill="none" stroke="rgb(0,0,0)" paint-order="fill" d="M 261.9729309082031 416.265380859375 L 262.7597961425781 416.1688537597656 L 264.13348388671875 433.060546875 L 263.35504150390625 433.2611083984375 L 261.9729309082031 416.265380859375 Z" stroke-opacity="1" stroke-linejoin="bevel" stroke-miterlimit="10" stroke-dasharray="" clip-path="url(#dQDVTVLIikOJ)"/><path fill="rgb(170,155,205)" stroke="none" paint-order="stroke" d="M 263.35504150390625 433.2611083984375 L 267.5086975097656 432.19085693359375 L 270.8709716796875 448.3227233886719 L 266.83087158203125 449.9377746582031 L 263.35504150390625 433.2611083984375 Z" fill-opacity="1" fill-rule="evenodd" clip-path="url(#dQDVTVLIikOJ)"/><path fill="none" stroke="rgb(0,0,0)" paint-order="fill" d="M 263.35504150390625 433.2611083984375 L 267.5086975097656 432.19085693359375 L 270.8709716796875 448.3227233886719 L 266.83087158203125 449.9377746582031 L 263.35504150390625 433.2611083984375 Z" stroke-opacity="1" stroke-linejoin="bevel" stroke-miterlimit="10" stroke-dasharray="" clip-path="url(#dQDVTVLIikOJ)"/><path fill="rgb(187,175,215)" stroke="none" paint-order="stroke" d="M 266.83087158203125 449.9377746582031 L 274.2020263671875 446.9910888671875 L 279.36297607421875 462.12774658203125 L 272.31890869140625 466.0338134765625 L 266.83087158203125 449.9377746582031 Z" fill-opacity="1" fill-rule="evenodd" clip-path="url(#dQDVTVLIikOJ)"/><path fill="none" stroke="rgb(0,0,0)" paint-order="fill" d="M 266.83087158203125 449.9377746582031 L 274.2020263671875 446.9910888671875 L 279.36297607421875 462.12774658203125 L 272.31890869140625 466.0338134765625 L 266.83087158203125 449.9377746582031 Z" stroke-opacity="1" stroke-linejoin="bevel" stroke-miterlimit="10" stroke-dasharray="" clip-path="url(#dQDVTVLIikOJ)"/><path fill="rgb(187,175,215)" stroke="none" paint-order="stroke" d="M 272.31890869140625 466.0338134765625 L 281.1849365234375 461.117431640625 L 288.0209655761719 475.244140625 L 279.7093811035156 481.3062744140625 L 272.31890869140625 466.0338134765625 Z" fill-opacity="1" fill-rule="evenodd" clip-path="url(#dQDVTVLIikOJ)"/><path fill="none" stroke="rgb(0,0,0)" paint-order="fill" d="M 272.31890869140625 466.0338134765625 L 281.1849365234375 461.117431640625 L 288.0209655761719 475.244140625 L 279.7093811035156 481.3062744140625 L 272.31890869140625 466.0338134765625 Z" stroke-opacity="1" stroke-linejoin="bevel" stroke-miterlimit="10" stroke-dasharray="" clip-path="url(#dQDVTVLIikOJ)"/><path fill="rgb(187,175,215)" stroke="none" paint-order="stroke" d="M 279.7093811035156 481.3062744140625 L 288.10711669921875 475.1813049316406 L 296.5711364746094 488.3299560546875 L 288.8675537109375 495.5332946777344 L 279.7093811035156 481.3062744140625 Z" fill-opacity="1" fill-rule="evenodd" clip-path="url(#dQDVTVLIikOJ)"/><path fill="none" stroke="rgb(0,0,0)" paint-order="fill" d="M 279.7093811035156 481.3062744140625 L 288.10711669921875 475.1813049316406 L 296.5711364746094 488.3299560546875 L 288.8675537109375 495.5332946777344 L 279.7093811035156 481.3062744140625 Z" stroke-opacity="1" stroke-linejoin="bevel" stroke-miterlimit="10" stroke-dasharray="" clip-path="url(#dQDVTVLIikOJ)"/><path fill="rgb(170,155,205)" stroke="none" paint-order="stroke" d="M 288.8675537109375 495.5332946777344 L 293.23138427734375 491.4528503417969 L 303.5386047363281 503.87835693359375 L 299.63720703125 508.5162658691406 L 288.8675537109375 495.5332946777344 Z" fill-opacity="1" fill-rule="evenodd" clip-path="url(#dQDVTVLIikOJ)"/><path fill="none" stroke="rgb(0,0,0)" paint-order="fill" d="M 288.8675537109375 495.5332946777344 L 293.23138427734375 491.4528503417969 L 303.5386047363281 503.87835693359375 L 299.63720703125 508.5162658691406 L 288.8675537109375 495.5332946777344 Z" stroke-opacity="1" stroke-linejoin="bevel" stroke-miterlimit="10" stroke-dasharray="" clip-path="url(#dQDVTVLIikOJ)"/><path fill="rgb(204,195,225)" stroke="none" paint-order="stroke" d="M 299.63720703125 508.5162658691406 L 309.7921447753906 496.4442138671875 L 320.6347961425781 506.7167053222656 L 311.8441162109375 520.0812377929688 L 299.63720703125 508.5162658691406 Z" fill-opacity="1" fill-rule="evenodd" clip-path="url(#dQDVTVLIikOJ)"/><path fill="none" stroke="rgb(0,0,0)" paint-order="fill" d="M 299.63720703125 508.5162658691406 L 309.7921447753906 496.4442138671875 L 320.6347961425781 506.7167053222656 L 311.8441162109375 520.0812377929688 L 299.63720703125 508.5162658691406 Z" stroke-opacity="1" stroke-linejoin="bevel" stroke-miterlimit="10" stroke-dasharray="" clip-path="url(#dQDVTVLIikOJ)"/><path fill="rgb(170,155,205)" stroke="none" paint-order="stroke" d="M 311.8441162109375 520.0812377929688 L 315.0742492675781 515.17041015625 L 327.9769592285156 524.7588500976562 L 325.2994079589844 530.080322265625 L 311.8441162109375 520.0812377929688 Z" fill-opacity="1" fill-rule="evenodd" clip-path="url(#dQDVTVLIikOJ)"/><path fill="none" stroke="rgb(0,0,0)" paint-order="fill" d="M 311.8441162109375 520.0812377929688 L 315.0742492675781 515.17041015625 L 327.9769592285156 524.7588500976562 L 325.2994079589844 530.080322265625 L 311.8441162109375 520.0812377929688 Z" stroke-opacity="1" stroke-linejoin="bevel" stroke-miterlimit="10" stroke-dasharray="" clip-path="url(#dQDVTVLIikOJ)"/><path fill="rgb(170,155,205)" stroke="none" paint-order="stroke" d="M 325.2994079589844 530.080322265625 L 328.05242919921875 524.60888671875 L 341.9437561035156 532.5694580078125 L 339.8031311035156 538.391845703125 L 325.2994079589844 530.080322265625 Z" fill-opacity="1" fill-rule="evenodd" clip-path="url(#dQDVTVLIikOJ)"/><path fill="none" stroke="rgb(0,0,0)" paint-order="fill" d="M 325.2994079589844 530.080322265625 L 328.05242919921875 524.60888671875 L 341.9437561035156 532.5694580078125 L 339.8031311035156 538.391845703125 L 325.2994079589844 530.080322265625 Z" stroke-opacity="1" stroke-linejoin="bevel" stroke-miterlimit="10" stroke-dasharray="" clip-path="url(#dQDVTVLIikOJ)"/><path fill="rgb(170,155,205)" stroke="none" paint-order="stroke" d="M 339.8031311035156 538.391845703125 L 342.1986389160156 531.876220703125 L 356.8179626464844 538.0969848632812 L 355.1474609375 544.921142578125 L 339.8031311035156 538.391845703125 Z" fill-opacity="1" fill-rule="evenodd" clip-path="url(#dQDVTVLIikOJ)"/><path fill="none" stroke="rgb(0,0,0)" paint-order="fill" d="M 339.8031311035156 538.391845703125 L 342.1986389160156 531.876220703125 L 356.8179626464844 538.0969848632812 L 355.1474609375 544.921142578125 L 339.8031311035156 538.391845703125 Z" stroke-opacity="1" stroke-linejoin="bevel" stroke-miterlimit="10" stroke-dasharray="" clip-path="url(#dQDVTVLIikOJ)"/><path fill="rgb(187,175,215)" stroke="none" paint-order="stroke" d="M 355.1474609375 544.921142578125 L 357.843505859375 533.9074096679688 L 372.5978698730469 538.2294921875 L 371.11993408203125 549.60009765625 L 355.1474609375 544.921142578125 Z" fill-opacity="1" fill-rule="evenodd" clip-path="url(#dQDVTVLIikOJ)"/><path fill="none" stroke="rgb(0,0,0)" paint-order="fill" d="M 355.1474609375 544.921142578125 L 357.843505859375 533.9074096679688 L 372.5978698730469 538.2294921875 L 371.11993408203125 549.60009765625 L 355.1474609375 544.921142578125 Z" stroke-opacity="1" stroke-linejoin="bevel" stroke-miterlimit="10" stroke-dasharray="" clip-path="url(#dQDVTVLIikOJ)"/><path fill="rgb(153,135,195)" stroke="none" paint-order="stroke" d="M 371.11993408203125 549.60009765625 L 370.7572937011719 552.389892578125 L 387.4502868652344 555.228515625 L 387.50628662109375 552.3865966796875 L 371.11993408203125 549.60009765625 Z" fill-opacity="1" fill-rule="evenodd" clip-path="url(#dQDVTVLIikOJ)"/><path fill="none" stroke="rgb(0,0,0)" paint-order="fill" d="M 371.11993408203125 549.60009765625 L 370.7572937011719 552.389892578125 L 387.4502868652344 555.228515625 L 387.50628662109375 552.3865966796875 L 371.11993408203125 549.60009765625 Z" stroke-opacity="1" stroke-linejoin="bevel" stroke-miterlimit="10" stroke-dasharray="" clip-path="url(#dQDVTVLIikOJ)"/><path fill="rgb(170,155,205)" stroke="none" paint-order="stroke" d="M 387.50628662109375 552.3865966796875 L 387.6254577636719 546.34033203125 L 403.5523681640625 547.1829223632812 L 404.093505859375 553.2640991210938 L 387.50628662109375 552.3865966796875 Z" fill-opacity="1" fill-rule="evenodd" clip-path="url(#dQDVTVLIikOJ)"/><path fill="none" stroke="rgb(0,0,0)" paint-order="fill" d="M 387.50628662109375 552.3865966796875 L 387.6254577636719 546.34033203125 L 403.5523681640625 547.1829223632812 L 404.093505859375 553.2640991210938 L 387.50628662109375 552.3865966796875 Z" stroke-opacity="1" stroke-linejoin="bevel" stroke-miterlimit="10" stroke-dasharray="" clip-path="url(#dQDVTVLIikOJ)"/><path fill="rgb(170,155,205)" stroke="none" paint-order="stroke" d="M 404.093505859375 553.2640991210938 L 403.4905700683594 546.4884033203125 L 419.333984375 545.5100708007812 L 420.6722106933594 552.2402954101562 L 404.093505859375 553.2640991210938 Z" fill-opacity="1" fill-rule="evenodd" clip-path="url(#dQDVTVLIikOJ)"/><path fill="none" stroke="rgb(0,0,0)" paint-order="fill" d="M 404.093505859375 553.2640991210938 L 403.4905700683594 546.4884033203125 L 419.333984375 545.5100708007812 L 420.6722106933594 552.2402954101562 L 404.093505859375 553.2640991210938 Z" stroke-opacity="1" stroke-linejoin="bevel" stroke-miterlimit="10" stroke-dasharray="" clip-path="url(#dQDVTVLIikOJ)"/><path fill="rgb(187,175,215)" stroke="none" paint-order="stroke" d="M 420.6722106933594 552.2402954101562 L 417.7356872558594 537.4720458984375 L 432.5097961425781 534.8594970703125 L 437.0392761230469 549.3461303710938 L 420.6722106933594 552.2402954101562 Z" fill-opacity="1" fill-rule="evenodd" clip-path="url(#dQDVTVLIikOJ)"/><path fill="none" stroke="rgb(0,0,0)" paint-order="fill" d="M 420.6722106933594 552.2402954101562 L 417.7356872558594 537.4720458984375 L 432.5097961425781 534.8594970703125 L 437.0392761230469 549.3461303710938 L 420.6722106933594 552.2402954101562 Z" stroke-opacity="1" stroke-linejoin="bevel" stroke-miterlimit="10" stroke-dasharray="" clip-path="url(#dQDVTVLIikOJ)"/><path fill="rgb(187,175,215)" stroke="none" paint-order="stroke" d="M 437.0392761230469 549.3461303710938 L 433.6650695800781 538.554443359375 L 448.4683532714844 534.1838989257812 L 452.99969482421875 544.6339111328125 L 437.0392761230469 549.3461303710938 Z" fill-opacity="1" fill-rule="evenodd" clip-path="url(#dQDVTVLIikOJ)"/><path fill="none" stroke="rgb(0,0,0)" paint-order="fill" d="M 437.0392761230469 549.3461303710938 L 433.6650695800781 538.554443359375 L 448.4683532714844 534.1838989257812 L 452.99969482421875 544.6339111328125 L 437.0392761230469 549.3461303710938 Z" stroke-opacity="1" stroke-linejoin="bevel" stroke-miterlimit="10" stroke-dasharray="" clip-path="url(#dQDVTVLIikOJ)"/><path fill="rgb(170,155,205)" stroke="none" paint-order="stroke" d="M 452.99969482421875 544.6339111328125 L 449.8688049316406 537.41357421875 L 464.468017578125 531.2793579101562 L 468.36883544921875 538.1762084960938 L 452.99969482421875 544.6339111328125 Z" fill-opacity="1" fill-rule="evenodd" clip-path="url(#dQDVTVLIikOJ)"/><path fill="none" stroke="rgb(0,0,0)" paint-order="fill" d="M 452.99969482421875 544.6339111328125 L 449.8688049316406 537.41357421875 L 464.468017578125 531.2793579101562 L 468.36883544921875 538.1762084960938 L 452.99969482421875 544.6339111328125 Z" stroke-opacity="1" stroke-linejoin="bevel" stroke-miterlimit="10" stroke-dasharray="" clip-path="url(#dQDVTVLIikOJ)"/><path fill="rgb(170,155,205)" stroke="none" paint-order="stroke" d="M 468.36883544921875 538.1762084960938 L 465.8328857421875 533.6925048828125 L 479.96221923828125 525.84423828125 L 482.97381591796875 530.0636596679688 L 468.36883544921875 538.1762084960938 Z" fill-opacity="1" fill-rule="evenodd" clip-path="url(#dQDVTVLIikOJ)"/><path fill="none" stroke="rgb(0,0,0)" paint-order="fill" d="M 468.36883544921875 538.1762084960938 L 465.8328857421875 533.6925048828125 L 479.96221923828125 525.84423828125 L 482.97381591796875 530.0636596679688 L 468.36883544921875 538.1762084960938 Z" stroke-opacity="1" stroke-linejoin="bevel" stroke-miterlimit="10" stroke-dasharray="" clip-path="url(#dQDVTVLIikOJ)"/></svg>