<svg version="1.1" xmlns="http://www.w3.org/2000/svg" xmlns:xlink="http://www.w3.org/1999/xlink" width="800" height="800"><defs><clipPath id="GEciklOavuiT"><path fill="none" stroke="none" d="M 10.5 10.5 L 770.5 10.5 L 770.5 790.5 L 10.5 790.5 L 10.5 10.5"/></clipPath><clipPath id="THguUpiAFGcq"><path fill="none" stroke="none" d="M 10.5 10.5 L 770.5 10.5 L 770.5 790.5 L 10.5 790.5 L 10.5 10.5"/></clipPath><clipPath id="RDuqGJpVSfUv"><path fill="none" stroke="none" d="M 10.5 10.5 L 770.5 10.5 L 770.5 790.5 L 10.5 790.5 L 10.5 10.5"/></clipPath><clipPath id="sfuPzRsaSdJl"><path fill="none" stroke="none" d="M 10.5 10.5 L 770.5 10.5 L 770.5 790.5 L 10.5 790.5 L 10.5 10.5"/></clipPath></defs><path fill="rgb(255,255,255)" stroke="none" paint-order="stroke" d="M 0.5 0.5 L 800.5 0.5 L 800.5 800.5 L 0.5 800.5 L 0.5 0.5" fill-opacity="1"/><rect fill="#FFFFFF" stroke="none" x="10" y="10" width="760" height="780" transform="matrix(1, 0, 0, 1, 0.5, 0.5)"/><path fill="rgb(0,0,0)" stroke="none" paint-order="stroke" d="M 10.5 10.5 L 770.5 10.5 L 770.5 790.5 L 10.5 790.5 L 10.5 10.5" fill-opacity="1"/><path fill="none" stroke="rgb(229,229,229)" paint-order="fill" d="M 10.5 10.5 L 770.5 10.5 L 770.5 790.5 L 10.5 790.5 L 10.5 10.5" stroke-opacity="1" stroke-linejoin="bevel" stroke-miterlimit="10" stroke-dasharray=""/><path fill="none" stroke="none"/><path fill="rgb(208,230,168)" stroke="none" paint-order="stroke" d="M 396.90509033203125 380.2684326171875 L 396.70880126953125 380.888427734375 L 381.71942138671875 372.7650451660156 L 381.4418640136719 371.88824462890625 L 396.90509033203125 380.2684326171875 Z" fill-opacity="1" fill-rule="evenodd" clip-path="url(#RDuqGJpVSfUv)"/><path fill="none" stroke="rgb(0,0,0)" paint-order="fill" d="M 396.90509033203125 380.2684326171875 L 396.70880126953125 380.888427734375 L 381.71942138671875 372.7650451660156 L 381.4418640136719 371.88824462890625 L 396.90509033203125 380.2684326171875 Z" stroke-opacity="1" stroke-linejoin="bevel" stroke-miterlimit="10" stroke-dasharray="" clip-path="url(#RDuqGJpVSfUv)"/><path fill="rgb(208,230,168)" stroke="none" paint-order="stroke" d="M 381.4418640136719 371.88824462890625 L 381.9103088378906 373.3680114746094 L 365.9236755371094 376.3216857910156 L 364.58331298828125 375.0030212402344 L 381.4418640136719 371.88824462890625 Z" fill-opacity="1" fill-rule="evenodd" clip-path="url(#RDuqGJpVSfUv)"/><path fill="none" stroke="rgb(0,0,0)" paint-order="fill" d="M 381.4418640136719 371.88824462890625 L 381.9103088378906 373.3680114746094 L 365.9236755371094 376.3216857910156 L 364.58331298828125 375.0030212402344 L 381.4418640136719 371.88824462890625 Z" stroke-opacity="1" stroke-linejoin="bevel" stroke-miterlimit="10" stroke-dasharray="" clip-path="url(#RDuqGJpVSfUv)"/><path fill="rgb(217,235,185)" stroke="none" paint-order="stroke" d="M 364.58331298828125 375.0030212402344 L 366.27740478515625 376.669677734375 L 354.0431213378906 387.0378112792969 L 351.493408203125 386.0962829589844 L 364.58331298828125 375.0030212402344 Z" fill-opacity="1" fill-rule="evenodd" clip-path="url(#RDuqGJpVSfUv)"/><path fill="none" stroke="rgb(0,0,0)" paint-order="fill" d="M 364.58331298828125 375.0030212402344 L 366.27740478515625 376.669677734375 L 354.0431213378906 387.0378112792969 L 351.493408203125 386.0962829589844 L 364.58331298828125 375.0030212402344 Z" stroke-opacity="1" stroke-linejoin="bevel" stroke-miterlimit="10" stroke-dasharray="" clip-path="url(#RDuqGJpVSfUv)"/><path fill="rgb(217,235,185)" stroke="none" paint-order="stroke" d="M 351.493408203125 386.0962829589844 L 354.0915222167969 387.0556640625 L 347.25360107421875 401.6340026855469 L 344.16754150390625 401.71490478515625 L 351.493408203125 386.0962829589844 Z" fill-opacity="1" fill-rule="evenodd" clip-path="url(#RDuqGJpVSfUv)"/><path fill="none" stroke="rgb(0,0,0)" paint-order="fill" d="M 351.493408203125 386.0962829589844 L 354.0915222167969 387.0556640625 L 347.25360107421875 401.6340026855469 L 344.16754150390625 401.71490478515625 L 351.493408203125 386.0962829589844 Z" stroke-opacity="1" stroke-linejoin="bevel" stroke-miterlimit="10" stroke-dasharray="" clip-path="url(#RDuqGJpVSfUv)"/><path fill="rgb(217,235,185)" stroke="none" paint-order="stroke" d="M 344.16754150390625 401.71490478515625 L 347.86065673828125 401.6180725097656 L 346.80340576171875 417.4813537597656 L 343.0187072753906 418.9521789550781 L 344.16754150390625 401.71490478515625 Z" fill-opacity="1" fill-rule="evenodd" clip-path="url(#RDuqGJpVSfUv)"/><path fill="none" stroke="rgb(0,0,0)" paint-order="fill" d="M 344.16754150390625 401.71490478515625 L 347.86065673828125 401.6180725097656 L 346.80340576171875 417.4813537597656 L 343.0187072753906 418.9521789550781 L 344.16754150390625 401.71490478515625 Z" stroke-opacity="1" stroke-linejoin="bevel" stroke-miterlimit="10" stroke-dasharray="" clip-path="url(#RDuqGJpVSfUv)"/><path fill="rgb(217,235,185)" stroke="none" paint-order="stroke" d="M 343.0187072753906 418.9521789550781 L 345.7425537109375 417.8936462402344 L 350.04754638671875 433.5306701660156 L 347.585693359375 435.5408630371094 L 343.0187072753906 418.9521789550781 Z" fill-opacity="1" fill-rule="evenodd" clip-path="url(#RDuqGJpVSfUv)"/><path fill="none" stroke="rgb(0,0,0)" paint-order="fill" d="M 343.0187072753906 418.9521789550781 L 345.7425537109375 417.8936462402344 L 350.04754638671875 433.5306701660156 L 347.585693359375 435.5408630371094 L 343.0187072753906 418.9521789550781 Z" stroke-opacity="1" stroke-linejoin="bevel" stroke-miterlimit="10" stroke-dasharray="" clip-path="url(#RDuqGJpVSfUv)"/><path fill="rgb(217,235,185)" stroke="none" paint-order="stroke" d="M 347.585693359375 435.5408630371094 L 351.25390625 432.545654296875 L 359.80126953125 445.6123046875 L 356.93194580078125 449.82879638671875 L 347.585693359375 435.5408630371094 Z" fill-opacity="1" fill-rule="evenodd" clip-path="url(#RDuqGJpVSfUv)"/><path fill="none" stroke="rgb(0,0,0)" paint-order="fill" d="M 347.585693359375 435.5408630371094 L 351.25390625 432.545654296875 L 359.80126953125 445.6123046875 L 356.93194580078125 449.82879638671875 L 347.585693359375 435.5408630371094 Z" stroke-opacity="1" stroke-linejoin="bevel" stroke-miterlimit="10" stroke-dasharray="" clip-path="url(#RDuqGJpVSfUv)"/><path fill="rgb(217,235,185)" stroke="none" paint-order="stroke" d="M 356.93194580078125 449.82879638671875 L 358.88433837890625 446.9596862792969 L 371.0916442871094 457.2098083496094 L 369.8930969238281 460.7118835449219 L 356.93194580078125 449.82879638671875 Z" fill-opacity="1" fill-rule="evenodd" clip-path="url(#RDuqGJpVSfUv)"/><path fill="none" stroke="rgb(0,0,0)" paint-order="fill" d="M 356.93194580078125 449.82879638671875 L 358.88433837890625 446.9596862792969 L 371.0916442871094 457.2098083496094 L 369.8930969238281 460.7118835449219 L 356.93194580078125 449.82879638671875 Z" stroke-opacity="1" stroke-linejoin="bevel" stroke-miterlimit="10" stroke-dasharray="" clip-path="url(#RDuqGJpVSfUv)"/><path fill="rgb(227,240,203)" stroke="none" paint-order="stroke" d="M 369.8930969238281 460.7118835449219 L 372.237060546875 453.863037109375 L 385.8355407714844 459.926025390625 L 385.23687744140625 467.55303955078125 L 369.8930969238281 460.7118835449219 Z" fill-opacity="1" fill-rule="evenodd" clip-path="url(#RDuqGJpVSfUv)"/><path fill="none" stroke="rgb(0,0,0)" paint-order="fill" d="M 369.8930969238281 460.7118835449219 L 372.237060546875 453.863037109375 L 385.8355407714844 459.926025390625 L 385.23687744140625 467.55303955078125 L 369.8930969238281 460.7118835449219 Z" stroke-opacity="1" stroke-linejoin="bevel" stroke-miterlimit="10" stroke-dasharray="" clip-path="url(#RDuqGJpVSfUv)"/><path fill="rgb(217,235,185)" stroke="none" paint-order="stroke" d="M 385.23687744140625 467.55303955078125 L 385.673583984375 461.9891357421875 L 400.8320007324219 464.32440185546875 L 401.76690673828125 470.099609375 L 385.23687744140625 467.55303955078125 Z" fill-opacity="1" fill-rule="evenodd" clip-path="url(#RDuqGJpVSfUv)"/><path fill="none" stroke="rgb(0,0,0)" paint-order="fill" d="M 385.23687744140625 467.55303955078125 L 385.673583984375 461.9891357421875 L 400.8320007324219 464.32440185546875 L 401.76690673828125 470.099609375 L 385.23687744140625 467.55303955078125 Z" stroke-opacity="1" stroke-linejoin="bevel" stroke-miterlimit="10" stroke-dasharray="" clip-path="url(#RDuqGJpVSfUv)"/><path fill="rgb(208,230,168)" stroke="none" paint-order="stroke" d="M 401.76690673828125 470.099609375 L 401.26129150390625 466.9762878417969 L 417.13726806640625 465.3576965332031 L 418.3888244628906 468.40496826171875 L 401.76690673828125 470.099609375 Z" fill-opacity="1" fill-rule="evenodd" clip-path="url(#RDuqGJpVSfUv)"/><path fill="none" stroke="rgb(0,0,0)" paint-order="fill" d="M 401.76690673828125 470.099609375 L 401.26129150390625 466.9762878417969 L 417.13726806640625 465.3576965332031 L 418.3888244628906 468.40496826171875 L 401.76690673828125 470.099609375 Z" stroke-opacity="1" stroke-linejoin="bevel" stroke-miterlimit="10" stroke-dasharray="" clip-path="url(#RDuqGJpVSfUv)"/><path fill="rgb(217,235,185)" stroke="none" paint-order="stroke" d="M 418.3888244628906 468.40496826171875 L 415.5068054199219 461.38775634765625 L 429.63909912109375 456.3236999511719 L 434.1498107910156 462.7572937011719 L 418.3888244628906 468.40496826171875 Z" fill-opacity="1" fill-rule="evenodd" clip-path="url(#RDuqGJpVSfUv)"/><path fill="none" stroke="rgb(0,0,0)" paint-order="fill" d="M 418.3888244628906 468.40496826171875 L 415.5068054199219 461.38775634765625 L 429.63909912109375 456.3236999511719 L 434.1498107910156 462.7572937011719 L 418.3888244628906 468.40496826171875 Z" stroke-opacity="1" stroke-linejoin="bevel" stroke-miterlimit="10" stroke-dasharray="" clip-path="url(#RDuqGJpVSfUv)"/><path fill="rgb(227,240,203)" stroke="none" paint-order="stroke" d="M 434.1498107910156 462.7572937011719 L 429.2131042480469 455.71612548828125 L 441.7271423339844 447.60888671875 L 448.2596130371094 453.6162109375 L 434.1498107910156 462.7572937011719 Z" fill-opacity="1" fill-rule="evenodd" clip-path="url(#RDuqGJpVSfUv)"/><path fill="none" stroke="rgb(0,0,0)" paint-order="fill" d="M 434.1498107910156 462.7572937011719 L 429.2131042480469 455.71612548828125 L 441.7271423339844 447.60888671875 L 448.2596130371094 453.6162109375 L 434.1498107910156 462.7572937011719 Z" stroke-opacity="1" stroke-linejoin="bevel" stroke-miterlimit="10" stroke-dasharray="" clip-path="url(#RDuqGJpVSfUv)"/><path fill="rgb(208,230,168)" stroke="none" paint-order="stroke" d="M 448.2596130371094 453.6162109375 L 446.5468444824219 452.0411376953125 L 458.0340270996094 440.3406982421875 L 460.09783935546875 441.5582275390625 L 448.2596130371094 453.6162109375 Z" fill-opacity="1" fill-rule="evenodd" clip-path="url(#RDuqGJpVSfUv)"/><path fill="none" stroke="rgb(0,0,0)" paint-order="fill" d="M 448.2596130371094 453.6162109375 L 446.5468444824219 452.0411376953125 L 458.0340270996094 440.3406982421875 L 460.09783935546875 441.5582275390625 L 448.2596130371094 453.6162109375 Z" stroke-opacity="1" stroke-linejoin="bevel" stroke-miterlimit="10" stroke-dasharray="" clip-path="url(#RDuqGJpVSfUv)"/><path fill="rgb(217,235,185)" stroke="none" paint-order="stroke" d="M 460.09783935546875 441.5582275390625 L 452.8290100097656 437.27008056640625 L 460.9913330078125 424.43841552734375 L 469.2120666503906 427.2301025390625 L 460.09783935546875 441.5582275390625 Z" fill-opacity="1" fill-rule="evenodd" clip-path="url(#RDuqGJpVSfUv)"/><path fill="none" stroke="rgb(0,0,0)" paint-order="fill" d="M 460.09783935546875 441.5582275390625 L 452.8290100097656 437.27008056640625 L 460.9913330078125 424.43841552734375 L 469.2120666503906 427.2301025390625 L 460.09783935546875 441.5582275390625 Z" stroke-opacity="1" stroke-linejoin="bevel" stroke-miterlimit="10" stroke-dasharray="" clip-path="url(#RDuqGJpVSfUv)"/><path fill="rgb(245,250,237)" stroke="none" paint-order="stroke" d="M 469.2120666503906 427.2301025390625 L 451.58306884765625 421.243408203125 L 456.3146057128906 408.8890380859375 L 475.3091735839844 411.3101501464844 L 469.2120666503906 427.2301025390625 Z" fill-opacity="1" fill-rule="evenodd" clip-path="url(#RDuqGJpVSfUv)"/><path fill="none" stroke="rgb(0,0,0)" paint-order="fill" d="M 469.2120666503906 427.2301025390625 L 451.58306884765625 421.243408203125 L 456.3146057128906 408.8890380859375 L 475.3091735839844 411.3101501464844 L 469.2120666503906 427.2301025390625 Z" stroke-opacity="1" stroke-linejoin="bevel" stroke-miterlimit="10" stroke-dasharray="" clip-path="url(#RDuqGJpVSfUv)"/><path fill="rgb(208,230,168)" stroke="none" paint-order="stroke" d="M 475.3091735839844 411.3101501464844 L 471.8393859863281 410.8678894042969 L 474.65252685546875 394.7229919433594 L 478.2423095703125 394.4765625 L 475.3091735839844 411.3101501464844 Z" fill-opacity="1" fill-rule="evenodd" clip-path="url(#RDuqGJpVSfUv)"/><path fill="none" stroke="rgb(0,0,0)" paint-order="fill" d="M 475.3091735839844 411.3101501464844 L 471.8393859863281 410.8678894042969 L 474.65252685546875 394.7229919433594 L 478.2423095703125 394.4765625 L 475.3091735839844 411.3101501464844 Z" stroke-opacity="1" stroke-linejoin="bevel" stroke-miterlimit="10" stroke-dasharray="" clip-path="url(#RDuqGJpVSfUv)"/><path fill="rgb(236,245,220)" stroke="none" paint-order="stroke" d="M 478.2423095703125 394.4765625 L 461.1654052734375 395.64886474609375 L 460.9663391113281 381.8815612792969 L 477.9951477050781 377.3822326660156 L 478.2423095703125 394.4765625 Z" fill-opacity="1" fill-rule="evenodd" clip-path="url(#RDuqGJpVSfUv)"/><path fill="none" stroke="rgb(0,0,0)" paint-order="fill" d="M 478.2423095703125 394.4765625 L 461.1654052734375 395.64886474609375 L 460.9663391113281 381.8815612792969 L 477.9951477050781 377.3822326660156 L 478.2423095703125 394.4765625 Z" stroke-opacity="1" stroke-linejoin="bevel" stroke-miterlimit="10" stroke-dasharray="" clip-path="url(#RDuqGJpVSfUv)"/><path fill="rgb(227,240,203)" stroke="none" paint-order="stroke" d="M 477.9951477050781 377.3822326660156 L 467.2408752441406 380.22369384765625 L 464.319580078125 365.5351867675781 L 474.6644592285156 360.63531494140625 L 477.9951477050781 377.3822326660156 Z" fill-opacity="1" fill-rule="evenodd" clip-path="url(#RDuqGJpVSfUv)"/><path fill="none" stroke="rgb(0,0,0)" paint-order="fill" d="M 477.9951477050781 377.3822326660156 L 467.2408752441406 380.22369384765625 L 464.319580078125 365.5351867675781 L 474.6644592285156 360.63531494140625 L 477.9951477050781 377.3822326660156 Z" stroke-opacity="1" stroke-linejoin="bevel" stroke-miterlimit="10" stroke-dasharray="" clip-path="url(#RDuqGJpVSfUv)"/><path fill="rgb(208,230,168)" stroke="none" paint-order="stroke" d="M 474.6644592285156 360.63531494140625 L 470.7456970214844 362.491455078125 L 464.8130798339844 347.3789367675781 L 468.442138671875 344.7847595214844 L 474.6644592285156 360.63531494140625 Z" fill-opacity="1" fill-rule="evenodd" clip-path="url(#RDuqGJpVSfUv)"/><path fill="none" stroke="rgb(0,0,0)" paint-order="fill" d="M 474.6644592285156 360.63531494140625 L 470.7456970214844 362.491455078125 L 464.8130798339844 347.3789367675781 L 468.442138671875 344.7847595214844 L 474.6644592285156 360.63531494140625 Z" stroke-opacity="1" stroke-linejoin="bevel" stroke-miterlimit="10" stroke-dasharray="" clip-path="url(#RDuqGJpVSfUv)"/><path fill="rgb(208,230,168)" stroke="none" paint-order="stroke" d="M 468.442138671875 344.7847595214844 L 467.8961486816406 345.1750793457031 L 459.1133728027344 330.8020324707031 L 459.597412109375 330.3103332519531 L 468.442138671875 344.7847595214844 Z" fill-opacity="1" fill-rule="evenodd" clip-path="url(#RDuqGJpVSfUv)"/><path fill="none" stroke="rgb(0,0,0)" paint-order="fill" d="M 468.442138671875 344.7847595214844 L 467.8961486816406 345.1750793457031 L 459.1133728027344 330.8020324707031 L 459.597412109375 330.3103332519531 L 468.442138671875 344.7847595214844 Z" stroke-opacity="1" stroke-linejoin="bevel" stroke-miterlimit="10" stroke-dasharray="" clip-path="url(#RDuqGJpVSfUv)"/><path fill="rgb(190,220,134)" stroke="none" paint-order="stroke" d="M 459.597412109375 330.3103332519531 L 464.67315673828125 325.15435791015625 L 452.71710205078125 311.5277404785156 L 448.45953369140625 317.6162109375 L 459.597412109375 330.3103332519531 Z" fill-opacity="1" fill-rule="evenodd" clip-path="url(#RDuqGJpVSfUv)"/><path fill="none" stroke="rgb(0,0,0)" paint-order="fill" d="M 459.597412109375 330.3103332519531 L 464.67315673828125 325.15435791015625 L 452.71710205078125 311.5277404785156 L 448.45953369140625 317.6162109375 L 459.597412109375 330.3103332519531 Z" stroke-opacity="1" stroke-linejoin="bevel" stroke-miterlimit="10" stroke-dasharray="" clip-path="url(#RDuqGJpVSfUv)"/><path fill="rgb(217,235,185)" stroke="none" paint-order="stroke" d="M 448.45953369140625 317.6162109375 L 444.8968811035156 322.7109375 L 432.64154052734375 312.7734680175781 L 435.40155029296875 307.02789306640625 L 448.45953369140625 317.6162109375 Z" fill-opacity="1" fill-rule="evenodd" clip-path="url(#RDuqGJpVSfUv)"/><path fill="none" stroke="rgb(0,0,0)" paint-order="fill" d="M 448.45953369140625 317.6162109375 L 444.8968811035156 322.7109375 L 432.64154052734375 312.7734680175781 L 435.40155029296875 307.02789306640625 L 448.45953369140625 317.6162109375 Z" stroke-opacity="1" stroke-linejoin="bevel" stroke-miterlimit="10" stroke-dasharray="" clip-path="url(#RDuqGJpVSfUv)"/><path fill="rgb(217,235,185)" stroke="none" paint-order="stroke" d="M 435.40155029296875 307.02789306640625 L 432.6103515625 312.83837890625 L 418.9402160644531 305.1142578125 L 420.8253173828125 298.7917785644531 L 435.40155029296875 307.02789306640625 Z" fill-opacity="1" fill-rule="evenodd" clip-path="url(#RDuqGJpVSfUv)"/><path fill="none" stroke="rgb(0,0,0)" paint-order="fill" d="M 435.40155029296875 307.02789306640625 L 432.6103515625 312.83837890625 L 418.9402160644531 305.1142578125 L 420.8253173828125 298.7917785644531 L 435.40155029296875 307.02789306640625 Z" stroke-opacity="1" stroke-linejoin="bevel" stroke-miterlimit="10" stroke-dasharray="" clip-path="url(#RDuqGJpVSfUv)"/><path fill="rgb(208,230,168)" stroke="none" paint-order="stroke" d="M 420.8253173828125 298.7917785644531 L 420.2051696777344 300.8717041015625 L 404.8482666015625 295.2735595703125 L 405.1478271484375 293.0767517089844 L 420.8253173828125 298.7917785644531 Z" fill-opacity="1" fill-rule="evenodd" clip-path="url(#RDuqGJpVSfUv)"/><path fill="none" stroke="rgb(0,0,0)" paint-order="fill" d="M 420.8253173828125 298.7917785644531 L 420.2051696777344 300.8717041015625 L 404.8482666015625 295.2735595703125 L 405.1478271484375 293.0767517089844 L 420.8253173828125 298.7917785644531 Z" stroke-opacity="1" stroke-linejoin="bevel" stroke-miterlimit="10" stroke-dasharray="" clip-path="url(#RDuqGJpVSfUv)"/><path fill="rgb(217,235,185)" stroke="none" paint-order="stroke" d="M 405.1478271484375 293.0767517089844 L 404.1632080078125 300.2975769042969 L 388.9042053222656 297.40673828125 L 388.7892150878906 289.97760009765625 L 405.1478271484375 293.0767517089844 Z" fill-opacity="1" fill-rule="evenodd" clip-path="url(#RDuqGJpVSfUv)"/><path fill="none" stroke="rgb(0,0,0)" paint-order="fill" d="M 405.1478271484375 293.0767517089844 L 404.1632080078125 300.2975769042969 L 388.9042053222656 297.40673828125 L 388.7892150878906 289.97760009765625 L 405.1478271484375 293.0767517089844 Z" stroke-opacity="1" stroke-linejoin="bevel" stroke-miterlimit="10" stroke-dasharray="" clip-path="url(#RDuqGJpVSfUv)"/><path fill="rgb(217,235,185)" stroke="none" paint-order="stroke" d="M 388.7892150878906 289.97760009765625 L 388.901123046875 297.2071838378906 L 373.3616638183594 296.7793273925781 L 372.1621398925781 289.5198059082031 L 388.7892150878906 289.97760009765625 Z" fill-opacity="1" fill-rule="evenodd" clip-path="url(#RDuqGJpVSfUv)"/><path fill="none" stroke="rgb(0,0,0)" paint-order="fill" d="M 388.7892150878906 289.97760009765625 L 388.901123046875 297.2071838378906 L 373.3616638183594 296.7793273925781 L 372.1621398925781 289.5198059082031 L 388.7892150878906 289.97760009765625 Z" stroke-opacity="1" stroke-linejoin="bevel" stroke-miterlimit="10" stroke-dasharray="" clip-path="url(#RDuqGJpVSfUv)"/><path fill="rgb(199,225,151)" stroke="none" paint-order="stroke" d="M 372.1621398925781 289.5198059082031 L 372.00396728515625 288.56268310546875 L 355.3623352050781 290.7266845703125 L 355.66278076171875 291.6653137207031 L 372.1621398925781 289.5198059082031 Z" fill-opacity="1" fill-rule="evenodd" clip-path="url(#RDuqGJpVSfUv)"/><path fill="none" stroke="rgb(0,0,0)" paint-order="fill" d="M 372.1621398925781 289.5198059082031 L 372.00396728515625 288.56268310546875 L 355.3623352050781 290.7266845703125 L 355.66278076171875 291.6653137207031 L 372.1621398925781 289.5198059082031 Z" stroke-opacity="1" stroke-linejoin="bevel" stroke-miterlimit="10" stroke-dasharray="" clip-path="url(#RDuqGJpVSfUv)"/><path fill="rgb(208,230,168)" stroke="none" paint-order="stroke" d="M 355.66278076171875 291.6653137207031 L 356.4593811035156 294.1539611816406 L 340.82574462890625 298.70123291015625 L 339.6632995605469 296.3189697265625 L 355.66278076171875 291.6653137207031 Z" fill-opacity="1" fill-rule="evenodd" clip-path="url(#RDuqGJpVSfUv)"/><path fill="none" stroke="rgb(0,0,0)" paint-order="fill" d="M 355.66278076171875 291.6653137207031 L 356.4593811035156 294.1539611816406 L 340.82574462890625 298.70123291015625 L 339.6632995605469 296.3189697265625 L 355.66278076171875 291.6653137207031 Z" stroke-opacity="1" stroke-linejoin="bevel" stroke-miterlimit="10" stroke-dasharray="" clip-path="url(#RDuqGJpVSfUv)"/><path fill="rgb(217,235,185)" stroke="none" paint-order="stroke" d="M 339.6632995605469 296.3189697265625 L 344.248291015625 305.7151184082031 L 330.45782470703125 312.0989074707031 L 324.5057678222656 303.3356018066406 L 339.6632995605469 296.3189697265625 Z" fill-opacity="1" fill-rule="evenodd" clip-path="url(#RDuqGJpVSfUv)"/><path fill="none" stroke="rgb(0,0,0)" paint-order="fill" d="M 339.6632995605469 296.3189697265625 L 344.248291015625 305.7151184082031 L 330.45782470703125 312.0989074707031 L 324.5057678222656 303.3356018066406 L 339.6632995605469 296.3189697265625 Z" stroke-opacity="1" stroke-linejoin="bevel" stroke-miterlimit="10" stroke-dasharray="" clip-path="url(#RDuqGJpVSfUv)"/><path fill="rgb(208,230,168)" stroke="none" paint-order="stroke" d="M 324.5057678222656 303.3356018066406 L 327.9457702636719 308.400390625 L 314.6675720214844 317.11285400390625 L 310.4974060058594 312.5272216796875 L 324.5057678222656 303.3356018066406 Z" fill-opacity="1" fill-rule="evenodd" clip-path="url(#RDuqGJpVSfUv)"/><path fill="none" stroke="rgb(0,0,0)" paint-order="fill" d="M 324.5057678222656 303.3356018066406 L 327.9457702636719 308.400390625 L 314.6675720214844 317.11285400390625 L 310.4974060058594 312.5272216796875 L 324.5057678222656 303.3356018066406 Z" stroke-opacity="1" stroke-linejoin="bevel" stroke-miterlimit="10" stroke-dasharray="" clip-path="url(#RDuqGJpVSfUv)"/><path fill="rgb(245,250,237)" stroke="none" paint-order="stroke" d="M 310.4974060058594 312.5272216796875 L 329.4977111816406 333.42041015625 L 319.8974914550781 341.9169616699219 L 297.9070129394531 323.670166015625 L 310.4974060058594 312.5272216796875 Z" fill-opacity="1" fill-rule="evenodd" clip-path="url(#RDuqGJpVSfUv)"/><path fill="none" stroke="rgb(0,0,0)" paint-order="fill" d="M 310.4974060058594 312.5272216796875 L 329.4977111816406 333.42041015625 L 319.8974914550781 341.9169616699219 L 297.9070129394531 323.670166015625 L 310.4974060058594 312.5272216796875 Z" stroke-opacity="1" stroke-linejoin="bevel" stroke-miterlimit="10" stroke-dasharray="" clip-path="url(#RDuqGJpVSfUv)"/><path fill="rgb(208,230,168)" stroke="none" paint-order="stroke" d="M 297.9070129394531 323.670166015625 L 300.9888000488281 326.227294921875 L 290.4088134765625 338.64227294921875 L 286.9627685546875 336.5125732421875 L 297.9070129394531 323.670166015625 Z" fill-opacity="1" fill-rule="evenodd" clip-path="url(#RDuqGJpVSfUv)"/><path fill="none" stroke="rgb(0,0,0)" paint-order="fill" d="M 297.9070129394531 323.670166015625 L 300.9888000488281 326.227294921875 L 290.4088134765625 338.64227294921875 L 286.9627685546875 336.5125732421875 L 297.9070129394531 323.670166015625 Z" stroke-opacity="1" stroke-linejoin="bevel" stroke-miterlimit="10" stroke-dasharray="" clip-path="url(#RDuqGJpVSfUv)"/><path fill="rgb(245,250,237)" stroke="none" paint-order="stroke" d="M 286.9627685546875 336.5125732421875 L 310.31671142578125 350.94561767578125 L 303.2599792480469 361.9957275390625 L 277.8507080078125 350.7810974121094 L 286.9627685546875 336.5125732421875 Z" fill-opacity="1" fill-rule="evenodd" clip-path="url(#RDuqGJpVSfUv)"/><path fill="none" stroke="rgb(0,0,0)" paint-order="fill" d="M 286.9627685546875 336.5125732421875 L 310.31671142578125 350.94561767578125 L 303.2599792480469 361.9957275390625 L 277.8507080078125 350.7810974121094 L 286.9627685546875 336.5125732421875 Z" stroke-opacity="1" stroke-linejoin="bevel" stroke-miterlimit="10" stroke-dasharray="" clip-path="url(#RDuqGJpVSfUv)"/><path fill="rgb(217,235,185)" stroke="none" paint-order="stroke" d="M 277.8507080078125 350.7810974121094 L 287.9918212890625 355.2569885253906 L 281.49798583984375 369.2767028808594 L 270.71441650390625 366.1877746582031 L 277.8507080078125 350.7810974121094 Z" fill-opacity="1" fill-rule="evenodd" clip-path="url(#RDuqGJpVSfUv)"/><path fill="none" stroke="rgb(0,0,0)" paint-order="fill" d="M 277.8507080078125 350.7810974121094 L 287.9918212890625 355.2569885253906 L 281.49798583984375 369.2767028808594 L 270.71441650390625 366.1877746582031 L 277.8507080078125 350.7810974121094 Z" stroke-opacity="1" stroke-linejoin="bevel" stroke-miterlimit="10" stroke-dasharray="" clip-path="url(#RDuqGJpVSfUv)"/><path fill="rgb(236,245,220)" stroke="none" paint-order="stroke" d="M 270.71441650390625 366.1877746582031 L 295.4297180175781 373.26739501953125 L 291.4145812988281 386.163330078125 L 265.6554870605469 382.43621826171875 L 270.71441650390625 366.1877746582031 Z" fill-opacity="1" fill-rule="evenodd" clip-path="url(#RDuqGJpVSfUv)"/><path fill="none" stroke="rgb(0,0,0)" paint-order="fill" d="M 270.71441650390625 366.1877746582031 L 295.4297180175781 373.26739501953125 L 291.4145812988281 386.163330078125 L 265.6554870605469 382.43621826171875 L 270.71441650390625 366.1877746582031 Z" stroke-opacity="1" stroke-linejoin="bevel" stroke-miterlimit="10" stroke-dasharray="" clip-path="url(#RDuqGJpVSfUv)"/><path fill="rgb(245,250,237)" stroke="none" paint-order="stroke" d="M 265.6554870605469 382.43621826171875 L 299.3676452636719 387.3140563964844 L 297.2354431152344 399.57110595703125 L 262.7345275878906 399.2275085449219 L 265.6554870605469 382.43621826171875 Z" fill-opacity="1" fill-rule="evenodd" clip-path="url(#RDuqGJpVSfUv)"/><path fill="none" stroke="rgb(0,0,0)" paint-order="fill" d="M 265.6554870605469 382.43621826171875 L 299.3676452636719 387.3140563964844 L 297.2354431152344 399.57110595703125 L 262.7345275878906 399.2275085449219 L 265.6554870605469 382.43621826171875 Z" stroke-opacity="1" stroke-linejoin="bevel" stroke-miterlimit="10" stroke-dasharray="" clip-path="url(#RDuqGJpVSfUv)"/><path fill="rgb(217,235,185)" stroke="none" paint-order="stroke" d="M 262.7345275878906 399.2275085449219 L 274.2187194824219 399.3418884277344 L 273.52557373046875 414.8482971191406 L 261.9729309082031 416.265380859375 L 262.7345275878906 399.2275085449219 Z" fill-opacity="1" fill-rule="evenodd" clip-path="url(#RDuqGJpVSfUv)"/><path fill="none" stroke="rgb(0,0,0)" paint-order="fill" d="M 262.7345275878906 399.2275085449219 L 274.2187194824219 399.3418884277344 L 273.52557373046875 414.8482971191406 L 261.9729309082031 416.265380859375 L 262.7345275878906 399.2275085449219 Z" stroke-opacity="1" stroke-linejoin="bevel" stroke-miterlimit="10" stroke-dasharray="" clip-path="url(#RDuqGJpVSfUv)"/><path fill="rgb(217,235,185)" stroke="none" paint-order="stroke" d="M 261.9729309082031 416.265380859375 L 276.1461181640625 414.52685546875 L 277.3758239746094 429.6484069824219 L 263.35504150390625 433.2611083984375 L 261.9729309082031 416.265380859375 Z" fill-opacity="1" fill-rule="evenodd" clip-path="url(#RDuqGJpVSfUv)"/><path fill="none" stroke="rgb(0,0,0)" paint-order="fill" d="M 261.9729309082031 416.265380859375 L 276.1461181640625 414.52685546875 L 277.3758239746094 429.6484069824219 L 263.35504150390625 433.2611083984375 L 261.9729309082031 416.265380859375 Z" stroke-opacity="1" stroke-linejoin="bevel" stroke-miterlimit="10" stroke-dasharray="" clip-path="url(#RDuqGJpVSfUv)"/><path fill="rgb(217,235,185)" stroke="none" paint-order="stroke" d="M 263.35504150390625 433.2611083984375 L 277.28753662109375 429.6711730957031 L 280.3824768066406 444.5204162597656 L 266.83087158203125 449.9377746582031 L 263.35504150390625 433.2611083984375 Z" fill-opacity="1" fill-rule="evenodd" clip-path="url(#RDuqGJpVSfUv)"/><path fill="none" stroke="rgb(0,0,0)" paint-order="fill" d="M 263.35504150390625 433.2611083984375 L 277.28753662109375 429.6711730957031 L 280.3824768066406 444.5204162597656 L 266.83087158203125 449.9377746582031 L 263.35504150390625 433.2611083984375 Z" stroke-opacity="1" stroke-linejoin="bevel" stroke-miterlimit="10" stroke-dasharray="" clip-path="url(#RDuqGJpVSfUv)"/><path fill="rgb(236,245,220)" stroke="none" paint-order="stroke" d="M 266.83087158203125 449.9377746582031 L 288.3763122558594 441.3247985839844 L 292.9082336425781 454.61663818359375 L 272.31890869140625 466.0338134765625 L 266.83087158203125 449.9377746582031 Z" fill-opacity="1" fill-rule="evenodd" clip-path="url(#RDuqGJpVSfUv)"/><path fill="none" stroke="rgb(0,0,0)" paint-order="fill" d="M 266.83087158203125 449.9377746582031 L 288.3763122558594 441.3247985839844 L 292.9082336425781 454.61663818359375 L 272.31890869140625 466.0338134765625 L 266.83087158203125 449.9377746582031 Z" stroke-opacity="1" stroke-linejoin="bevel" stroke-miterlimit="10" stroke-dasharray="" clip-path="url(#RDuqGJpVSfUv)"/><path fill="rgb(217,235,185)" stroke="none" paint-order="stroke" d="M 272.31890869140625 466.0338134765625 L 283.7382507324219 459.7015686035156 L 290.41461181640625 473.4983215332031 L 279.7093811035156 481.3062744140625 L 272.31890869140625 466.0338134765625 Z" fill-opacity="1" fill-rule="evenodd" clip-path="url(#RDuqGJpVSfUv)"/><path fill="none" stroke="rgb(0,0,0)" paint-order="fill" d="M 272.31890869140625 466.0338134765625 L 283.7382507324219 459.7015686035156 L 290.41461181640625 473.4983215332031 L 279.7093811035156 481.3062744140625 L 272.31890869140625 466.0338134765625 Z" stroke-opacity="1" stroke-linejoin="bevel" stroke-miterlimit="10" stroke-dasharray="" clip-path="url(#RDuqGJpVSfUv)"/><path fill="rgb(208,230,168)" stroke="none" paint-order="stroke" d="M 279.7093811035156 481.3062744140625 L 285.68548583984375 476.9475402832031 L 294.34967041015625 490.40716552734375 L 288.8675537109375 495.5332946777344 L 279.7093811035156 481.3062744140625 Z" fill-opacity="1" fill-rule="evenodd" clip-path="url(#RDuqGJpVSfUv)"/><path fill="none" stroke="rgb(0,0,0)" paint-order="fill" d="M 279.7093811035156 481.3062744140625 L 285.68548583984375 476.9475402832031 L 294.34967041015625 490.40716552734375 L 288.8675537109375 495.5332946777344 L 279.7093811035156 481.3062744140625 Z" stroke-opacity="1" stroke-linejoin="bevel" stroke-miterlimit="10" stroke-dasharray="" clip-path="url(#RDuqGJpVSfUv)"/><path fill="rgb(245,250,237)" stroke="none" paint-order="stroke" d="M 288.8675537109375 495.5332946777344 L 311.6102600097656 474.267333984375 L 319.9699401855469 484.34503173828125 L 299.63720703125 508.5162658691406 L 288.8675537109375 495.5332946777344 Z" fill-opacity="1" fill-rule="evenodd" clip-path="url(#RDuqGJpVSfUv)"/><path fill="none" stroke="rgb(0,0,0)" paint-order="fill" d="M 288.8675537109375 495.5332946777344 L 311.6102600097656 474.267333984375 L 319.9699401855469 484.34503173828125 L 299.63720703125 508.5162658691406 L 288.8675537109375 495.5332946777344 Z" stroke-opacity="1" stroke-linejoin="bevel" stroke-miterlimit="10" stroke-dasharray="" clip-path="url(#RDuqGJpVSfUv)"/><path fill="rgb(208,230,168)" stroke="none" paint-order="stroke" d="M 299.63720703125 508.5162658691406 L 300.74237060546875 507.2024841308594 L 312.80078125 518.6268310546875 L 311.8441162109375 520.0812377929688 L 299.63720703125 508.5162658691406 Z" fill-opacity="1" fill-rule="evenodd" clip-path="url(#RDuqGJpVSfUv)"/><path fill="none" stroke="rgb(0,0,0)" paint-order="fill" d="M 299.63720703125 508.5162658691406 L 300.74237060546875 507.2024841308594 L 312.80078125 518.6268310546875 L 311.8441162109375 520.0812377929688 L 299.63720703125 508.5162658691406 Z" stroke-opacity="1" stroke-linejoin="bevel" stroke-miterlimit="10" stroke-dasharray="" clip-path="url(#RDuqGJpVSfUv)"/><path fill="rgb(236,245,220)" stroke="none" paint-order="stroke" d="M 311.8441162109375 520.0812377929688 L 327.9595031738281 495.5808410644531 L 338.65802001953125 503.53125 L 325.2994079589844 530.080322265625 L 311.8441162109375 520.0812377929688 Z" fill-opacity="1" fill-rule="evenodd" clip-path="url(#RDuqGJpVSfUv)"/><path fill="none" stroke="rgb(0,0,0)" paint-order="fill" d="M 311.8441162109375 520.0812377929688 L 327.9595031738281 495.5808410644531 L 338.65802001953125 503.53125 L 325.2994079589844 530.080322265625 L 311.8441162109375 520.0812377929688 Z" stroke-opacity="1" stroke-linejoin="bevel" stroke-miterlimit="10" stroke-dasharray="" clip-path="url(#RDuqGJpVSfUv)"/><path fill="rgb(227,240,203)" stroke="none" paint-order="stroke" d="M 325.2994079589844 530.080322265625 L 333.75830078125 513.2689819335938 L 346.38037109375 520.502197265625 L 339.8031311035156 538.391845703125 L 325.2994079589844 530.080322265625 Z" fill-opacity="1" fill-rule="evenodd" clip-path="url(#RDuqGJpVSfUv)"/><path fill="none" stroke="rgb(0,0,0)" paint-order="fill" d="M 325.2994079589844 530.080322265625 L 333.75830078125 513.2689819335938 L 346.38037109375 520.502197265625 L 339.8031311035156 538.391845703125 L 325.2994079589844 530.080322265625 Z" stroke-opacity="1" stroke-linejoin="bevel" stroke-miterlimit="10" stroke-dasharray="" clip-path="url(#RDuqGJpVSfUv)"/><path fill="rgb(245,250,237)" stroke="none" paint-order="stroke" d="M 339.8031311035156 538.391845703125 L 351.0909729003906 507.68975830078125 L 363.0188293457031 512.7652587890625 L 355.1474609375 544.921142578125 L 339.8031311035156 538.391845703125 Z" fill-opacity="1" fill-rule="evenodd" clip-path="url(#RDuqGJpVSfUv)"/><path fill="none" stroke="rgb(0,0,0)" paint-order="fill" d="M 339.8031311035156 538.391845703125 L 351.0909729003906 507.68975830078125 L 363.0188293457031 512.7652587890625 L 355.1474609375 544.921142578125 L 339.8031311035156 538.391845703125 Z" stroke-opacity="1" stroke-linejoin="bevel" stroke-miterlimit="10" stroke-dasharray="" clip-path="url(#RDuqGJpVSfUv)"/><path fill="rgb(227,240,203)" stroke="none" paint-order="stroke" d="M 355.1474609375 544.921142578125 L 359.4875183105469 527.1913452148438 L 373.4991149902344 531.2958374023438 L 371.11993408203125 549.60009765625 L 355.1474609375 544.921142578125 Z" fill-opacity="1" fill-rule="evenodd" clip-path="url(#RDuqGJpVSfUv)"/><path fill="none" stroke="rgb(0,0,0)" paint-order="fill" d="M 355.1474609375 544.921142578125 L 359.4875183105469 527.1913452148438 L 373.4991149902344 531.2958374023438 L 371.11993408203125 549.60009765625 L 355.1474609375 544.921142578125 Z" stroke-opacity="1" stroke-linejoin="bevel" stroke-miterlimit="10" stroke-dasharray="" clip-path="url(#RDuqGJpVSfUv)"/><path fill="rgb(199,225,151)" stroke="none" paint-order="stroke" d="M 371.11993408203125 549.60009765625 L 370.8797607421875 551.4478149414062 L 387.46917724609375 554.2688598632812 L 387.50628662109375 552.3865966796875 L 371.11993408203125 549.60009765625 Z" fill-opacity="1" fill-rule="evenodd" clip-path="url(#RDuqGJpVSfUv)"/><path fill="none" stroke="rgb(0,0,0)" paint-order="fill" d="M 371.11993408203125 549.60009765625 L 370.8797607421875 551.4478149414062 L 387.46917724609375 554.2688598632812 L 387.50628662109375 552.3865966796875 L 371.11993408203125 549.60009765625 Z" stroke-opacity="1" stroke-linejoin="bevel" stroke-miterlimit="10" stroke-dasharray="" clip-path="url(#RDuqGJpVSfUv)"/></svg>