<svg version="1.1" xmlns="http://www.w3.org/2000/svg" xmlns:xlink="http://www.w3.org/1999/xlink" width="800" height="800"><defs><clipPath id="xPyPAEHEXLSP"><path fill="none" stroke="none" d="M 10.5 10.5 L 770.5 10.5 L 770.5 790.5 L 10.5 790.5 L 10.5 10.5"/></clipPath><clipPath id="dfTvQFGEJBNN"><path fill="none" stroke="none" d="M 10.5 10.5 L 770.5 10.5 L 770.5 790.5 L 10.5 790.5 L 10.5 10.5"/></clipPath><clipPath id="mzpwzmHTtFeK"><path fill="none" stroke="none" d="M 10.5 10.5 L 770.5 10.5 L 770.5 790.5 L 10.5 790.5 L 10.5 10.5"/></clipPath><clipPath id="TsTrLxKDXkgb"><path fill="none" stroke="none" d="M 10.5 10.5 L 770.5 10.5 L 770.5 790.5 L 10.5 790.5 L 10.5 10.5"/></clipPath></defs><path fill="rgb(255,255,255)" stroke="none" paint-order="stroke" d="M 0.5 0.5 L 800.5 0.5 L 800.5 800.5 L 0.5 800.5 L 0.5 0.5" fill-opacity="1"/><rect fill="#FFFFFF" stroke="none" x="10" y="10" width="760" height="780" transform="matrix(1, 0, 0, 1, 0.5, 0.5)"/><path fill="rgb(0,0,0)" stroke="none" paint-order="stroke" d="M 10.5 10.5 L 770.5 10.5 L 770.5 790.5 L 10.5 790.5 L 10.5 10.5" fill-opacity="1"/><path fill="none" stroke="rgb(229,229,229)" paint-order="fill" d="M 10.5 10.5 L 770.5 10.5 L 770.5 790.5 L 10.5 790.5 L 10.5 10.5" stroke-opacity="1" stroke-linejoin="bevel" stroke-miterlimit="10" stroke-dasharray=""/><path fill="none" stroke="none"/><path fill="rgb(208,230,168)" stroke="none" paint-order="stroke" d="M 396.90509033203125 380.2684326171875 L 396.76580810546875 380.70831298828125 L 381.6387939453125 372.5103454589844 L 381.4418640136719 371.88824462890625 L 396.90509033203125 380.2684326171875 Z" fill-opacity="1" fill-rule="evenodd" clip-path="url(#mzpwzmHTtFeK)"/><path fill="none" stroke="rgb(0,0,0)" paint-order="fill" d="M 396.90509033203125 380.2684326171875 L 396.76580810546875 380.70831298828125 L 381.6387939453125 372.5103454589844 L 381.4418640136719 371.88824462890625 L 396.90509033203125 380.2684326171875 Z" stroke-opacity="1" stroke-linejoin="bevel" stroke-miterlimit="10" stroke-dasharray="" clip-path="url(#mzpwzmHTtFeK)"/><path fill="rgb(217,235,185)" stroke="none" paint-order="stroke" d="M 381.4418640136719 371.88824462890625 L 382.11627197265625 374.0185546875 L 366.5129699707031 376.90142822265625 L 364.58331298828125 375.0030212402344 L 381.4418640136719 371.88824462890625 Z" fill-opacity="1" fill-rule="evenodd" clip-path="url(#mzpwzmHTtFeK)"/><path fill="none" stroke="rgb(0,0,0)" paint-order="fill" d="M 381.4418640136719 371.88824462890625 L 382.11627197265625 374.0185546875 L 366.5129699707031 376.90142822265625 L 364.58331298828125 375.0030212402344 L 381.4418640136719 371.88824462890625 Z" stroke-opacity="1" stroke-linejoin="bevel" stroke-miterlimit="10" stroke-dasharray="" clip-path="url(#mzpwzmHTtFeK)"/><path fill="rgb(208,230,168)" stroke="none" paint-order="stroke" d="M 364.58331298828125 375.0030212402344 L 365.7157897949219 376.1171569824219 L 353.1978454589844 386.7256774902344 L 351.493408203125 386.0962829589844 L 364.58331298828125 375.0030212402344 Z" fill-opacity="1" fill-rule="evenodd" clip-path="url(#mzpwzmHTtFeK)"/><path fill="none" stroke="rgb(0,0,0)" paint-order="fill" d="M 364.58331298828125 375.0030212402344 L 365.7157897949219 376.1171569824219 L 353.1978454589844 386.7256774902344 L 351.493408203125 386.0962829589844 L 364.58331298828125 375.0030212402344 Z" stroke-opacity="1" stroke-linejoin="bevel" stroke-miterlimit="10" stroke-dasharray="" clip-path="url(#mzpwzmHTtFeK)"/><path fill="rgb(208,230,168)" stroke="none" paint-order="stroke" d="M 351.493408203125 386.0962829589844 L 351.6318054199219 386.14739990234375 L 344.3319396972656 401.7106018066406 L 344.16754150390625 401.71490478515625 L 351.493408203125 386.0962829589844 Z" fill-opacity="1" fill-rule="evenodd" clip-path="url(#mzpwzmHTtFeK)"/><path fill="none" stroke="rgb(0,0,0)" paint-order="fill" d="M 351.493408203125 386.0962829589844 L 351.6318054199219 386.14739990234375 L 344.3319396972656 401.7106018066406 L 344.16754150390625 401.71490478515625 L 351.493408203125 386.0962829589844 Z" stroke-opacity="1" stroke-linejoin="bevel" stroke-miterlimit="10" stroke-dasharray="" clip-path="url(#mzpwzmHTtFeK)"/><path fill="rgb(208,230,168)" stroke="none" paint-order="stroke" d="M 344.16754150390625 401.71490478515625 L 346.1946716308594 401.6617736816406 L 345.0960998535156 418.14483642578125 L 343.0187072753906 418.9521789550781 L 344.16754150390625 401.71490478515625 Z" fill-opacity="1" fill-rule="evenodd" clip-path="url(#mzpwzmHTtFeK)"/><path fill="none" stroke="rgb(0,0,0)" paint-order="fill" d="M 344.16754150390625 401.71490478515625 L 346.1946716308594 401.6617736816406 L 345.0960998535156 418.14483642578125 L 343.0187072753906 418.9521789550781 L 344.16754150390625 401.71490478515625 Z" stroke-opacity="1" stroke-linejoin="bevel" stroke-miterlimit="10" stroke-dasharray="" clip-path="url(#mzpwzmHTtFeK)"/><path fill="rgb(217,235,185)" stroke="none" paint-order="stroke" d="M 343.0187072753906 418.9521789550781 L 347.8192443847656 417.0865783691406 L 351.92449951171875 431.9980773925781 L 347.585693359375 435.5408630371094 L 343.0187072753906 418.9521789550781 Z" fill-opacity="1" fill-rule="evenodd" clip-path="url(#mzpwzmHTtFeK)"/><path fill="none" stroke="rgb(0,0,0)" paint-order="fill" d="M 343.0187072753906 418.9521789550781 L 347.8192443847656 417.0865783691406 L 351.92449951171875 431.9980773925781 L 347.585693359375 435.5408630371094 L 343.0187072753906 418.9521789550781 Z" stroke-opacity="1" stroke-linejoin="bevel" stroke-miterlimit="10" stroke-dasharray="" clip-path="url(#mzpwzmHTtFeK)"/><path fill="rgb(217,235,185)" stroke="none" paint-order="stroke" d="M 347.585693359375 435.5408630371094 L 350.9847412109375 432.7654113769531 L 359.5907287597656 445.92169189453125 L 356.93194580078125 449.82879638671875 L 347.585693359375 435.5408630371094 Z" fill-opacity="1" fill-rule="evenodd" clip-path="url(#mzpwzmHTtFeK)"/><path fill="none" stroke="rgb(0,0,0)" paint-order="fill" d="M 347.585693359375 435.5408630371094 L 350.9847412109375 432.7654113769531 L 359.5907287597656 445.92169189453125 L 356.93194580078125 449.82879638671875 L 347.585693359375 435.5408630371094 Z" stroke-opacity="1" stroke-linejoin="bevel" stroke-miterlimit="10" stroke-dasharray="" clip-path="url(#mzpwzmHTtFeK)"/><path fill="rgb(208,230,168)" stroke="none" paint-order="stroke" d="M 356.93194580078125 449.82879638671875 L 358.5743408203125 447.4152526855469 L 370.9013366699219 457.7658386230469 L 369.8930969238281 460.7118835449219 L 356.93194580078125 449.82879638671875 Z" fill-opacity="1" fill-rule="evenodd" clip-path="url(#mzpwzmHTtFeK)"/><path fill="none" stroke="rgb(0,0,0)" paint-order="fill" d="M 356.93194580078125 449.82879638671875 L 358.5743408203125 447.4152526855469 L 370.9013366699219 457.7658386230469 L 369.8930969238281 460.7118835449219 L 356.93194580078125 449.82879638671875 Z" stroke-opacity="1" stroke-linejoin="bevel" stroke-miterlimit="10" stroke-dasharray="" clip-path="url(#mzpwzmHTtFeK)"/><path fill="rgb(217,235,185)" stroke="none" paint-order="stroke" d="M 369.8930969238281 460.7118835449219 L 371.80804443359375 455.11651611328125 L 385.7259521484375 461.32196044921875 L 385.23687744140625 467.55303955078125 L 369.8930969238281 460.7118835449219 Z" fill-opacity="1" fill-rule="evenodd" clip-path="url(#mzpwzmHTtFeK)"/><path fill="none" stroke="rgb(0,0,0)" paint-order="fill" d="M 369.8930969238281 460.7118835449219 L 371.80804443359375 455.11651611328125 L 385.7259521484375 461.32196044921875 L 385.23687744140625 467.55303955078125 L 369.8930969238281 460.7118835449219 Z" stroke-opacity="1" stroke-linejoin="bevel" stroke-miterlimit="10" stroke-dasharray="" clip-path="url(#mzpwzmHTtFeK)"/><path fill="rgb(208,230,168)" stroke="none" paint-order="stroke" d="M 385.23687744140625 467.55303955078125 L 385.3960876464844 465.5245666503906 L 401.4260559082031 467.99407958984375 L 401.76690673828125 470.099609375 L 385.23687744140625 467.55303955078125 Z" fill-opacity="1" fill-rule="evenodd" clip-path="url(#mzpwzmHTtFeK)"/><path fill="none" stroke="rgb(0,0,0)" paint-order="fill" d="M 385.23687744140625 467.55303955078125 L 385.3960876464844 465.5245666503906 L 401.4260559082031 467.99407958984375 L 401.76690673828125 470.099609375 L 385.23687744140625 467.55303955078125 Z" stroke-opacity="1" stroke-linejoin="bevel" stroke-miterlimit="10" stroke-dasharray="" clip-path="url(#mzpwzmHTtFeK)"/><path fill="rgb(208,230,168)" stroke="none" paint-order="stroke" d="M 401.76690673828125 470.099609375 L 401.5131530761719 468.5321960449219 L 417.7607421875 466.875732421875 L 418.3888244628906 468.40496826171875 L 401.76690673828125 470.099609375 Z" fill-opacity="1" fill-rule="evenodd" clip-path="url(#mzpwzmHTtFeK)"/><path fill="none" stroke="rgb(0,0,0)" paint-order="fill" d="M 401.76690673828125 470.099609375 L 401.5131530761719 468.5321960449219 L 417.7607421875 466.875732421875 L 418.3888244628906 468.40496826171875 L 401.76690673828125 470.099609375 Z" stroke-opacity="1" stroke-linejoin="bevel" stroke-miterlimit="10" stroke-dasharray="" clip-path="url(#mzpwzmHTtFeK)"/><path fill="rgb(217,235,185)" stroke="none" paint-order="stroke" d="M 418.3888244628906 468.40496826171875 L 416.40814208984375 463.58233642578125 L 431.0497741699219 458.33575439453125 L 434.1498107910156 462.7572937011719 L 418.3888244628906 468.40496826171875 Z" fill-opacity="1" fill-rule="evenodd" clip-path="url(#mzpwzmHTtFeK)"/><path fill="none" stroke="rgb(0,0,0)" paint-order="fill" d="M 418.3888244628906 468.40496826171875 L 416.40814208984375 463.58233642578125 L 431.0497741699219 458.33575439453125 L 434.1498107910156 462.7572937011719 L 418.3888244628906 468.40496826171875 Z" stroke-opacity="1" stroke-linejoin="bevel" stroke-miterlimit="10" stroke-dasharray="" clip-path="url(#mzpwzmHTtFeK)"/><path fill="rgb(208,230,168)" stroke="none" paint-order="stroke" d="M 434.1498107910156 462.7572937011719 L 432.17620849609375 459.94232177734375 L 445.64801025390625 451.2145690917969 L 448.2596130371094 453.6162109375 L 434.1498107910156 462.7572937011719 Z" fill-opacity="1" fill-rule="evenodd" clip-path="url(#mzpwzmHTtFeK)"/><path fill="none" stroke="rgb(0,0,0)" paint-order="fill" d="M 434.1498107910156 462.7572937011719 L 432.17620849609375 459.94232177734375 L 445.64801025390625 451.2145690917969 L 448.2596130371094 453.6162109375 L 434.1498107910156 462.7572937011719 Z" stroke-opacity="1" stroke-linejoin="bevel" stroke-miterlimit="10" stroke-dasharray="" clip-path="url(#mzpwzmHTtFeK)"/><path fill="rgb(208,230,168)" stroke="none" paint-order="stroke" d="M 448.2596130371094 453.6162109375 L 445.22979736328125 450.8299560546875 L 456.4470520019531 439.4045104980469 L 460.09783935546875 441.5582275390625 L 448.2596130371094 453.6162109375 Z" fill-opacity="1" fill-rule="evenodd" clip-path="url(#mzpwzmHTtFeK)"/><path fill="none" stroke="rgb(0,0,0)" paint-order="fill" d="M 448.2596130371094 453.6162109375 L 445.22979736328125 450.8299560546875 L 456.4470520019531 439.4045104980469 L 460.09783935546875 441.5582275390625 L 448.2596130371094 453.6162109375 Z" stroke-opacity="1" stroke-linejoin="bevel" stroke-miterlimit="10" stroke-dasharray="" clip-path="url(#mzpwzmHTtFeK)"/><path fill="rgb(208,230,168)" stroke="none" paint-order="stroke" d="M 460.09783935546875 441.5582275390625 L 457.3331298828125 439.9272155761719 L 466.0852966308594 426.16827392578125 L 469.2120666503906 427.2301025390625 L 460.09783935546875 441.5582275390625 Z" fill-opacity="1" fill-rule="evenodd" clip-path="url(#mzpwzmHTtFeK)"/><path fill="none" stroke="rgb(0,0,0)" paint-order="fill" d="M 460.09783935546875 441.5582275390625 L 457.3331298828125 439.9272155761719 L 466.0852966308594 426.16827392578125 L 469.2120666503906 427.2301025390625 L 460.09783935546875 441.5582275390625 Z" stroke-opacity="1" stroke-linejoin="bevel" stroke-miterlimit="10" stroke-dasharray="" clip-path="url(#mzpwzmHTtFeK)"/><path fill="rgb(217,235,185)" stroke="none" paint-order="stroke" d="M 469.2120666503906 427.2301025390625 L 464.67431640625 425.6891174316406 L 470.4198913574219 410.68695068359375 L 475.3091735839844 411.3101501464844 L 469.2120666503906 427.2301025390625 Z" fill-opacity="1" fill-rule="evenodd" clip-path="url(#mzpwzmHTtFeK)"/><path fill="none" stroke="rgb(0,0,0)" paint-order="fill" d="M 469.2120666503906 427.2301025390625 L 464.67431640625 425.6891174316406 L 470.4198913574219 410.68695068359375 L 475.3091735839844 411.3101501464844 L 469.2120666503906 427.2301025390625 Z" stroke-opacity="1" stroke-linejoin="bevel" stroke-miterlimit="10" stroke-dasharray="" clip-path="url(#mzpwzmHTtFeK)"/><path fill="rgb(208,230,168)" stroke="none" paint-order="stroke" d="M 475.3091735839844 411.3101501464844 L 472.0658264160156 410.8967590332031 L 474.8868103027344 394.7069091796875 L 478.2423095703125 394.4765625 L 475.3091735839844 411.3101501464844 Z" fill-opacity="1" fill-rule="evenodd" clip-path="url(#mzpwzmHTtFeK)"/><path fill="none" stroke="rgb(0,0,0)" paint-order="fill" d="M 475.3091735839844 411.3101501464844 L 472.0658264160156 410.8967590332031 L 474.8868103027344 394.7069091796875 L 478.2423095703125 394.4765625 L 475.3091735839844 411.3101501464844 Z" stroke-opacity="1" stroke-linejoin="bevel" stroke-miterlimit="10" stroke-dasharray="" clip-path="url(#mzpwzmHTtFeK)"/><path fill="rgb(217,235,185)" stroke="none" paint-order="stroke" d="M 478.2423095703125 394.4765625 L 471.9466247558594 394.90875244140625 L 471.7171936035156 379.0409851074219 L 477.9951477050781 377.3822326660156 L 478.2423095703125 394.4765625 Z" fill-opacity="1" fill-rule="evenodd" clip-path="url(#mzpwzmHTtFeK)"/><path fill="none" stroke="rgb(0,0,0)" paint-order="fill" d="M 478.2423095703125 394.4765625 L 471.9466247558594 394.90875244140625 L 471.7171936035156 379.0409851074219 L 477.9951477050781 377.3822326660156 L 478.2423095703125 394.4765625 Z" stroke-opacity="1" stroke-linejoin="bevel" stroke-miterlimit="10" stroke-dasharray="" clip-path="url(#mzpwzmHTtFeK)"/><path fill="rgb(217,235,185)" stroke="none" paint-order="stroke" d="M 477.9951477050781 377.3822326660156 L 472.72662353515625 378.7742614746094 L 469.59649658203125 363.0357666015625 L 474.6644592285156 360.63531494140625 L 477.9951477050781 377.3822326660156 Z" fill-opacity="1" fill-rule="evenodd" clip-path="url(#mzpwzmHTtFeK)"/><path fill="none" stroke="rgb(0,0,0)" paint-order="fill" d="M 477.9951477050781 377.3822326660156 L 472.72662353515625 378.7742614746094 L 469.59649658203125 363.0357666015625 L 474.6644592285156 360.63531494140625 L 477.9951477050781 377.3822326660156 Z" stroke-opacity="1" stroke-linejoin="bevel" stroke-miterlimit="10" stroke-dasharray="" clip-path="url(#mzpwzmHTtFeK)"/><path fill="rgb(208,230,168)" stroke="none" paint-order="stroke" d="M 474.6644592285156 360.63531494140625 L 474.4429626464844 360.740234375 L 468.2370300292969 344.931396484375 L 468.442138671875 344.7847595214844 L 474.6644592285156 360.63531494140625 Z" fill-opacity="1" fill-rule="evenodd" clip-path="url(#mzpwzmHTtFeK)"/><path fill="none" stroke="rgb(0,0,0)" paint-order="fill" d="M 474.6644592285156 360.63531494140625 L 474.4429626464844 360.740234375 L 468.2370300292969 344.931396484375 L 468.442138671875 344.7847595214844 L 474.6644592285156 360.63531494140625 Z" stroke-opacity="1" stroke-linejoin="bevel" stroke-miterlimit="10" stroke-dasharray="" clip-path="url(#mzpwzmHTtFeK)"/><path fill="rgb(208,230,168)" stroke="none" paint-order="stroke" d="M 468.442138671875 344.7847595214844 L 467.1739807128906 345.6912841796875 L 458.4731750488281 331.4523620605469 L 459.597412109375 330.3103332519531 L 468.442138671875 344.7847595214844 Z" fill-opacity="1" fill-rule="evenodd" clip-path="url(#mzpwzmHTtFeK)"/><path fill="none" stroke="rgb(0,0,0)" paint-order="fill" d="M 468.442138671875 344.7847595214844 L 467.1739807128906 345.6912841796875 L 458.4731750488281 331.4523620605469 L 459.597412109375 330.3103332519531 L 468.442138671875 344.7847595214844 Z" stroke-opacity="1" stroke-linejoin="bevel" stroke-miterlimit="10" stroke-dasharray="" clip-path="url(#mzpwzmHTtFeK)"/><path fill="rgb(217,235,185)" stroke="none" paint-order="stroke" d="M 459.597412109375 330.3103332519531 L 453.0528564453125 336.9583435058594 L 442.96990966796875 325.4665222167969 L 448.45953369140625 317.6162109375 L 459.597412109375 330.3103332519531 Z" fill-opacity="1" fill-rule="evenodd" clip-path="url(#mzpwzmHTtFeK)"/><path fill="none" stroke="rgb(0,0,0)" paint-order="fill" d="M 459.597412109375 330.3103332519531 L 453.0528564453125 336.9583435058594 L 442.96990966796875 325.4665222167969 L 448.45953369140625 317.6162109375 L 459.597412109375 330.3103332519531 Z" stroke-opacity="1" stroke-linejoin="bevel" stroke-miterlimit="10" stroke-dasharray="" clip-path="url(#mzpwzmHTtFeK)"/><path fill="rgb(217,235,185)" stroke="none" paint-order="stroke" d="M 448.45953369140625 317.6162109375 L 443.371337890625 324.8924865722656 L 431.4596862792969 315.23370361328125 L 435.40155029296875 307.02789306640625 L 448.45953369140625 317.6162109375 Z" fill-opacity="1" fill-rule="evenodd" clip-path="url(#mzpwzmHTtFeK)"/><path fill="none" stroke="rgb(0,0,0)" paint-order="fill" d="M 448.45953369140625 317.6162109375 L 443.371337890625 324.8924865722656 L 431.4596862792969 315.23370361328125 L 435.40155029296875 307.02789306640625 L 448.45953369140625 317.6162109375 Z" stroke-opacity="1" stroke-linejoin="bevel" stroke-miterlimit="10" stroke-dasharray="" clip-path="url(#mzpwzmHTtFeK)"/><path fill="rgb(208,230,168)" stroke="none" paint-order="stroke" d="M 435.40155029296875 307.02789306640625 L 434.9765625 307.91259765625 L 420.53826904296875 299.75445556640625 L 420.8253173828125 298.7917785644531 L 435.40155029296875 307.02789306640625 Z" fill-opacity="1" fill-rule="evenodd" clip-path="url(#mzpwzmHTtFeK)"/><path fill="none" stroke="rgb(0,0,0)" paint-order="fill" d="M 435.40155029296875 307.02789306640625 L 434.9765625 307.91259765625 L 420.53826904296875 299.75445556640625 L 420.8253173828125 298.7917785644531 L 435.40155029296875 307.02789306640625 Z" stroke-opacity="1" stroke-linejoin="bevel" stroke-miterlimit="10" stroke-dasharray="" clip-path="url(#mzpwzmHTtFeK)"/><path fill="rgb(227,240,203)" stroke="none" paint-order="stroke" d="M 420.8253173828125 298.7917785644531 L 417.4439697265625 310.1324462890625 L 403.5145568847656 305.0546569824219 L 405.1478271484375 293.0767517089844 L 420.8253173828125 298.7917785644531 Z" fill-opacity="1" fill-rule="evenodd" clip-path="url(#mzpwzmHTtFeK)"/><path fill="none" stroke="rgb(0,0,0)" paint-order="fill" d="M 420.8253173828125 298.7917785644531 L 417.4439697265625 310.1324462890625 L 403.5145568847656 305.0546569824219 L 405.1478271484375 293.0767517089844 L 420.8253173828125 298.7917785644531 Z" stroke-opacity="1" stroke-linejoin="bevel" stroke-miterlimit="10" stroke-dasharray="" clip-path="url(#mzpwzmHTtFeK)"/><path fill="rgb(217,235,185)" stroke="none" paint-order="stroke" d="M 405.1478271484375 293.0767517089844 L 403.92034912109375 302.0786437988281 L 388.93255615234375 299.23919677734375 L 388.7892150878906 289.97760009765625 L 405.1478271484375 293.0767517089844 Z" fill-opacity="1" fill-rule="evenodd" clip-path="url(#mzpwzmHTtFeK)"/><path fill="none" stroke="rgb(0,0,0)" paint-order="fill" d="M 405.1478271484375 293.0767517089844 L 403.92034912109375 302.0786437988281 L 388.93255615234375 299.23919677734375 L 388.7892150878906 289.97760009765625 L 405.1478271484375 293.0767517089844 Z" stroke-opacity="1" stroke-linejoin="bevel" stroke-miterlimit="10" stroke-dasharray="" clip-path="url(#mzpwzmHTtFeK)"/><path fill="rgb(208,230,168)" stroke="none" paint-order="stroke" d="M 388.7892150878906 289.97760009765625 L 388.8189697265625 291.9007263183594 L 372.481201171875 291.4508972167969 L 372.1621398925781 289.5198059082031 L 388.7892150878906 289.97760009765625 Z" fill-opacity="1" fill-rule="evenodd" clip-path="url(#mzpwzmHTtFeK)"/><path fill="none" stroke="rgb(0,0,0)" paint-order="fill" d="M 388.7892150878906 289.97760009765625 L 388.8189697265625 291.9007263183594 L 372.481201171875 291.4508972167969 L 372.1621398925781 289.5198059082031 L 388.7892150878906 289.97760009765625 Z" stroke-opacity="1" stroke-linejoin="bevel" stroke-miterlimit="10" stroke-dasharray="" clip-path="url(#mzpwzmHTtFeK)"/><path fill="rgb(199,225,151)" stroke="none" paint-order="stroke" d="M 372.1621398925781 289.5198059082031 L 371.8280029296875 287.49774169921875 L 355.02801513671875 289.68231201171875 L 355.66278076171875 291.6653137207031 L 372.1621398925781 289.5198059082031 Z" fill-opacity="1" fill-rule="evenodd" clip-path="url(#mzpwzmHTtFeK)"/><path fill="none" stroke="rgb(0,0,0)" paint-order="fill" d="M 372.1621398925781 289.5198059082031 L 371.8280029296875 287.49774169921875 L 355.02801513671875 289.68231201171875 L 355.66278076171875 291.6653137207031 L 372.1621398925781 289.5198059082031 Z" stroke-opacity="1" stroke-linejoin="bevel" stroke-miterlimit="10" stroke-dasharray="" clip-path="url(#mzpwzmHTtFeK)"/><path fill="rgb(208,230,168)" stroke="none" paint-order="stroke" d="M 355.66278076171875 291.6653137207031 L 356.320556640625 293.72027587890625 L 340.6231689453125 298.28607177734375 L 339.6632995605469 296.3189697265625 L 355.66278076171875 291.6653137207031 Z" fill-opacity="1" fill-rule="evenodd" clip-path="url(#mzpwzmHTtFeK)"/><path fill="none" stroke="rgb(0,0,0)" paint-order="fill" d="M 355.66278076171875 291.6653137207031 L 356.320556640625 293.72027587890625 L 340.6231689453125 298.28607177734375 L 339.6632995605469 296.3189697265625 L 355.66278076171875 291.6653137207031 Z" stroke-opacity="1" stroke-linejoin="bevel" stroke-miterlimit="10" stroke-dasharray="" clip-path="url(#mzpwzmHTtFeK)"/><path fill="rgb(217,235,185)" stroke="none" paint-order="stroke" d="M 339.6632995605469 296.3189697265625 L 343.85931396484375 304.91796875 L 329.9528503417969 311.35546875 L 324.5057678222656 303.3356018066406 L 339.6632995605469 296.3189697265625 Z" fill-opacity="1" fill-rule="evenodd" clip-path="url(#mzpwzmHTtFeK)"/><path fill="none" stroke="rgb(0,0,0)" paint-order="fill" d="M 339.6632995605469 296.3189697265625 L 343.85931396484375 304.91796875 L 329.9528503417969 311.35546875 L 324.5057678222656 303.3356018066406 L 339.6632995605469 296.3189697265625 Z" stroke-opacity="1" stroke-linejoin="bevel" stroke-miterlimit="10" stroke-dasharray="" clip-path="url(#mzpwzmHTtFeK)"/><path fill="rgb(208,230,168)" stroke="none" paint-order="stroke" d="M 324.5057678222656 303.3356018066406 L 326.0433044433594 305.599365234375 L 312.361328125 314.5768127441406 L 310.4974060058594 312.5272216796875 L 324.5057678222656 303.3356018066406 Z" fill-opacity="1" fill-rule="evenodd" clip-path="url(#mzpwzmHTtFeK)"/><path fill="none" stroke="rgb(0,0,0)" paint-order="fill" d="M 324.5057678222656 303.3356018066406 L 326.0433044433594 305.599365234375 L 312.361328125 314.5768127441406 L 310.4974060058594 312.5272216796875 L 324.5057678222656 303.3356018066406 Z" stroke-opacity="1" stroke-linejoin="bevel" stroke-miterlimit="10" stroke-dasharray="" clip-path="url(#mzpwzmHTtFeK)"/></svg>