<svg version="1.1" xmlns="http://www.w3.org/2000/svg" xmlns:xlink="http://www.w3.org/1999/xlink" width="800" height="800"><defs><clipPath id="MAxOWufBMZvQ"><path fill="none" stroke="none" d="M 10.5 10.5 L 770.5 10.5 L 770.5 790.5 L 10.5 790.5 L 10.5 10.5"/></clipPath><clipPath id="yTMIkBxzGfzV"><path fill="none" stroke="none" d="M 10.5 10.5 L 770.5 10.5 L 770.5 790.5 L 10.5 790.5 L 10.5 10.5"/></clipPath><clipPath id="pLVsrgDEkTeU"><path fill="none" stroke="none" d="M 10.5 10.5 L 770.5 10.5 L 770.5 790.5 L 10.5 790.5 L 10.5 10.5"/></clipPath><clipPath id="vFAwKaTAtSgf"><path fill="none" stroke="none" d="M 10.5 10.5 L 770.5 10.5 L 770.5 790.5 L 10.5 790.5 L 10.5 10.5"/></clipPath></defs><path fill="rgb(255,255,255)" stroke="none" paint-order="stroke" d="M 0.5 0.5 L 800.5 0.5 L 800.5 800.5 L 0.5 800.5 L 0.5 0.5" fill-opacity="1"/><rect fill="#FFFFFF" stroke="none" x="10" y="10" width="760" height="780" transform="matrix(1, 0, 0, 1, 0.5, 0.5)"/><path fill="rgb(0,0,0)" stroke="none" paint-order="stroke" d="M 10.5 10.5 L 770.5 10.5 L 770.5 790.5 L 10.5 790.5 L 10.5 10.5" fill-opacity="1"/><path fill="none" stroke="rgb(229,229,229)" paint-order="fill" d="M 10.5 10.5 L 770.5 10.5 L 770.5 790.5 L 10.5 790.5 L 10.5 10.5" stroke-opacity="1" stroke-linejoin="bevel" stroke-miterlimit="10" stroke-dasharray=""/><path fill="none" stroke="none"/><path fill="rgb(208,230,168)" stroke="none" paint-order="stroke" d="M 396.90509033203125 380.2684326171875 L 396.76580810546875 380.70831298828125 L 381.6387939453125 372.5103454589844 L 381.4418640136719 371.88824462890625 L 396.90509033203125 380.2684326171875 Z" fill-opacity="1" fill-rule="evenodd" clip-path="url(#pLVsrgDEkTeU)"/><path fill="none" stroke="rgb(0,0,0)" paint-order="fill" d="M 396.90509033203125 380.2684326171875 L 396.76580810546875 380.70831298828125 L 381.6387939453125 372.5103454589844 L 381.4418640136719 371.88824462890625 L 396.90509033203125 380.2684326171875 Z" stroke-opacity="1" stroke-linejoin="bevel" stroke-miterlimit="10" stroke-dasharray="" clip-path="url(#pLVsrgDEkTeU)"/><path fill="rgb(217,235,185)" stroke="none" paint-order="stroke" d="M 381.4418640136719 371.88824462890625 L 382.11627197265625 374.0185546875 L 366.5129699707031 376.90142822265625 L 364.58331298828125 375.0030212402344 L 381.4418640136719 371.88824462890625 Z" fill-opacity="1" fill-rule="evenodd" clip-path="url(#pLVsrgDEkTeU)"/><path fill="none" stroke="rgb(0,0,0)" paint-order="fill" d="M 381.4418640136719 371.88824462890625 L 382.11627197265625 374.0185546875 L 366.5129699707031 376.90142822265625 L 364.58331298828125 375.0030212402344 L 381.4418640136719 371.88824462890625 Z" stroke-opacity="1" stroke-linejoin="bevel" stroke-miterlimit="10" stroke-dasharray="" clip-path="url(#pLVsrgDEkTeU)"/><path fill="rgb(208,230,168)" stroke="none" paint-order="stroke" d="M 364.58331298828125 375.0030212402344 L 365.7157897949219 376.1171569824219 L 353.1978454589844 386.7256774902344 L 351.493408203125 386.0962829589844 L 364.58331298828125 375.0030212402344 Z" fill-opacity="1" fill-rule="evenodd" clip-path="url(#pLVsrgDEkTeU)"/><path fill="none" stroke="rgb(0,0,0)" paint-order="fill" d="M 364.58331298828125 375.0030212402344 L 365.7157897949219 376.1171569824219 L 353.1978454589844 386.7256774902344 L 351.493408203125 386.0962829589844 L 364.58331298828125 375.0030212402344 Z" stroke-opacity="1" stroke-linejoin="bevel" stroke-miterlimit="10" stroke-dasharray="" clip-path="url(#pLVsrgDEkTeU)"/><path fill="rgb(208,230,168)" stroke="none" paint-order="stroke" d="M 351.493408203125 386.0962829589844 L 351.6318054199219 386.14739990234375 L 344.3319396972656 401.7106018066406 L 344.16754150390625 401.71490478515625 L 351.493408203125 386.0962829589844 Z" fill-opacity="1" fill-rule="evenodd" clip-path="url(#pLVsrgDEkTeU)"/><path fill="none" stroke="rgb(0,0,0)" paint-order="fill" d="M 351.493408203125 386.0962829589844 L 351.6318054199219 386.14739990234375 L 344.3319396972656 401.7106018066406 L 344.16754150390625 401.71490478515625 L 351.493408203125 386.0962829589844 Z" stroke-opacity="1" stroke-linejoin="bevel" stroke-miterlimit="10" stroke-dasharray="" clip-path="url(#pLVsrgDEkTeU)"/><path fill="rgb(208,230,168)" stroke="none" paint-order="stroke" d="M 344.16754150390625 401.71490478515625 L 346.1946716308594 401.6617736816406 L 345.0960998535156 418.14483642578125 L 343.0187072753906 418.9521789550781 L 344.16754150390625 401.71490478515625 Z" fill-opacity="1" fill-rule="evenodd" clip-path="url(#pLVsrgDEkTeU)"/><path fill="none" stroke="rgb(0,0,0)" paint-order="fill" d="M 344.16754150390625 401.71490478515625 L 346.1946716308594 401.6617736816406 L 345.0960998535156 418.14483642578125 L 343.0187072753906 418.9521789550781 L 344.16754150390625 401.71490478515625 Z" stroke-opacity="1" stroke-linejoin="bevel" stroke-miterlimit="10" stroke-dasharray="" clip-path="url(#pLVsrgDEkTeU)"/><path fill="rgb(217,235,185)" stroke="none" paint-order="stroke" d="M 343.0187072753906 418.9521789550781 L 347.8192443847656 417.0865783691406 L 351.92449951171875 431.9980773925781 L 347.585693359375 435.5408630371094 L 343.0187072753906 418.9521789550781 Z" fill-opacity="1" fill-rule="evenodd" clip-path="url(#pLVsrgDEkTeU)"/><path fill="none" stroke="rgb(0,0,0)" paint-order="fill" d="M 343.0187072753906 418.9521789550781 L 347.8192443847656 417.0865783691406 L 351.92449951171875 431.9980773925781 L 347.585693359375 435.5408630371094 L 343.0187072753906 418.9521789550781 Z" stroke-opacity="1" stroke-linejoin="bevel" stroke-miterlimit="10" stroke-dasharray="" clip-path="url(#pLVsrgDEkTeU)"/><path fill="rgb(217,235,185)" stroke="none" paint-order="stroke" d="M 347.585693359375 435.5408630371094 L 350.9847412109375 432.7654113769531 L 359.5907287597656 445.92169189453125 L 356.93194580078125 449.82879638671875 L 347.585693359375 435.5408630371094 Z" fill-opacity="1" fill-rule="evenodd" clip-path="url(#pLVsrgDEkTeU)"/><path fill="none" stroke="rgb(0,0,0)" paint-order="fill" d="M 347.585693359375 435.5408630371094 L 350.9847412109375 432.7654113769531 L 359.5907287597656 445.92169189453125 L 356.93194580078125 449.82879638671875 L 347.585693359375 435.5408630371094 Z" stroke-opacity="1" stroke-linejoin="bevel" stroke-miterlimit="10" stroke-dasharray="" clip-path="url(#pLVsrgDEkTeU)"/><path fill="rgb(208,230,168)" stroke="none" paint-order="stroke" d="M 356.93194580078125 449.82879638671875 L 358.5743408203125 447.4152526855469 L 370.9013366699219 457.7658386230469 L 369.8930969238281 460.7118835449219 L 356.93194580078125 449.82879638671875 Z" fill-opacity="1" fill-rule="evenodd" clip-path="url(#pLVsrgDEkTeU)"/><path fill="none" stroke="rgb(0,0,0)" paint-order="fill" d="M 356.93194580078125 449.82879638671875 L 358.5743408203125 447.4152526855469 L 370.9013366699219 457.7658386230469 L 369.8930969238281 460.7118835449219 L 356.93194580078125 449.82879638671875 Z" stroke-opacity="1" stroke-linejoin="bevel" stroke-miterlimit="10" stroke-dasharray="" clip-path="url(#pLVsrgDEkTeU)"/></svg>