<svg version="1.1" xmlns="http://www.w3.org/2000/svg" xmlns:xlink="http://www.w3.org/1999/xlink" width="800" height="800"><defs><clipPath id="pRdImncsciTG"><path fill="none" stroke="none" d="M 10.5 10.5 L 770.5 10.5 L 770.5 790.5 L 10.5 790.5 L 10.5 10.5"/></clipPath><clipPath id="oQCkJsrNbUTo"><path fill="none" stroke="none" d="M 10.5 10.5 L 770.5 10.5 L 770.5 790.5 L 10.5 790.5 L 10.5 10.5"/></clipPath><clipPath id="TrqZgrTnBxhX"><path fill="none" stroke="none" d="M 10.5 10.5 L 770.5 10.5 L 770.5 790.5 L 10.5 790.5 L 10.5 10.5"/></clipPath><clipPath id="FIlmxKXVRidt"><path fill="none" stroke="none" d="M 10.5 10.5 L 770.5 10.5 L 770.5 790.5 L 10.5 790.5 L 10.5 10.5"/></clipPath></defs><path fill="rgb(255,255,255)" stroke="none" paint-order="stroke" d="M 0.5 0.5 L 800.5 0.5 L 800.5 800.5 L 0.5 800.5 L 0.5 0.5" fill-opacity="1"/><rect fill="#FFFFFF" stroke="none" x="10" y="10" width="760" height="780" transform="matrix(1, 0, 0, 1, 0.5, 0.5)"/><path fill="rgb(0,0,0)" stroke="none" paint-order="stroke" d="M 10.5 10.5 L 770.5 10.5 L 770.5 790.5 L 10.5 790.5 L 10.5 10.5" fill-opacity="1"/><path fill="none" stroke="rgb(229,229,229)" paint-order="fill" d="M 10.5 10.5 L 770.5 10.5 L 770.5 790.5 L 10.5 790.5 L 10.5 10.5" stroke-opacity="1" stroke-linejoin="bevel" stroke-miterlimit="10" stroke-dasharray=""/><path fill="none" stroke="none"/><path fill="rgb(213,165,204)" stroke="none" paint-order="stroke" d="M 396.90509033203125 380.2684326171875 L 396.76580810546875 380.70831298828125 L 381.6387939453125 372.5103454589844 L 381.4418640136719 371.88824462890625 L 396.90509033203125 380.2684326171875 Z" fill-opacity="1" fill-rule="evenodd" clip-path="url(#TrqZgrTnBxhX)"/><path fill="none" stroke="rgb(0,0,0)" paint-order="fill" d="M 396.90509033203125 380.2684326171875 L 396.76580810546875 380.70831298828125 L 381.6387939453125 372.5103454589844 L 381.4418640136719 371.88824462890625 L 396.90509033203125 380.2684326171875 Z" stroke-opacity="1" stroke-linejoin="bevel" stroke-miterlimit="10" stroke-dasharray="" clip-path="url(#TrqZgrTnBxhX)"/><path fill="rgb(221,183,214)" stroke="none" paint-order="stroke" d="M 381.4418640136719 371.88824462890625 L 382.11627197265625 374.0185546875 L 366.5129699707031 376.90142822265625 L 364.58331298828125 375.0030212402344 L 381.4418640136719 371.88824462890625 Z" fill-opacity="1" fill-rule="evenodd" clip-path="url(#TrqZgrTnBxhX)"/><path fill="none" stroke="rgb(0,0,0)" paint-order="fill" d="M 381.4418640136719 371.88824462890625 L 382.11627197265625 374.0185546875 L 366.5129699707031 376.90142822265625 L 364.58331298828125 375.0030212402344 L 381.4418640136719 371.88824462890625 Z" stroke-opacity="1" stroke-linejoin="bevel" stroke-miterlimit="10" stroke-dasharray="" clip-path="url(#TrqZgrTnBxhX)"/><path fill="rgb(213,165,204)" stroke="none" paint-order="stroke" d="M 364.58331298828125 375.0030212402344 L 365.7157897949219 376.1171569824219 L 353.1978454589844 386.7256774902344 L 351.493408203125 386.0962829589844 L 364.58331298828125 375.0030212402344 Z" fill-opacity="1" fill-rule="evenodd" clip-path="url(#TrqZgrTnBxhX)"/><path fill="none" stroke="rgb(0,0,0)" paint-order="fill" d="M 364.58331298828125 375.0030212402344 L 365.7157897949219 376.1171569824219 L 353.1978454589844 386.7256774902344 L 351.493408203125 386.0962829589844 L 364.58331298828125 375.0030212402344 Z" stroke-opacity="1" stroke-linejoin="bevel" stroke-miterlimit="10" stroke-dasharray="" clip-path="url(#TrqZgrTnBxhX)"/><path fill="rgb(213,165,204)" stroke="none" paint-order="stroke" d="M 351.493408203125 386.0962829589844 L 351.6318054199219 386.14739990234375 L 344.3319396972656 401.7106018066406 L 344.16754150390625 401.71490478515625 L 351.493408203125 386.0962829589844 Z" fill-opacity="1" fill-rule="evenodd" clip-path="url(#TrqZgrTnBxhX)"/><path fill="none" stroke="rgb(0,0,0)" paint-order="fill" d="M 351.493408203125 386.0962829589844 L 351.6318054199219 386.14739990234375 L 344.3319396972656 401.7106018066406 L 344.16754150390625 401.71490478515625 L 351.493408203125 386.0962829589844 Z" stroke-opacity="1" stroke-linejoin="bevel" stroke-miterlimit="10" stroke-dasharray="" clip-path="url(#TrqZgrTnBxhX)"/><path fill="rgb(213,165,204)" stroke="none" paint-order="stroke" d="M 344.16754150390625 401.71490478515625 L 346.1946716308594 401.6617736816406 L 345.0960998535156 418.14483642578125 L 343.0187072753906 418.9521789550781 L 344.16754150390625 401.71490478515625 Z" fill-opacity="1" fill-rule="evenodd" clip-path="url(#TrqZgrTnBxhX)"/><path fill="none" stroke="rgb(0,0,0)" paint-order="fill" d="M 344.16754150390625 401.71490478515625 L 346.1946716308594 401.6617736816406 L 345.0960998535156 418.14483642578125 L 343.0187072753906 418.9521789550781 L 344.16754150390625 401.71490478515625 Z" stroke-opacity="1" stroke-linejoin="bevel" stroke-miterlimit="10" stroke-dasharray="" clip-path="url(#TrqZgrTnBxhX)"/><path fill="rgb(221,183,214)" stroke="none" paint-order="stroke" d="M 343.0187072753906 418.9521789550781 L 347.8192443847656 417.0865783691406 L 351.92449951171875 431.9980773925781 L 347.585693359375 435.5408630371094 L 343.0187072753906 418.9521789550781 Z" fill-opacity="1" fill-rule="evenodd" clip-path="url(#TrqZgrTnBxhX)"/><path fill="none" stroke="rgb(0,0,0)" paint-order="fill" d="M 343.0187072753906 418.9521789550781 L 347.8192443847656 417.0865783691406 L 351.92449951171875 431.9980773925781 L 347.585693359375 435.5408630371094 L 343.0187072753906 418.9521789550781 Z" stroke-opacity="1" stroke-linejoin="bevel" stroke-miterlimit="10" stroke-dasharray="" clip-path="url(#TrqZgrTnBxhX)"/><path fill="rgb(221,183,214)" stroke="none" paint-order="stroke" d="M 347.585693359375 435.5408630371094 L 350.9847412109375 432.7654113769531 L 359.5907287597656 445.92169189453125 L 356.93194580078125 449.82879638671875 L 347.585693359375 435.5408630371094 Z" fill-opacity="1" fill-rule="evenodd" clip-path="url(#TrqZgrTnBxhX)"/><path fill="none" stroke="rgb(0,0,0)" paint-order="fill" d="M 347.585693359375 435.5408630371094 L 350.9847412109375 432.7654113769531 L 359.5907287597656 445.92169189453125 L 356.93194580078125 449.82879638671875 L 347.585693359375 435.5408630371094 Z" stroke-opacity="1" stroke-linejoin="bevel" stroke-miterlimit="10" stroke-dasharray="" clip-path="url(#TrqZgrTnBxhX)"/><path fill="rgb(213,165,204)" stroke="none" paint-order="stroke" d="M 356.93194580078125 449.82879638671875 L 358.5743408203125 447.4152526855469 L 370.9013366699219 457.7658386230469 L 369.8930969238281 460.7118835449219 L 356.93194580078125 449.82879638671875 Z" fill-opacity="1" fill-rule="evenodd" clip-path="url(#TrqZgrTnBxhX)"/><path fill="none" stroke="rgb(0,0,0)" paint-order="fill" d="M 356.93194580078125 449.82879638671875 L 358.5743408203125 447.4152526855469 L 370.9013366699219 457.7658386230469 L 369.8930969238281 460.7118835449219 L 356.93194580078125 449.82879638671875 Z" stroke-opacity="1" stroke-linejoin="bevel" stroke-miterlimit="10" stroke-dasharray="" clip-path="url(#TrqZgrTnBxhX)"/><path fill="rgb(221,183,214)" stroke="none" paint-order="stroke" d="M 369.8930969238281 460.7118835449219 L 371.80804443359375 455.11651611328125 L 385.7259521484375 461.32196044921875 L 385.23687744140625 467.55303955078125 L 369.8930969238281 460.7118835449219 Z" fill-opacity="1" fill-rule="evenodd" clip-path="url(#TrqZgrTnBxhX)"/><path fill="none" stroke="rgb(0,0,0)" paint-order="fill" d="M 369.8930969238281 460.7118835449219 L 371.80804443359375 455.11651611328125 L 385.7259521484375 461.32196044921875 L 385.23687744140625 467.55303955078125 L 369.8930969238281 460.7118835449219 Z" stroke-opacity="1" stroke-linejoin="bevel" stroke-miterlimit="10" stroke-dasharray="" clip-path="url(#TrqZgrTnBxhX)"/><path fill="rgb(213,165,204)" stroke="none" paint-order="stroke" d="M 385.23687744140625 467.55303955078125 L 385.3960876464844 465.5245666503906 L 401.4260559082031 467.99407958984375 L 401.76690673828125 470.099609375 L 385.23687744140625 467.55303955078125 Z" fill-opacity="1" fill-rule="evenodd" clip-path="url(#TrqZgrTnBxhX)"/><path fill="none" stroke="rgb(0,0,0)" paint-order="fill" d="M 385.23687744140625 467.55303955078125 L 385.3960876464844 465.5245666503906 L 401.4260559082031 467.99407958984375 L 401.76690673828125 470.099609375 L 385.23687744140625 467.55303955078125 Z" stroke-opacity="1" stroke-linejoin="bevel" stroke-miterlimit="10" stroke-dasharray="" clip-path="url(#TrqZgrTnBxhX)"/><path fill="rgb(213,165,204)" stroke="none" paint-order="stroke" d="M 401.76690673828125 470.099609375 L 401.5131530761719 468.5321960449219 L 417.7607421875 466.875732421875 L 418.3888244628906 468.40496826171875 L 401.76690673828125 470.099609375 Z" fill-opacity="1" fill-rule="evenodd" clip-path="url(#TrqZgrTnBxhX)"/><path fill="none" stroke="rgb(0,0,0)" paint-order="fill" d="M 401.76690673828125 470.099609375 L 401.5131530761719 468.5321960449219 L 417.7607421875 466.875732421875 L 418.3888244628906 468.40496826171875 L 401.76690673828125 470.099609375 Z" stroke-opacity="1" stroke-linejoin="bevel" stroke-miterlimit="10" stroke-dasharray="" clip-path="url(#TrqZgrTnBxhX)"/><path fill="rgb(221,183,214)" stroke="none" paint-order="stroke" d="M 418.3888244628906 468.40496826171875 L 416.40814208984375 463.58233642578125 L 431.0497741699219 458.33575439453125 L 434.1498107910156 462.7572937011719 L 418.3888244628906 468.40496826171875 Z" fill-opacity="1" fill-rule="evenodd" clip-path="url(#TrqZgrTnBxhX)"/><path fill="none" stroke="rgb(0,0,0)" paint-order="fill" d="M 418.3888244628906 468.40496826171875 L 416.40814208984375 463.58233642578125 L 431.0497741699219 458.33575439453125 L 434.1498107910156 462.7572937011719 L 418.3888244628906 468.40496826171875 Z" stroke-opacity="1" stroke-linejoin="bevel" stroke-miterlimit="10" stroke-dasharray="" clip-path="url(#TrqZgrTnBxhX)"/><path fill="rgb(213,165,204)" stroke="none" paint-order="stroke" d="M 434.1498107910156 462.7572937011719 L 432.17620849609375 459.94232177734375 L 445.64801025390625 451.2145690917969 L 448.2596130371094 453.6162109375 L 434.1498107910156 462.7572937011719 Z" fill-opacity="1" fill-rule="evenodd" clip-path="url(#TrqZgrTnBxhX)"/><path fill="none" stroke="rgb(0,0,0)" paint-order="fill" d="M 434.1498107910156 462.7572937011719 L 432.17620849609375 459.94232177734375 L 445.64801025390625 451.2145690917969 L 448.2596130371094 453.6162109375 L 434.1498107910156 462.7572937011719 Z" stroke-opacity="1" stroke-linejoin="bevel" stroke-miterlimit="10" stroke-dasharray="" clip-path="url(#TrqZgrTnBxhX)"/><path fill="rgb(213,165,204)" stroke="none" paint-order="stroke" d="M 448.2596130371094 453.6162109375 L 445.22979736328125 450.8299560546875 L 456.4470520019531 439.4045104980469 L 460.09783935546875 441.5582275390625 L 448.2596130371094 453.6162109375 Z" fill-opacity="1" fill-rule="evenodd" clip-path="url(#TrqZgrTnBxhX)"/><path fill="none" stroke="rgb(0,0,0)" paint-order="fill" d="M 448.2596130371094 453.6162109375 L 445.22979736328125 450.8299560546875 L 456.4470520019531 439.4045104980469 L 460.09783935546875 441.5582275390625 L 448.2596130371094 453.6162109375 Z" stroke-opacity="1" stroke-linejoin="bevel" stroke-miterlimit="10" stroke-dasharray="" clip-path="url(#TrqZgrTnBxhX)"/><path fill="rgb(213,165,204)" stroke="none" paint-order="stroke" d="M 460.09783935546875 441.5582275390625 L 457.3331298828125 439.9272155761719 L 466.0852966308594 426.16827392578125 L 469.2120666503906 427.2301025390625 L 460.09783935546875 441.5582275390625 Z" fill-opacity="1" fill-rule="evenodd" clip-path="url(#TrqZgrTnBxhX)"/><path fill="none" stroke="rgb(0,0,0)" paint-order="fill" d="M 460.09783935546875 441.5582275390625 L 457.3331298828125 439.9272155761719 L 466.0852966308594 426.16827392578125 L 469.2120666503906 427.2301025390625 L 460.09783935546875 441.5582275390625 Z" stroke-opacity="1" stroke-linejoin="bevel" stroke-miterlimit="10" stroke-dasharray="" clip-path="url(#TrqZgrTnBxhX)"/><path fill="rgb(221,183,214)" stroke="none" paint-order="stroke" d="M 469.2120666503906 427.2301025390625 L 464.67431640625 425.6891174316406 L 470.4198913574219 410.68695068359375 L 475.3091735839844 411.3101501464844 L 469.2120666503906 427.2301025390625 Z" fill-opacity="1" fill-rule="evenodd" clip-path="url(#TrqZgrTnBxhX)"/><path fill="none" stroke="rgb(0,0,0)" paint-order="fill" d="M 469.2120666503906 427.2301025390625 L 464.67431640625 425.6891174316406 L 470.4198913574219 410.68695068359375 L 475.3091735839844 411.3101501464844 L 469.2120666503906 427.2301025390625 Z" stroke-opacity="1" stroke-linejoin="bevel" stroke-miterlimit="10" stroke-dasharray="" clip-path="url(#TrqZgrTnBxhX)"/><path fill="rgb(213,165,204)" stroke="none" paint-order="stroke" d="M 475.3091735839844 411.3101501464844 L 472.0658264160156 410.8967590332031 L 474.8868103027344 394.7069091796875 L 478.2423095703125 394.4765625 L 475.3091735839844 411.3101501464844 Z" fill-opacity="1" fill-rule="evenodd" clip-path="url(#TrqZgrTnBxhX)"/><path fill="none" stroke="rgb(0,0,0)" paint-order="fill" d="M 475.3091735839844 411.3101501464844 L 472.0658264160156 410.8967590332031 L 474.8868103027344 394.7069091796875 L 478.2423095703125 394.4765625 L 475.3091735839844 411.3101501464844 Z" stroke-opacity="1" stroke-linejoin="bevel" stroke-miterlimit="10" stroke-dasharray="" clip-path="url(#TrqZgrTnBxhX)"/><path fill="rgb(221,183,214)" stroke="none" paint-order="stroke" d="M 478.2423095703125 394.4765625 L 471.9466247558594 394.90875244140625 L 471.7171936035156 379.0409851074219 L 477.9951477050781 377.3822326660156 L 478.2423095703125 394.4765625 Z" fill-opacity="1" fill-rule="evenodd" clip-path="url(#TrqZgrTnBxhX)"/><path fill="none" stroke="rgb(0,0,0)" paint-order="fill" d="M 478.2423095703125 394.4765625 L 471.9466247558594 394.90875244140625 L 471.7171936035156 379.0409851074219 L 477.9951477050781 377.3822326660156 L 478.2423095703125 394.4765625 Z" stroke-opacity="1" stroke-linejoin="bevel" stroke-miterlimit="10" stroke-dasharray="" clip-path="url(#TrqZgrTnBxhX)"/><path fill="rgb(221,183,214)" stroke="none" paint-order="stroke" d="M 477.9951477050781 377.3822326660156 L 472.72662353515625 378.7742614746094 L 469.59649658203125 363.0357666015625 L 474.6644592285156 360.63531494140625 L 477.9951477050781 377.3822326660156 Z" fill-opacity="1" fill-rule="evenodd" clip-path="url(#TrqZgrTnBxhX)"/><path fill="none" stroke="rgb(0,0,0)" paint-order="fill" d="M 477.9951477050781 377.3822326660156 L 472.72662353515625 378.7742614746094 L 469.59649658203125 363.0357666015625 L 474.6644592285156 360.63531494140625 L 477.9951477050781 377.3822326660156 Z" stroke-opacity="1" stroke-linejoin="bevel" stroke-miterlimit="10" stroke-dasharray="" clip-path="url(#TrqZgrTnBxhX)"/><path fill="rgb(213,165,204)" stroke="none" paint-order="stroke" d="M 474.6644592285156 360.63531494140625 L 474.4429626464844 360.740234375 L 468.2370300292969 344.931396484375 L 468.442138671875 344.7847595214844 L 474.6644592285156 360.63531494140625 Z" fill-opacity="1" fill-rule="evenodd" clip-path="url(#TrqZgrTnBxhX)"/><path fill="none" stroke="rgb(0,0,0)" paint-order="fill" d="M 474.6644592285156 360.63531494140625 L 474.4429626464844 360.740234375 L 468.2370300292969 344.931396484375 L 468.442138671875 344.7847595214844 L 474.6644592285156 360.63531494140625 Z" stroke-opacity="1" stroke-linejoin="bevel" stroke-miterlimit="10" stroke-dasharray="" clip-path="url(#TrqZgrTnBxhX)"/><path fill="rgb(213,165,204)" stroke="none" paint-order="stroke" d="M 468.442138671875 344.7847595214844 L 467.1739807128906 345.6912841796875 L 458.4731750488281 331.4523620605469 L 459.597412109375 330.3103332519531 L 468.442138671875 344.7847595214844 Z" fill-opacity="1" fill-rule="evenodd" clip-path="url(#TrqZgrTnBxhX)"/><path fill="none" stroke="rgb(0,0,0)" paint-order="fill" d="M 468.442138671875 344.7847595214844 L 467.1739807128906 345.6912841796875 L 458.4731750488281 331.4523620605469 L 459.597412109375 330.3103332519531 L 468.442138671875 344.7847595214844 Z" stroke-opacity="1" stroke-linejoin="bevel" stroke-miterlimit="10" stroke-dasharray="" clip-path="url(#TrqZgrTnBxhX)"/><path fill="rgb(221,183,214)" stroke="none" paint-order="stroke" d="M 459.597412109375 330.3103332519531 L 453.0528564453125 336.9583435058594 L 442.96990966796875 325.4665222167969 L 448.45953369140625 317.6162109375 L 459.597412109375 330.3103332519531 Z" fill-opacity="1" fill-rule="evenodd" clip-path="url(#TrqZgrTnBxhX)"/><path fill="none" stroke="rgb(0,0,0)" paint-order="fill" d="M 459.597412109375 330.3103332519531 L 453.0528564453125 336.9583435058594 L 442.96990966796875 325.4665222167969 L 448.45953369140625 317.6162109375 L 459.597412109375 330.3103332519531 Z" stroke-opacity="1" stroke-linejoin="bevel" stroke-miterlimit="10" stroke-dasharray="" clip-path="url(#TrqZgrTnBxhX)"/><path fill="rgb(221,183,214)" stroke="none" paint-order="stroke" d="M 448.45953369140625 317.6162109375 L 443.371337890625 324.8924865722656 L 431.4596862792969 315.23370361328125 L 435.40155029296875 307.02789306640625 L 448.45953369140625 317.6162109375 Z" fill-opacity="1" fill-rule="evenodd" clip-path="url(#TrqZgrTnBxhX)"/><path fill="none" stroke="rgb(0,0,0)" paint-order="fill" d="M 448.45953369140625 317.6162109375 L 443.371337890625 324.8924865722656 L 431.4596862792969 315.23370361328125 L 435.40155029296875 307.02789306640625 L 448.45953369140625 317.6162109375 Z" stroke-opacity="1" stroke-linejoin="bevel" stroke-miterlimit="10" stroke-dasharray="" clip-path="url(#TrqZgrTnBxhX)"/><path fill="rgb(213,165,204)" stroke="none" paint-order="stroke" d="M 435.40155029296875 307.02789306640625 L 434.9765625 307.91259765625 L 420.53826904296875 299.75445556640625 L 420.8253173828125 298.7917785644531 L 435.40155029296875 307.02789306640625 Z" fill-opacity="1" fill-rule="evenodd" clip-path="url(#TrqZgrTnBxhX)"/><path fill="none" stroke="rgb(0,0,0)" paint-order="fill" d="M 435.40155029296875 307.02789306640625 L 434.9765625 307.91259765625 L 420.53826904296875 299.75445556640625 L 420.8253173828125 298.7917785644531 L 435.40155029296875 307.02789306640625 Z" stroke-opacity="1" stroke-linejoin="bevel" stroke-miterlimit="10" stroke-dasharray="" clip-path="url(#TrqZgrTnBxhX)"/><path fill="rgb(230,201,224)" stroke="none" paint-order="stroke" d="M 420.8253173828125 298.7917785644531 L 417.4439697265625 310.1324462890625 L 403.5145568847656 305.0546569824219 L 405.1478271484375 293.0767517089844 L 420.8253173828125 298.7917785644531 Z" fill-opacity="1" fill-rule="evenodd" clip-path="url(#TrqZgrTnBxhX)"/><path fill="none" stroke="rgb(0,0,0)" paint-order="fill" d="M 420.8253173828125 298.7917785644531 L 417.4439697265625 310.1324462890625 L 403.5145568847656 305.0546569824219 L 405.1478271484375 293.0767517089844 L 420.8253173828125 298.7917785644531 Z" stroke-opacity="1" stroke-linejoin="bevel" stroke-miterlimit="10" stroke-dasharray="" clip-path="url(#TrqZgrTnBxhX)"/><path fill="rgb(221,183,214)" stroke="none" paint-order="stroke" d="M 405.1478271484375 293.0767517089844 L 403.92034912109375 302.0786437988281 L 388.93255615234375 299.23919677734375 L 388.7892150878906 289.97760009765625 L 405.1478271484375 293.0767517089844 Z" fill-opacity="1" fill-rule="evenodd" clip-path="url(#TrqZgrTnBxhX)"/><path fill="none" stroke="rgb(0,0,0)" paint-order="fill" d="M 405.1478271484375 293.0767517089844 L 403.92034912109375 302.0786437988281 L 388.93255615234375 299.23919677734375 L 388.7892150878906 289.97760009765625 L 405.1478271484375 293.0767517089844 Z" stroke-opacity="1" stroke-linejoin="bevel" stroke-miterlimit="10" stroke-dasharray="" clip-path="url(#TrqZgrTnBxhX)"/><path fill="rgb(213,165,204)" stroke="none" paint-order="stroke" d="M 388.7892150878906 289.97760009765625 L 388.8189697265625 291.9007263183594 L 372.481201171875 291.4508972167969 L 372.1621398925781 289.5198059082031 L 388.7892150878906 289.97760009765625 Z" fill-opacity="1" fill-rule="evenodd" clip-path="url(#TrqZgrTnBxhX)"/><path fill="none" stroke="rgb(0,0,0)" paint-order="fill" d="M 388.7892150878906 289.97760009765625 L 388.8189697265625 291.9007263183594 L 372.481201171875 291.4508972167969 L 372.1621398925781 289.5198059082031 L 388.7892150878906 289.97760009765625 Z" stroke-opacity="1" stroke-linejoin="bevel" stroke-miterlimit="10" stroke-dasharray="" clip-path="url(#TrqZgrTnBxhX)"/><path fill="rgb(205,147,193)" stroke="none" paint-order="stroke" d="M 372.1621398925781 289.5198059082031 L 371.8280029296875 287.49774169921875 L 355.02801513671875 289.68231201171875 L 355.66278076171875 291.6653137207031 L 372.1621398925781 289.5198059082031 Z" fill-opacity="1" fill-rule="evenodd" clip-path="url(#TrqZgrTnBxhX)"/><path fill="none" stroke="rgb(0,0,0)" paint-order="fill" d="M 372.1621398925781 289.5198059082031 L 371.8280029296875 287.49774169921875 L 355.02801513671875 289.68231201171875 L 355.66278076171875 291.6653137207031 L 372.1621398925781 289.5198059082031 Z" stroke-opacity="1" stroke-linejoin="bevel" stroke-miterlimit="10" stroke-dasharray="" clip-path="url(#TrqZgrTnBxhX)"/><path fill="rgb(213,165,204)" stroke="none" paint-order="stroke" d="M 355.66278076171875 291.6653137207031 L 356.320556640625 293.72027587890625 L 340.6231689453125 298.28607177734375 L 339.6632995605469 296.3189697265625 L 355.66278076171875 291.6653137207031 Z" fill-opacity="1" fill-rule="evenodd" clip-path="url(#TrqZgrTnBxhX)"/><path fill="none" stroke="rgb(0,0,0)" paint-order="fill" d="M 355.66278076171875 291.6653137207031 L 356.320556640625 293.72027587890625 L 340.6231689453125 298.28607177734375 L 339.6632995605469 296.3189697265625 L 355.66278076171875 291.6653137207031 Z" stroke-opacity="1" stroke-linejoin="bevel" stroke-miterlimit="10" stroke-dasharray="" clip-path="url(#TrqZgrTnBxhX)"/><path fill="rgb(221,183,214)" stroke="none" paint-order="stroke" d="M 339.6632995605469 296.3189697265625 L 343.85931396484375 304.91796875 L 329.9528503417969 311.35546875 L 324.5057678222656 303.3356018066406 L 339.6632995605469 296.3189697265625 Z" fill-opacity="1" fill-rule="evenodd" clip-path="url(#TrqZgrTnBxhX)"/><path fill="none" stroke="rgb(0,0,0)" paint-order="fill" d="M 339.6632995605469 296.3189697265625 L 343.85931396484375 304.91796875 L 329.9528503417969 311.35546875 L 324.5057678222656 303.3356018066406 L 339.6632995605469 296.3189697265625 Z" stroke-opacity="1" stroke-linejoin="bevel" stroke-miterlimit="10" stroke-dasharray="" clip-path="url(#TrqZgrTnBxhX)"/><path fill="rgb(213,165,204)" stroke="none" paint-order="stroke" d="M 324.5057678222656 303.3356018066406 L 326.0433044433594 305.599365234375 L 312.361328125 314.5768127441406 L 310.4974060058594 312.5272216796875 L 324.5057678222656 303.3356018066406 Z" fill-opacity="1" fill-rule="evenodd" clip-path="url(#TrqZgrTnBxhX)"/><path fill="none" stroke="rgb(0,0,0)" paint-order="fill" d="M 324.5057678222656 303.3356018066406 L 326.0433044433594 305.599365234375 L 312.361328125 314.5768127441406 L 310.4974060058594 312.5272216796875 L 324.5057678222656 303.3356018066406 Z" stroke-opacity="1" stroke-linejoin="bevel" stroke-miterlimit="10" stroke-dasharray="" clip-path="url(#TrqZgrTnBxhX)"/><path fill="rgb(213,165,204)" stroke="none" paint-order="stroke" d="M 310.4974060058594 312.5272216796875 L 314.7932434082031 317.25103759765625 L 302.8789367675781 327.795654296875 L 297.9070129394531 323.670166015625 L 310.4974060058594 312.5272216796875 Z" fill-opacity="1" fill-rule="evenodd" clip-path="url(#TrqZgrTnBxhX)"/><path fill="none" stroke="rgb(0,0,0)" paint-order="fill" d="M 310.4974060058594 312.5272216796875 L 314.7932434082031 317.25103759765625 L 302.8789367675781 327.795654296875 L 297.9070129394531 323.670166015625 L 310.4974060058594 312.5272216796875 Z" stroke-opacity="1" stroke-linejoin="bevel" stroke-miterlimit="10" stroke-dasharray="" clip-path="url(#TrqZgrTnBxhX)"/><path fill="rgb(221,183,214)" stroke="none" paint-order="stroke" d="M 297.9070129394531 323.670166015625 L 307.27880859375 331.4465026855469 L 297.4422912597656 342.9890441894531 L 286.9627685546875 336.5125732421875 L 297.9070129394531 323.670166015625 Z" fill-opacity="1" fill-rule="evenodd" clip-path="url(#TrqZgrTnBxhX)"/><path fill="none" stroke="rgb(0,0,0)" paint-order="fill" d="M 297.9070129394531 323.670166015625 L 307.27880859375 331.4465026855469 L 297.4422912597656 342.9890441894531 L 286.9627685546875 336.5125732421875 L 297.9070129394531 323.670166015625 Z" stroke-opacity="1" stroke-linejoin="bevel" stroke-miterlimit="10" stroke-dasharray="" clip-path="url(#TrqZgrTnBxhX)"/><path fill="rgb(221,183,214)" stroke="none" paint-order="stroke" d="M 286.9627685546875 336.5125732421875 L 297.2610778808594 342.8770751953125 L 289.05535888671875 355.72637939453125 L 277.8507080078125 350.7810974121094 L 286.9627685546875 336.5125732421875 Z" fill-opacity="1" fill-rule="evenodd" clip-path="url(#TrqZgrTnBxhX)"/><path fill="none" stroke="rgb(0,0,0)" paint-order="fill" d="M 286.9627685546875 336.5125732421875 L 297.2610778808594 342.8770751953125 L 289.05535888671875 355.72637939453125 L 277.8507080078125 350.7810974121094 L 286.9627685546875 336.5125732421875 Z" stroke-opacity="1" stroke-linejoin="bevel" stroke-miterlimit="10" stroke-dasharray="" clip-path="url(#TrqZgrTnBxhX)"/><path fill="rgb(221,183,214)" stroke="none" paint-order="stroke" d="M 277.8507080078125 350.7810974121094 L 286.54681396484375 354.61920166015625 L 279.96142578125 368.8365478515625 L 270.71441650390625 366.1877746582031 L 277.8507080078125 350.7810974121094 Z" fill-opacity="1" fill-rule="evenodd" clip-path="url(#TrqZgrTnBxhX)"/><path fill="none" stroke="rgb(0,0,0)" paint-order="fill" d="M 277.8507080078125 350.7810974121094 L 286.54681396484375 354.61920166015625 L 279.96142578125 368.8365478515625 L 270.71441650390625 366.1877746582031 L 277.8507080078125 350.7810974121094 Z" stroke-opacity="1" stroke-linejoin="bevel" stroke-miterlimit="10" stroke-dasharray="" clip-path="url(#TrqZgrTnBxhX)"/><path fill="rgb(221,183,214)" stroke="none" paint-order="stroke" d="M 270.71441650390625 366.1877746582031 L 279.6497802734375 368.7472839355469 L 274.96820068359375 383.78369140625 L 265.6554870605469 382.43621826171875 L 270.71441650390625 366.1877746582031 Z" fill-opacity="1" fill-rule="evenodd" clip-path="url(#TrqZgrTnBxhX)"/><path fill="none" stroke="rgb(0,0,0)" paint-order="fill" d="M 270.71441650390625 366.1877746582031 L 279.6497802734375 368.7472839355469 L 274.96820068359375 383.78369140625 L 265.6554870605469 382.43621826171875 L 270.71441650390625 366.1877746582031 Z" stroke-opacity="1" stroke-linejoin="bevel" stroke-miterlimit="10" stroke-dasharray="" clip-path="url(#TrqZgrTnBxhX)"/><path fill="rgb(221,183,214)" stroke="none" paint-order="stroke" d="M 265.6554870605469 382.43621826171875 L 275.4988098144531 383.8604736328125 L 272.8081359863281 399.32781982421875 L 262.7345275878906 399.2275085449219 L 265.6554870605469 382.43621826171875 Z" fill-opacity="1" fill-rule="evenodd" clip-path="url(#TrqZgrTnBxhX)"/><path fill="none" stroke="rgb(0,0,0)" paint-order="fill" d="M 265.6554870605469 382.43621826171875 L 275.4988098144531 383.8604736328125 L 272.8081359863281 399.32781982421875 L 262.7345275878906 399.2275085449219 L 265.6554870605469 382.43621826171875 Z" stroke-opacity="1" stroke-linejoin="bevel" stroke-miterlimit="10" stroke-dasharray="" clip-path="url(#TrqZgrTnBxhX)"/><path fill="rgb(221,183,214)" stroke="none" paint-order="stroke" d="M 262.7345275878906 399.2275085449219 L 272.3929138183594 399.3236999511719 L 271.6888732910156 415.0736083984375 L 261.9729309082031 416.265380859375 L 262.7345275878906 399.2275085449219 Z" fill-opacity="1" fill-rule="evenodd" clip-path="url(#TrqZgrTnBxhX)"/><path fill="none" stroke="rgb(0,0,0)" paint-order="fill" d="M 262.7345275878906 399.2275085449219 L 272.3929138183594 399.3236999511719 L 271.6888732910156 415.0736083984375 L 261.9729309082031 416.265380859375 L 262.7345275878906 399.2275085449219 Z" stroke-opacity="1" stroke-linejoin="bevel" stroke-miterlimit="10" stroke-dasharray="" clip-path="url(#TrqZgrTnBxhX)"/><path fill="rgb(213,165,204)" stroke="none" paint-order="stroke" d="M 261.9729309082031 416.265380859375 L 262.7597961425781 416.1688537597656 L 264.13348388671875 433.060546875 L 263.35504150390625 433.2611083984375 L 261.9729309082031 416.265380859375 Z" fill-opacity="1" fill-rule="evenodd" clip-path="url(#TrqZgrTnBxhX)"/><path fill="none" stroke="rgb(0,0,0)" paint-order="fill" d="M 261.9729309082031 416.265380859375 L 262.7597961425781 416.1688537597656 L 264.13348388671875 433.060546875 L 263.35504150390625 433.2611083984375 L 261.9729309082031 416.265380859375 Z" stroke-opacity="1" stroke-linejoin="bevel" stroke-miterlimit="10" stroke-dasharray="" clip-path="url(#TrqZgrTnBxhX)"/><path fill="rgb(213,165,204)" stroke="none" paint-order="stroke" d="M 263.35504150390625 433.2611083984375 L 267.5086975097656 432.19085693359375 L 270.8709716796875 448.3227233886719 L 266.83087158203125 449.9377746582031 L 263.35504150390625 433.2611083984375 Z" fill-opacity="1" fill-rule="evenodd" clip-path="url(#TrqZgrTnBxhX)"/><path fill="none" stroke="rgb(0,0,0)" paint-order="fill" d="M 263.35504150390625 433.2611083984375 L 267.5086975097656 432.19085693359375 L 270.8709716796875 448.3227233886719 L 266.83087158203125 449.9377746582031 L 263.35504150390625 433.2611083984375 Z" stroke-opacity="1" stroke-linejoin="bevel" stroke-miterlimit="10" stroke-dasharray="" clip-path="url(#TrqZgrTnBxhX)"/><path fill="rgb(221,183,214)" stroke="none" paint-order="stroke" d="M 266.83087158203125 449.9377746582031 L 274.2020263671875 446.9910888671875 L 279.36297607421875 462.12774658203125 L 272.31890869140625 466.0338134765625 L 266.83087158203125 449.9377746582031 Z" fill-opacity="1" fill-rule="evenodd" clip-path="url(#TrqZgrTnBxhX)"/><path fill="none" stroke="rgb(0,0,0)" paint-order="fill" d="M 266.83087158203125 449.9377746582031 L 274.2020263671875 446.9910888671875 L 279.36297607421875 462.12774658203125 L 272.31890869140625 466.0338134765625 L 266.83087158203125 449.9377746582031 Z" stroke-opacity="1" stroke-linejoin="bevel" stroke-miterlimit="10" stroke-dasharray="" clip-path="url(#TrqZgrTnBxhX)"/><path fill="rgb(221,183,214)" stroke="none" paint-order="stroke" d="M 272.31890869140625 466.0338134765625 L 281.1849365234375 461.117431640625 L 288.0209655761719 475.244140625 L 279.7093811035156 481.3062744140625 L 272.31890869140625 466.0338134765625 Z" fill-opacity="1" fill-rule="evenodd" clip-path="url(#TrqZgrTnBxhX)"/><path fill="none" stroke="rgb(0,0,0)" paint-order="fill" d="M 272.31890869140625 466.0338134765625 L 281.1849365234375 461.117431640625 L 288.0209655761719 475.244140625 L 279.7093811035156 481.3062744140625 L 272.31890869140625 466.0338134765625 Z" stroke-opacity="1" stroke-linejoin="bevel" stroke-miterlimit="10" stroke-dasharray="" clip-path="url(#TrqZgrTnBxhX)"/><path fill="rgb(221,183,214)" stroke="none" paint-order="stroke" d="M 279.7093811035156 481.3062744140625 L 288.10711669921875 475.1813049316406 L 296.5711364746094 488.3299560546875 L 288.8675537109375 495.5332946777344 L 279.7093811035156 481.3062744140625 Z" fill-opacity="1" fill-rule="evenodd" clip-path="url(#TrqZgrTnBxhX)"/><path fill="none" stroke="rgb(0,0,0)" paint-order="fill" d="M 279.7093811035156 481.3062744140625 L 288.10711669921875 475.1813049316406 L 296.5711364746094 488.3299560546875 L 288.8675537109375 495.5332946777344 L 279.7093811035156 481.3062744140625 Z" stroke-opacity="1" stroke-linejoin="bevel" stroke-miterlimit="10" stroke-dasharray="" clip-path="url(#TrqZgrTnBxhX)"/><path fill="rgb(213,165,204)" stroke="none" paint-order="stroke" d="M 288.8675537109375 495.5332946777344 L 293.23138427734375 491.4528503417969 L 303.5386047363281 503.87835693359375 L 299.63720703125 508.5162658691406 L 288.8675537109375 495.5332946777344 Z" fill-opacity="1" fill-rule="evenodd" clip-path="url(#TrqZgrTnBxhX)"/><path fill="none" stroke="rgb(0,0,0)" paint-order="fill" d="M 288.8675537109375 495.5332946777344 L 293.23138427734375 491.4528503417969 L 303.5386047363281 503.87835693359375 L 299.63720703125 508.5162658691406 L 288.8675537109375 495.5332946777344 Z" stroke-opacity="1" stroke-linejoin="bevel" stroke-miterlimit="10" stroke-dasharray="" clip-path="url(#TrqZgrTnBxhX)"/><path fill="rgb(230,201,224)" stroke="none" paint-order="stroke" d="M 299.63720703125 508.5162658691406 L 309.7921447753906 496.4442138671875 L 320.6347961425781 506.7167053222656 L 311.8441162109375 520.0812377929688 L 299.63720703125 508.5162658691406 Z" fill-opacity="1" fill-rule="evenodd" clip-path="url(#TrqZgrTnBxhX)"/><path fill="none" stroke="rgb(0,0,0)" paint-order="fill" d="M 299.63720703125 508.5162658691406 L 309.7921447753906 496.4442138671875 L 320.6347961425781 506.7167053222656 L 311.8441162109375 520.0812377929688 L 299.63720703125 508.5162658691406 Z" stroke-opacity="1" stroke-linejoin="bevel" stroke-miterlimit="10" stroke-dasharray="" clip-path="url(#TrqZgrTnBxhX)"/><path fill="rgb(213,165,204)" stroke="none" paint-order="stroke" d="M 311.8441162109375 520.0812377929688 L 315.0742492675781 515.17041015625 L 327.9769592285156 524.7588500976562 L 325.2994079589844 530.080322265625 L 311.8441162109375 520.0812377929688 Z" fill-opacity="1" fill-rule="evenodd" clip-path="url(#TrqZgrTnBxhX)"/><path fill="none" stroke="rgb(0,0,0)" paint-order="fill" d="M 311.8441162109375 520.0812377929688 L 315.0742492675781 515.17041015625 L 327.9769592285156 524.7588500976562 L 325.2994079589844 530.080322265625 L 311.8441162109375 520.0812377929688 Z" stroke-opacity="1" stroke-linejoin="bevel" stroke-miterlimit="10" stroke-dasharray="" clip-path="url(#TrqZgrTnBxhX)"/><path fill="rgb(213,165,204)" stroke="none" paint-order="stroke" d="M 325.2994079589844 530.080322265625 L 328.05242919921875 524.60888671875 L 341.9437561035156 532.5694580078125 L 339.8031311035156 538.391845703125 L 325.2994079589844 530.080322265625 Z" fill-opacity="1" fill-rule="evenodd" clip-path="url(#TrqZgrTnBxhX)"/><path fill="none" stroke="rgb(0,0,0)" paint-order="fill" d="M 325.2994079589844 530.080322265625 L 328.05242919921875 524.60888671875 L 341.9437561035156 532.5694580078125 L 339.8031311035156 538.391845703125 L 325.2994079589844 530.080322265625 Z" stroke-opacity="1" stroke-linejoin="bevel" stroke-miterlimit="10" stroke-dasharray="" clip-path="url(#TrqZgrTnBxhX)"/><path fill="rgb(213,165,204)" stroke="none" paint-order="stroke" d="M 339.8031311035156 538.391845703125 L 342.1986389160156 531.876220703125 L 356.8179626464844 538.0969848632812 L 355.1474609375 544.921142578125 L 339.8031311035156 538.391845703125 Z" fill-opacity="1" fill-rule="evenodd" clip-path="url(#TrqZgrTnBxhX)"/><path fill="none" stroke="rgb(0,0,0)" paint-order="fill" d="M 339.8031311035156 538.391845703125 L 342.1986389160156 531.876220703125 L 356.8179626464844 538.0969848632812 L 355.1474609375 544.921142578125 L 339.8031311035156 538.391845703125 Z" stroke-opacity="1" stroke-linejoin="bevel" stroke-miterlimit="10" stroke-dasharray="" clip-path="url(#TrqZgrTnBxhX)"/><path fill="rgb(221,183,214)" stroke="none" paint-order="stroke" d="M 355.1474609375 544.921142578125 L 357.843505859375 533.9074096679688 L 372.5978698730469 538.2294921875 L 371.11993408203125 549.60009765625 L 355.1474609375 544.921142578125 Z" fill-opacity="1" fill-rule="evenodd" clip-path="url(#TrqZgrTnBxhX)"/><path fill="none" stroke="rgb(0,0,0)" paint-order="fill" d="M 355.1474609375 544.921142578125 L 357.843505859375 533.9074096679688 L 372.5978698730469 538.2294921875 L 371.11993408203125 549.60009765625 L 355.1474609375 544.921142578125 Z" stroke-opacity="1" stroke-linejoin="bevel" stroke-miterlimit="10" stroke-dasharray="" clip-path="url(#TrqZgrTnBxhX)"/><path fill="rgb(205,147,193)" stroke="none" paint-order="stroke" d="M 371.11993408203125 549.60009765625 L 370.7572937011719 552.389892578125 L 387.4502868652344 555.228515625 L 387.50628662109375 552.3865966796875 L 371.11993408203125 549.60009765625 Z" fill-opacity="1" fill-rule="evenodd" clip-path="url(#TrqZgrTnBxhX)"/><path fill="none" stroke="rgb(0,0,0)" paint-order="fill" d="M 371.11993408203125 549.60009765625 L 370.7572937011719 552.389892578125 L 387.4502868652344 555.228515625 L 387.50628662109375 552.3865966796875 L 371.11993408203125 549.60009765625 Z" stroke-opacity="1" stroke-linejoin="bevel" stroke-miterlimit="10" stroke-dasharray="" clip-path="url(#TrqZgrTnBxhX)"/><path fill="rgb(213,165,204)" stroke="none" paint-order="stroke" d="M 387.50628662109375 552.3865966796875 L 387.6254577636719 546.34033203125 L 403.5523681640625 547.1829223632812 L 404.093505859375 553.2640991210938 L 387.50628662109375 552.3865966796875 Z" fill-opacity="1" fill-rule="evenodd" clip-path="url(#TrqZgrTnBxhX)"/><path fill="none" stroke="rgb(0,0,0)" paint-order="fill" d="M 387.50628662109375 552.3865966796875 L 387.6254577636719 546.34033203125 L 403.5523681640625 547.1829223632812 L 404.093505859375 553.2640991210938 L 387.50628662109375 552.3865966796875 Z" stroke-opacity="1" stroke-linejoin="bevel" stroke-miterlimit="10" stroke-dasharray="" clip-path="url(#TrqZgrTnBxhX)"/><path fill="rgb(213,165,204)" stroke="none" paint-order="stroke" d="M 404.093505859375 553.2640991210938 L 403.4905700683594 546.4884033203125 L 419.333984375 545.5100708007812 L 420.6722106933594 552.2402954101562 L 404.093505859375 553.2640991210938 Z" fill-opacity="1" fill-rule="evenodd" clip-path="url(#TrqZgrTnBxhX)"/><path fill="none" stroke="rgb(0,0,0)" paint-order="fill" d="M 404.093505859375 553.2640991210938 L 403.4905700683594 546.4884033203125 L 419.333984375 545.5100708007812 L 420.6722106933594 552.2402954101562 L 404.093505859375 553.2640991210938 Z" stroke-opacity="1" stroke-linejoin="bevel" stroke-miterlimit="10" stroke-dasharray="" clip-path="url(#TrqZgrTnBxhX)"/><path fill="rgb(221,183,214)" stroke="none" paint-order="stroke" d="M 420.6722106933594 552.2402954101562 L 417.7356872558594 537.4720458984375 L 432.5097961425781 534.8594970703125 L 437.0392761230469 549.3461303710938 L 420.6722106933594 552.2402954101562 Z" fill-opacity="1" fill-rule="evenodd" clip-path="url(#TrqZgrTnBxhX)"/><path fill="none" stroke="rgb(0,0,0)" paint-order="fill" d="M 420.6722106933594 552.2402954101562 L 417.7356872558594 537.4720458984375 L 432.5097961425781 534.8594970703125 L 437.0392761230469 549.3461303710938 L 420.6722106933594 552.2402954101562 Z" stroke-opacity="1" stroke-linejoin="bevel" stroke-miterlimit="10" stroke-dasharray="" clip-path="url(#TrqZgrTnBxhX)"/><path fill="rgb(221,183,214)" stroke="none" paint-order="stroke" d="M 437.0392761230469 549.3461303710938 L 433.6650695800781 538.554443359375 L 448.4683532714844 534.1838989257812 L 452.99969482421875 544.6339111328125 L 437.0392761230469 549.3461303710938 Z" fill-opacity="1" fill-rule="evenodd" clip-path="url(#TrqZgrTnBxhX)"/><path fill="none" stroke="rgb(0,0,0)" paint-order="fill" d="M 437.0392761230469 549.3461303710938 L 433.6650695800781 538.554443359375 L 448.4683532714844 534.1838989257812 L 452.99969482421875 544.6339111328125 L 437.0392761230469 549.3461303710938 Z" stroke-opacity="1" stroke-linejoin="bevel" stroke-miterlimit="10" stroke-dasharray="" clip-path="url(#TrqZgrTnBxhX)"/><path fill="rgb(213,165,204)" stroke="none" paint-order="stroke" d="M 452.99969482421875 544.6339111328125 L 449.8688049316406 537.41357421875 L 464.468017578125 531.2793579101562 L 468.36883544921875 538.1762084960938 L 452.99969482421875 544.6339111328125 Z" fill-opacity="1" fill-rule="evenodd" clip-path="url(#TrqZgrTnBxhX)"/><path fill="none" stroke="rgb(0,0,0)" paint-order="fill" d="M 452.99969482421875 544.6339111328125 L 449.8688049316406 537.41357421875 L 464.468017578125 531.2793579101562 L 468.36883544921875 538.1762084960938 L 452.99969482421875 544.6339111328125 Z" stroke-opacity="1" stroke-linejoin="bevel" stroke-miterlimit="10" stroke-dasharray="" clip-path="url(#TrqZgrTnBxhX)"/><path fill="rgb(213,165,204)" stroke="none" paint-order="stroke" d="M 468.36883544921875 538.1762084960938 L 465.8328857421875 533.6925048828125 L 479.96221923828125 525.84423828125 L 482.97381591796875 530.0636596679688 L 468.36883544921875 538.1762084960938 Z" fill-opacity="1" fill-rule="evenodd" clip-path="url(#TrqZgrTnBxhX)"/><path fill="none" stroke="rgb(0,0,0)" paint-order="fill" d="M 468.36883544921875 538.1762084960938 L 465.8328857421875 533.6925048828125 L 479.96221923828125 525.84423828125 L 482.97381591796875 530.0636596679688 L 468.36883544921875 538.1762084960938 Z" stroke-opacity="1" stroke-linejoin="bevel" stroke-miterlimit="10" stroke-dasharray="" clip-path="url(#TrqZgrTnBxhX)"/><path fill="rgb(213,165,204)" stroke="none" paint-order="stroke" d="M 482.97381591796875 530.0636596679688 L 478.2557373046875 523.4533081054688 L 491.239013671875 514.2860107421875 L 496.65509033203125 520.403564453125 L 482.97381591796875 530.0636596679688 Z" fill-opacity="1" fill-rule="evenodd" clip-path="url(#TrqZgrTnBxhX)"/><path fill="none" stroke="rgb(0,0,0)" paint-order="fill" d="M 482.97381591796875 530.0636596679688 L 478.2557373046875 523.4533081054688 L 491.239013671875 514.2860107421875 L 496.65509033203125 520.403564453125 L 482.97381591796875 530.0636596679688 Z" stroke-opacity="1" stroke-linejoin="bevel" stroke-miterlimit="10" stroke-dasharray="" clip-path="url(#TrqZgrTnBxhX)"/><path fill="rgb(213,165,204)" stroke="none" paint-order="stroke" d="M 496.65509033203125 520.403564453125 L 495.50390625 519.103271484375 L 507.9797668457031 508.1374206542969 L 509.26776123046875 509.3175048828125 L 496.65509033203125 520.403564453125 Z" fill-opacity="1" fill-rule="evenodd" clip-path="url(#TrqZgrTnBxhX)"/><path fill="none" stroke="rgb(0,0,0)" paint-order="fill" d="M 496.65509033203125 520.403564453125 L 495.50390625 519.103271484375 L 507.9797668457031 508.1374206542969 L 509.26776123046875 509.3175048828125 L 496.65509033203125 520.403564453125 Z" stroke-opacity="1" stroke-linejoin="bevel" stroke-miterlimit="10" stroke-dasharray="" clip-path="url(#TrqZgrTnBxhX)"/><path fill="rgb(221,183,214)" stroke="none" paint-order="stroke" d="M 509.26776123046875 509.3175048828125 L 500.9361877441406 501.6839599609375 L 511.5499267578125 490.1744384765625 L 520.6822509765625 496.939697265625 L 509.26776123046875 509.3175048828125 Z" fill-opacity="1" fill-rule="evenodd" clip-path="url(#TrqZgrTnBxhX)"/><path fill="none" stroke="rgb(0,0,0)" paint-order="fill" d="M 509.26776123046875 509.3175048828125 L 500.9361877441406 501.6839599609375 L 511.5499267578125 490.1744384765625 L 520.6822509765625 496.939697265625 L 509.26776123046875 509.3175048828125 Z" stroke-opacity="1" stroke-linejoin="bevel" stroke-miterlimit="10" stroke-dasharray="" clip-path="url(#TrqZgrTnBxhX)"/><path fill="rgb(213,165,204)" stroke="none" paint-order="stroke" d="M 520.6822509765625 496.939697265625 L 519.30419921875 495.9188537597656 L 529.3003540039062 482.5372314453125 L 530.7852783203125 483.4149169921875 L 520.6822509765625 496.939697265625 Z" fill-opacity="1" fill-rule="evenodd" clip-path="url(#TrqZgrTnBxhX)"/><path fill="none" stroke="rgb(0,0,0)" paint-order="fill" d="M 520.6822509765625 496.939697265625 L 519.30419921875 495.9188537597656 L 529.3003540039062 482.5372314453125 L 530.7852783203125 483.4149169921875 L 520.6822509765625 496.939697265625 Z" stroke-opacity="1" stroke-linejoin="bevel" stroke-miterlimit="10" stroke-dasharray="" clip-path="url(#TrqZgrTnBxhX)"/><path fill="rgb(213,165,204)" stroke="none" paint-order="stroke" d="M 530.7852783203125 483.4149169921875 L 528.9885864257812 482.3529968261719 L 537.5723876953125 468.0205383300781 L 539.48046875 468.8965148925781 L 530.7852783203125 483.4149169921875 Z" fill-opacity="1" fill-rule="evenodd" clip-path="url(#TrqZgrTnBxhX)"/><path fill="none" stroke="rgb(0,0,0)" paint-order="fill" d="M 530.7852783203125 483.4149169921875 L 528.9885864257812 482.3529968261719 L 537.5723876953125 468.0205383300781 L 539.48046875 468.8965148925781 L 530.7852783203125 483.4149169921875 Z" stroke-opacity="1" stroke-linejoin="bevel" stroke-miterlimit="10" stroke-dasharray="" clip-path="url(#TrqZgrTnBxhX)"/><path fill="rgb(221,183,214)" stroke="none" paint-order="stroke" d="M 539.48046875 468.8965148925781 L 527.6900024414062 463.4835510253906 L 534.327392578125 449.34649658203125 L 546.6882934570312 453.54449462890625 L 539.48046875 468.8965148925781 Z" fill-opacity="1" fill-rule="evenodd" clip-path="url(#TrqZgrTnBxhX)"/><path fill="none" stroke="rgb(0,0,0)" paint-order="fill" d="M 539.48046875 468.8965148925781 L 527.6900024414062 463.4835510253906 L 534.327392578125 449.34649658203125 L 546.6882934570312 453.54449462890625 L 539.48046875 468.8965148925781 Z" stroke-opacity="1" stroke-linejoin="bevel" stroke-miterlimit="10" stroke-dasharray="" clip-path="url(#TrqZgrTnBxhX)"/><path fill="rgb(213,165,204)" stroke="none" paint-order="stroke" d="M 546.6882934570312 453.54449462890625 L 541.46435546875 451.77032470703125 L 546.9334106445312 436.2851867675781 L 552.3466186523438 437.52349853515625 L 546.6882934570312 453.54449462890625 Z" fill-opacity="1" fill-rule="evenodd" clip-path="url(#TrqZgrTnBxhX)"/><path fill="none" stroke="rgb(0,0,0)" paint-order="fill" d="M 546.6882934570312 453.54449462890625 L 541.46435546875 451.77032470703125 L 546.9334106445312 436.2851867675781 L 552.3466186523438 437.52349853515625 L 546.6882934570312 453.54449462890625 Z" stroke-opacity="1" stroke-linejoin="bevel" stroke-miterlimit="10" stroke-dasharray="" clip-path="url(#TrqZgrTnBxhX)"/><path fill="rgb(205,147,193)" stroke="none" paint-order="stroke" d="M 552.3466186523438 437.52349853515625 L 552.765869140625 437.6194152832031 L 556.8402099609375 421.05426025390625 L 556.410400390625 421.0011291503906 L 552.3466186523438 437.52349853515625 Z" fill-opacity="1" fill-rule="evenodd" clip-path="url(#TrqZgrTnBxhX)"/><path fill="none" stroke="rgb(0,0,0)" paint-order="fill" d="M 552.3466186523438 437.52349853515625 L 552.765869140625 437.6194152832031 L 556.8402099609375 421.05426025390625 L 556.410400390625 421.0011291503906 L 552.3466186523438 437.52349853515625 Z" stroke-opacity="1" stroke-linejoin="bevel" stroke-miterlimit="10" stroke-dasharray="" clip-path="url(#TrqZgrTnBxhX)"/><path fill="rgb(213,165,204)" stroke="none" paint-order="stroke" d="M 556.410400390625 421.0011291503906 L 552.632568359375 420.5343017578125 L 555.0182495117188 404.0630187988281 L 558.8516845703125 404.1460266113281 L 556.410400390625 421.0011291503906 Z" fill-opacity="1" fill-rule="evenodd" clip-path="url(#TrqZgrTnBxhX)"/><path fill="none" stroke="rgb(0,0,0)" paint-order="fill" d="M 556.410400390625 421.0011291503906 L 552.632568359375 420.5343017578125 L 555.0182495117188 404.0630187988281 L 558.8516845703125 404.1460266113281 L 556.410400390625 421.0011291503906 Z" stroke-opacity="1" stroke-linejoin="bevel" stroke-miterlimit="10" stroke-dasharray="" clip-path="url(#TrqZgrTnBxhX)"/><path fill="rgb(221,183,214)" stroke="none" paint-order="stroke" d="M 558.8516845703125 404.1460266113281 L 546.2608032226562 403.87335205078125 L 547.0076293945312 388.12640380859375 L 559.6588745117188 387.1261901855469 L 558.8516845703125 404.1460266113281 Z" fill-opacity="1" fill-rule="evenodd" clip-path="url(#TrqZgrTnBxhX)"/><path fill="none" stroke="rgb(0,0,0)" paint-order="fill" d="M 558.8516845703125 404.1460266113281 L 546.2608032226562 403.87335205078125 L 547.0076293945312 388.12640380859375 L 559.6588745117188 387.1261901855469 L 558.8516845703125 404.1460266113281 Z" stroke-opacity="1" stroke-linejoin="bevel" stroke-miterlimit="10" stroke-dasharray="" clip-path="url(#TrqZgrTnBxhX)"/><path fill="rgb(230,201,224)" stroke="none" paint-order="stroke" d="M 559.6588745117188 387.1261901855469 L 537.4110107421875 388.8851318359375 L 536.6968994140625 374.1047058105469 L 558.8366088867188 370.1074523925781 L 559.6588745117188 387.1261901855469 Z" fill-opacity="1" fill-rule="evenodd" clip-path="url(#TrqZgrTnBxhX)"/><path fill="none" stroke="rgb(0,0,0)" paint-order="fill" d="M 559.6588745117188 387.1261901855469 L 537.4110107421875 388.8851318359375 L 536.6968994140625 374.1047058105469 L 558.8366088867188 370.1074523925781 L 559.6588745117188 387.1261901855469 Z" stroke-opacity="1" stroke-linejoin="bevel" stroke-miterlimit="10" stroke-dasharray="" clip-path="url(#TrqZgrTnBxhX)"/><path fill="rgb(213,165,204)" stroke="none" paint-order="stroke" d="M 558.8366088867188 370.1074523925781 L 552.2539672851562 371.2959289550781 L 549.9172973632812 355.0994567871094 L 556.40478515625 353.25189208984375 L 558.8366088867188 370.1074523925781 Z" fill-opacity="1" fill-rule="evenodd" clip-path="url(#TrqZgrTnBxhX)"/><path fill="none" stroke="rgb(0,0,0)" paint-order="fill" d="M 558.8366088867188 370.1074523925781 L 552.2539672851562 371.2959289550781 L 549.9172973632812 355.0994567871094 L 556.40478515625 353.25189208984375 L 558.8366088867188 370.1074523925781 Z" stroke-opacity="1" stroke-linejoin="bevel" stroke-miterlimit="10" stroke-dasharray="" clip-path="url(#TrqZgrTnBxhX)"/><path fill="rgb(213,165,204)" stroke="none" paint-order="stroke" d="M 556.40478515625 353.25189208984375 L 550.5947265625 354.9065246582031 L 546.7283935546875 338.9501953125 L 552.3981323242188 336.71649169921875 L 556.40478515625 353.25189208984375 Z" fill-opacity="1" fill-rule="evenodd" clip-path="url(#TrqZgrTnBxhX)"/><path fill="none" stroke="rgb(0,0,0)" paint-order="fill" d="M 556.40478515625 353.25189208984375 L 550.5947265625 354.9065246582031 L 546.7283935546875 338.9501953125 L 552.3981323242188 336.71649169921875 L 556.40478515625 353.25189208984375 Z" stroke-opacity="1" stroke-linejoin="bevel" stroke-miterlimit="10" stroke-dasharray="" clip-path="url(#TrqZgrTnBxhX)"/><path fill="rgb(221,183,214)" stroke="none" paint-order="stroke" d="M 552.3981323242188 336.71649169921875 L 540.369384765625 341.4554748535156 L 535.2474365234375 326.5844421386719 L 546.8651123046875 320.65185546875 L 552.3981323242188 336.71649169921875 Z" fill-opacity="1" fill-rule="evenodd" clip-path="url(#TrqZgrTnBxhX)"/><path fill="none" stroke="rgb(0,0,0)" paint-order="fill" d="M 552.3981323242188 336.71649169921875 L 540.369384765625 341.4554748535156 L 535.2474365234375 326.5844421386719 L 546.8651123046875 320.65185546875 L 552.3981323242188 336.71649169921875 Z" stroke-opacity="1" stroke-linejoin="bevel" stroke-miterlimit="10" stroke-dasharray="" clip-path="url(#TrqZgrTnBxhX)"/><path fill="rgb(197,129,183)" stroke="none" paint-order="stroke" d="M 546.8651123046875 320.65185546875 L 559.7649536132812 314.0645446777344 L 552.1895751953125 297.33917236328125 L 539.8670654296875 305.2011413574219 L 546.8651123046875 320.65185546875 Z" fill-opacity="1" fill-rule="evenodd" clip-path="url(#TrqZgrTnBxhX)"/><path fill="none" stroke="rgb(0,0,0)" paint-order="fill" d="M 546.8651123046875 320.65185546875 L 559.7649536132812 314.0645446777344 L 552.1895751953125 297.33917236328125 L 539.8670654296875 305.2011413574219 L 546.8651123046875 320.65185546875 Z" stroke-opacity="1" stroke-linejoin="bevel" stroke-miterlimit="10" stroke-dasharray="" clip-path="url(#TrqZgrTnBxhX)"/><path fill="rgb(213,165,204)" stroke="none" paint-order="stroke" d="M 539.8670654296875 305.2011413574219 L 538.4560546875 306.10137939453125 L 530.1454467773438 291.5379943847656 L 531.4772338867188 290.4988708496094 L 539.8670654296875 305.2011413574219 Z" fill-opacity="1" fill-rule="evenodd" clip-path="url(#TrqZgrTnBxhX)"/><path fill="none" stroke="rgb(0,0,0)" paint-order="fill" d="M 539.8670654296875 305.2011413574219 L 538.4560546875 306.10137939453125 L 530.1454467773438 291.5379943847656 L 531.4772338867188 290.4988708496094 L 539.8670654296875 305.2011413574219 Z" stroke-opacity="1" stroke-linejoin="bevel" stroke-miterlimit="10" stroke-dasharray="" clip-path="url(#TrqZgrTnBxhX)"/><path fill="rgb(213,165,204)" stroke="none" paint-order="stroke" d="M 531.4772338867188 290.4988708496094 L 530.0227661132812 291.6337585449219 L 520.4251708984375 277.94775390625 L 521.7796020507812 276.6702575683594 L 531.4772338867188 290.4988708496094 Z" fill-opacity="1" fill-rule="evenodd" clip-path="url(#TrqZgrTnBxhX)"/><path fill="none" stroke="rgb(0,0,0)" paint-order="fill" d="M 531.4772338867188 290.4988708496094 L 530.0227661132812 291.6337585449219 L 520.4251708984375 277.94775390625 L 521.7796020507812 276.6702575683594 L 531.4772338867188 290.4988708496094 Z" stroke-opacity="1" stroke-linejoin="bevel" stroke-miterlimit="10" stroke-dasharray="" clip-path="url(#TrqZgrTnBxhX)"/><path fill="rgb(221,183,214)" stroke="none" paint-order="stroke" d="M 521.7796020507812 276.6702575683594 L 510.0978698730469 287.6890563964844 L 500.15716552734375 275.9914855957031 L 510.867919921875 263.83013916015625 L 521.7796020507812 276.6702575683594 Z" fill-opacity="1" fill-rule="evenodd" clip-path="url(#TrqZgrTnBxhX)"/><path fill="none" stroke="rgb(0,0,0)" paint-order="fill" d="M 521.7796020507812 276.6702575683594 L 510.0978698730469 287.6890563964844 L 500.15716552734375 275.9914855957031 L 510.867919921875 263.83013916015625 L 521.7796020507812 276.6702575683594 Z" stroke-opacity="1" stroke-linejoin="bevel" stroke-miterlimit="10" stroke-dasharray="" clip-path="url(#TrqZgrTnBxhX)"/><path fill="rgb(205,147,193)" stroke="none" paint-order="stroke" d="M 510.867919921875 263.83013916015625 L 513.051025390625 261.35137939453125 L 500.80963134765625 249.39083862304688 L 498.8445739746094 252.08267211914062 L 510.867919921875 263.83013916015625 Z" fill-opacity="1" fill-rule="evenodd" clip-path="url(#TrqZgrTnBxhX)"/><path fill="none" stroke="rgb(0,0,0)" paint-order="fill" d="M 510.867919921875 263.83013916015625 L 513.051025390625 261.35137939453125 L 500.80963134765625 249.39083862304688 L 498.8445739746094 252.08267211914062 L 510.867919921875 263.83013916015625 Z" stroke-opacity="1" stroke-linejoin="bevel" stroke-miterlimit="10" stroke-dasharray="" clip-path="url(#TrqZgrTnBxhX)"/><path fill="rgb(205,147,193)" stroke="none" paint-order="stroke" d="M 498.8445739746094 252.08267211914062 L 502.30035400390625 247.34872436523438 L 488.859619140625 236.44969177246094 L 485.81927490234375 241.52053833007812 L 498.8445739746094 252.08267211914062 Z" fill-opacity="1" fill-rule="evenodd" clip-path="url(#TrqZgrTnBxhX)"/><path fill="none" stroke="rgb(0,0,0)" paint-order="fill" d="M 498.8445739746094 252.08267211914062 L 502.30035400390625 247.34872436523438 L 488.859619140625 236.44969177246094 L 485.81927490234375 241.52053833007812 L 498.8445739746094 252.08267211914062 Z" stroke-opacity="1" stroke-linejoin="bevel" stroke-miterlimit="10" stroke-dasharray="" clip-path="url(#TrqZgrTnBxhX)"/><path fill="rgb(213,165,204)" stroke="none" paint-order="stroke" d="M 485.81927490234375 241.52053833007812 L 484.40167236328125 243.8849334716797 L 470.69732666015625 234.727294921875 L 471.9080505371094 232.2246551513672 L 485.81927490234375 241.52053833007812 Z" fill-opacity="1" fill-rule="evenodd" clip-path="url(#TrqZgrTnBxhX)"/><path fill="none" stroke="rgb(0,0,0)" paint-order="fill" d="M 485.81927490234375 241.52053833007812 L 484.40167236328125 243.8849334716797 L 470.69732666015625 234.727294921875 L 471.9080505371094 232.2246551513672 L 485.81927490234375 241.52053833007812 Z" stroke-opacity="1" stroke-linejoin="bevel" stroke-miterlimit="10" stroke-dasharray="" clip-path="url(#TrqZgrTnBxhX)"/><path fill="rgb(205,147,193)" stroke="none" paint-order="stroke" d="M 471.9080505371094 232.2246551513672 L 472.1144104003906 231.79806518554688 L 457.401123046875 223.81710815429688 L 457.23193359375 224.2638702392578 L 471.9080505371094 232.2246551513672 Z" fill-opacity="1" fill-rule="evenodd" clip-path="url(#TrqZgrTnBxhX)"/><path fill="none" stroke="rgb(0,0,0)" paint-order="fill" d="M 471.9080505371094 232.2246551513672 L 472.1144104003906 231.79806518554688 L 457.401123046875 223.81710815429688 L 457.23193359375 224.2638702392578 L 471.9080505371094 232.2246551513672 Z" stroke-opacity="1" stroke-linejoin="bevel" stroke-miterlimit="10" stroke-dasharray="" clip-path="url(#TrqZgrTnBxhX)"/><path fill="rgb(213,165,204)" stroke="none" paint-order="stroke" d="M 457.23193359375 224.2638702392578 L 454.16461181640625 232.3645477294922 L 439.55267333984375 226.09742736816406 L 441.9159851074219 217.69479370117188 L 457.23193359375 224.2638702392578 Z" fill-opacity="1" fill-rule="evenodd" clip-path="url(#TrqZgrTnBxhX)"/><path fill="none" stroke="rgb(0,0,0)" paint-order="fill" d="M 457.23193359375 224.2638702392578 L 454.16461181640625 232.3645477294922 L 439.55267333984375 226.09742736816406 L 441.9159851074219 217.69479370117188 L 457.23193359375 224.2638702392578 Z" stroke-opacity="1" stroke-linejoin="bevel" stroke-miterlimit="10" stroke-dasharray="" clip-path="url(#TrqZgrTnBxhX)"/><path fill="rgb(213,165,204)" stroke="none" paint-order="stroke" d="M 441.9159851074219 217.69479370117188 L 441.25604248046875 220.04115295410156 L 425.6312561035156 214.9739532470703 L 426.0880432128906 212.56170654296875 L 441.9159851074219 217.69479370117188 Z" fill-opacity="1" fill-rule="evenodd" clip-path="url(#TrqZgrTnBxhX)"/><path fill="none" stroke="rgb(0,0,0)" paint-order="fill" d="M 441.9159851074219 217.69479370117188 L 441.25604248046875 220.04115295410156 L 425.6312561035156 214.9739532470703 L 426.0880432128906 212.56170654296875 L 441.9159851074219 217.69479370117188 Z" stroke-opacity="1" stroke-linejoin="bevel" stroke-miterlimit="10" stroke-dasharray="" clip-path="url(#TrqZgrTnBxhX)"/><path fill="rgb(197,129,183)" stroke="none" paint-order="stroke" d="M 426.0880432128906 212.56170654296875 L 428.8858947753906 197.7863006591797 L 411.4010009765625 193.8330535888672 L 409.8775634765625 208.8966064453125 L 426.0880432128906 212.56170654296875 Z" fill-opacity="1" fill-rule="evenodd" clip-path="url(#TrqZgrTnBxhX)"/><path fill="none" stroke="rgb(0,0,0)" paint-order="fill" d="M 426.0880432128906 212.56170654296875 L 428.8858947753906 197.7863006591797 L 411.4010009765625 193.8330535888672 L 409.8775634765625 208.8966064453125 L 426.0880432128906 212.56170654296875 Z" stroke-opacity="1" stroke-linejoin="bevel" stroke-miterlimit="10" stroke-dasharray="" clip-path="url(#TrqZgrTnBxhX)"/><path fill="rgb(213,165,204)" stroke="none" paint-order="stroke" d="M 409.8775634765625 208.8966064453125 L 409.2021789550781 215.57472229003906 L 393.31317138671875 213.4733123779297 L 393.4147644042969 206.7193145751953 L 409.8775634765625 208.8966064453125 Z" fill-opacity="1" fill-rule="evenodd" clip-path="url(#TrqZgrTnBxhX)"/><path fill="none" stroke="rgb(0,0,0)" paint-order="fill" d="M 409.8775634765625 208.8966064453125 L 409.2021789550781 215.57472229003906 L 393.31317138671875 213.4733123779297 L 393.4147644042969 206.7193145751953 L 409.8775634765625 208.8966064453125 Z" stroke-opacity="1" stroke-linejoin="bevel" stroke-miterlimit="10" stroke-dasharray="" clip-path="url(#TrqZgrTnBxhX)"/><path fill="rgb(205,147,193)" stroke="none" paint-order="stroke" d="M 393.4147644042969 206.7193145751953 L 393.4721984863281 202.8997039794922 L 376.5598449707031 202.20468139648438 L 376.8293151855469 206.0377197265625 L 393.4147644042969 206.7193145751953 Z" fill-opacity="1" fill-rule="evenodd" clip-path="url(#TrqZgrTnBxhX)"/><path fill="none" stroke="rgb(0,0,0)" paint-order="fill" d="M 393.4147644042969 206.7193145751953 L 393.4721984863281 202.8997039794922 L 376.5598449707031 202.20468139648438 L 376.8293151855469 206.0377197265625 L 393.4147644042969 206.7193145751953 Z" stroke-opacity="1" stroke-linejoin="bevel" stroke-miterlimit="10" stroke-dasharray="" clip-path="url(#TrqZgrTnBxhX)"/><path fill="rgb(197,129,183)" stroke="none" paint-order="stroke" d="M 376.8293151855469 206.0377197265625 L 375.35076904296875 185.0055694580078 L 356.9778137207031 185.90354919433594 L 360.24957275390625 206.8480682373047 L 376.8293151855469 206.0377197265625 Z" fill-opacity="1" fill-rule="evenodd" clip-path="url(#TrqZgrTnBxhX)"/><path fill="none" stroke="rgb(0,0,0)" paint-order="fill" d="M 376.8293151855469 206.0377197265625 L 375.35076904296875 185.0055694580078 L 356.9778137207031 185.90354919433594 L 360.24957275390625 206.8480682373047 L 376.8293151855469 206.0377197265625 Z" stroke-opacity="1" stroke-linejoin="bevel" stroke-miterlimit="10" stroke-dasharray="" clip-path="url(#TrqZgrTnBxhX)"/><path fill="rgb(213,165,204)" stroke="none" paint-order="stroke" d="M 360.24957275390625 206.8480682373047 L 360.62158203125 209.22964477539062 L 344.3758239746094 211.48873901367188 L 343.801513671875 209.13528442382812 L 360.24957275390625 206.8480682373047 Z" fill-opacity="1" fill-rule="evenodd" clip-path="url(#TrqZgrTnBxhX)"/><path fill="none" stroke="rgb(0,0,0)" paint-order="fill" d="M 360.24957275390625 206.8480682373047 L 360.62158203125 209.22964477539062 L 344.3758239746094 211.48873901367188 L 343.801513671875 209.13528442382812 L 360.24957275390625 206.8480682373047 Z" stroke-opacity="1" stroke-linejoin="bevel" stroke-miterlimit="10" stroke-dasharray="" clip-path="url(#TrqZgrTnBxhX)"/><path fill="rgb(205,147,193)" stroke="none" paint-order="stroke" d="M 343.801513671875 209.13528442382812 L 343.4431457519531 207.66676330566406 L 327.12530517578125 211.43370056152344 L 327.6079406738281 212.87353515625 L 343.801513671875 209.13528442382812 Z" fill-opacity="1" fill-rule="evenodd" clip-path="url(#TrqZgrTnBxhX)"/><path fill="none" stroke="rgb(0,0,0)" paint-order="fill" d="M 343.801513671875 209.13528442382812 L 343.4431457519531 207.66676330566406 L 327.12530517578125 211.43370056152344 L 327.6079406738281 212.87353515625 L 343.801513671875 209.13528442382812 Z" stroke-opacity="1" stroke-linejoin="bevel" stroke-miterlimit="10" stroke-dasharray="" clip-path="url(#TrqZgrTnBxhX)"/><path fill="rgb(213,165,204)" stroke="none" paint-order="stroke" d="M 327.6079406738281 212.87353515625 L 328.4635314941406 215.4259796142578 L 312.8584289550781 220.5089569091797 L 311.7876281738281 218.02662658691406 L 327.6079406738281 212.87353515625 Z" fill-opacity="1" fill-rule="evenodd" clip-path="url(#TrqZgrTnBxhX)"/><path fill="none" stroke="rgb(0,0,0)" paint-order="fill" d="M 327.6079406738281 212.87353515625 L 328.4635314941406 215.4259796142578 L 312.8584289550781 220.5089569091797 L 311.7876281738281 218.02662658691406 L 327.6079406738281 212.87353515625 Z" stroke-opacity="1" stroke-linejoin="bevel" stroke-miterlimit="10" stroke-dasharray="" clip-path="url(#TrqZgrTnBxhX)"/><path fill="rgb(197,129,183)" stroke="none" paint-order="stroke" d="M 311.7876281738281 218.02662658691406 L 306.3770446777344 205.48362731933594 L 289.9899597167969 212.4539031982422 L 296.45452880859375 224.54859924316406 L 311.7876281738281 218.02662658691406 Z" fill-opacity="1" fill-rule="evenodd" clip-path="url(#TrqZgrTnBxhX)"/><path fill="none" stroke="rgb(0,0,0)" paint-order="fill" d="M 311.7876281738281 218.02662658691406 L 306.3770446777344 205.48362731933594 L 289.9899597167969 212.4539031982422 L 296.45452880859375 224.54859924316406 L 311.7876281738281 218.02662658691406 Z" stroke-opacity="1" stroke-linejoin="bevel" stroke-miterlimit="10" stroke-dasharray="" clip-path="url(#TrqZgrTnBxhX)"/><path fill="rgb(205,147,193)" stroke="none" paint-order="stroke" d="M 296.45452880859375 224.54859924316406 L 291.7071838378906 215.66665649414062 L 276.2258605957031 223.89793395996094 L 281.7171630859375 232.38433837890625 L 296.45452880859375 224.54859924316406 Z" fill-opacity="1" fill-rule="evenodd" clip-path="url(#TrqZgrTnBxhX)"/><path fill="none" stroke="rgb(0,0,0)" paint-order="fill" d="M 296.45452880859375 224.54859924316406 L 291.7071838378906 215.66665649414062 L 276.2258605957031 223.89793395996094 L 281.7171630859375 232.38433837890625 L 296.45452880859375 224.54859924316406 Z" stroke-opacity="1" stroke-linejoin="bevel" stroke-miterlimit="10" stroke-dasharray="" clip-path="url(#TrqZgrTnBxhX)"/><path fill="rgb(205,147,193)" stroke="none" paint-order="stroke" d="M 281.7171630859375 232.38433837890625 L 278.7681579589844 227.8268585205078 L 264.34832763671875 237.15908813476562 L 267.6779479980469 241.47024536132812 L 281.7171630859375 232.38433837890625 Z" fill-opacity="1" fill-rule="evenodd" clip-path="url(#TrqZgrTnBxhX)"/><path fill="none" stroke="rgb(0,0,0)" paint-order="fill" d="M 281.7171630859375 232.38433837890625 L 278.7681579589844 227.8268585205078 L 264.34832763671875 237.15908813476562 L 267.6779479980469 241.47024536132812 L 281.7171630859375 232.38433837890625 Z" stroke-opacity="1" stroke-linejoin="bevel" stroke-miterlimit="10" stroke-dasharray="" clip-path="url(#TrqZgrTnBxhX)"/><path fill="rgb(205,147,193)" stroke="none" paint-order="stroke" d="M 267.6779479980469 241.47024536132812 L 262.04315185546875 234.17433166503906 L 248.1901092529297 244.909912109375 L 254.4325714111328 251.7349090576172 L 267.6779479980469 241.47024536132812 Z" fill-opacity="1" fill-rule="evenodd" clip-path="url(#TrqZgrTnBxhX)"/><path fill="none" stroke="rgb(0,0,0)" paint-order="fill" d="M 267.6779479980469 241.47024536132812 L 262.04315185546875 234.17433166503906 L 248.1901092529297 244.909912109375 L 254.4325714111328 251.7349090576172 L 267.6779479980469 241.47024536132812 Z" stroke-opacity="1" stroke-linejoin="bevel" stroke-miterlimit="10" stroke-dasharray="" clip-path="url(#TrqZgrTnBxhX)"/><path fill="rgb(205,147,193)" stroke="none" paint-order="stroke" d="M 254.4325714111328 251.7349090576172 L 253.4324951171875 250.64149475097656 L 240.97872924804688 262.0899353027344 L 242.06967163085938 263.09979248046875 L 254.4325714111328 251.7349090576172 Z" fill-opacity="1" fill-rule="evenodd" clip-path="url(#TrqZgrTnBxhX)"/><path fill="none" stroke="rgb(0,0,0)" paint-order="fill" d="M 254.4325714111328 251.7349090576172 L 253.4324951171875 250.64149475097656 L 240.97872924804688 262.0899353027344 L 242.06967163085938 263.09979248046875 L 254.4325714111328 251.7349090576172 Z" stroke-opacity="1" stroke-linejoin="bevel" stroke-miterlimit="10" stroke-dasharray="" clip-path="url(#TrqZgrTnBxhX)"/><path fill="rgb(205,147,193)" stroke="none" paint-order="stroke" d="M 242.06967163085938 263.09979248046875 L 239.5906219482422 260.80499267578125 L 228.00083923339844 273.39202880859375 L 230.67027282714844 275.4800720214844 L 242.06967163085938 263.09979248046875 Z" fill-opacity="1" fill-rule="evenodd" clip-path="url(#TrqZgrTnBxhX)"/><path fill="none" stroke="rgb(0,0,0)" paint-order="fill" d="M 242.06967163085938 263.09979248046875 L 239.5906219482422 260.80499267578125 L 228.00083923339844 273.39202880859375 L 230.67027282714844 275.4800720214844 L 242.06967163085938 263.09979248046875 Z" stroke-opacity="1" stroke-linejoin="bevel" stroke-miterlimit="10" stroke-dasharray="" clip-path="url(#TrqZgrTnBxhX)"/><path fill="rgb(205,147,193)" stroke="none" paint-order="stroke" d="M 230.67027282714844 275.4800720214844 L 229.87142944335938 274.855224609375 L 219.45684814453125 288.22686767578125 L 220.30746459960938 288.78521728515625 L 230.67027282714844 275.4800720214844 Z" fill-opacity="1" fill-rule="evenodd" clip-path="url(#TrqZgrTnBxhX)"/><path fill="none" stroke="rgb(0,0,0)" paint-order="fill" d="M 230.67027282714844 275.4800720214844 L 229.87142944335938 274.855224609375 L 219.45684814453125 288.22686767578125 L 220.30746459960938 288.78521728515625 L 230.67027282714844 275.4800720214844 Z" stroke-opacity="1" stroke-linejoin="bevel" stroke-miterlimit="10" stroke-dasharray="" clip-path="url(#TrqZgrTnBxhX)"/><path fill="rgb(213,165,204)" stroke="none" paint-order="stroke" d="M 220.30746459960938 288.78521728515625 L 223.74789428710938 291.04351806640625 L 214.67381286621094 304.89251708984375 L 211.04617309570312 302.9199523925781 L 220.30746459960938 288.78521728515625 Z" fill-opacity="1" fill-rule="evenodd" clip-path="url(#TrqZgrTnBxhX)"/><path fill="none" stroke="rgb(0,0,0)" paint-order="fill" d="M 220.30746459960938 288.78521728515625 L 223.74789428710938 291.04351806640625 L 214.67381286621094 304.89251708984375 L 211.04617309570312 302.9199523925781 L 220.30746459960938 288.78521728515625 Z" stroke-opacity="1" stroke-linejoin="bevel" stroke-miterlimit="10" stroke-dasharray="" clip-path="url(#TrqZgrTnBxhX)"/><path fill="rgb(205,147,193)" stroke="none" paint-order="stroke" d="M 211.04617309570312 302.9199523925781 L 204.53799438476562 299.38104248046875 L 196.1407928466797 314.7850341796875 L 202.94284057617188 317.7848205566406 L 211.04617309570312 302.9199523925781 Z" fill-opacity="1" fill-rule="evenodd" clip-path="url(#TrqZgrTnBxhX)"/><path fill="none" stroke="rgb(0,0,0)" paint-order="fill" d="M 211.04617309570312 302.9199523925781 L 204.53799438476562 299.38104248046875 L 196.1407928466797 314.7850341796875 L 202.94284057617188 317.7848205566406 L 211.04617309570312 302.9199523925781 Z" stroke-opacity="1" stroke-linejoin="bevel" stroke-miterlimit="10" stroke-dasharray="" clip-path="url(#TrqZgrTnBxhX)"/><path fill="rgb(213,165,204)" stroke="none" paint-order="stroke" d="M 202.94284057617188 317.7848205566406 L 203.29922485351562 317.9419860839844 L 196.41485595703125 333.4049072265625 L 196.0453643798828 333.2771911621094 L 202.94284057617188 317.7848205566406 Z" fill-opacity="1" fill-rule="evenodd" clip-path="url(#TrqZgrTnBxhX)"/><path fill="none" stroke="rgb(0,0,0)" paint-order="fill" d="M 202.94284057617188 317.7848205566406 L 203.29922485351562 317.9419860839844 L 196.41485595703125 333.4049072265625 L 196.0453643798828 333.2771911621094 L 202.94284057617188 317.7848205566406 Z" stroke-opacity="1" stroke-linejoin="bevel" stroke-miterlimit="10" stroke-dasharray="" clip-path="url(#TrqZgrTnBxhX)"/><path fill="rgb(213,165,204)" stroke="none" paint-order="stroke" d="M 196.0453643798828 333.2771911621094 L 204.07240295410156 336.0521240234375 L 198.6533203125 351.4056091308594 L 190.39295959472656 349.291748046875 L 196.0453643798828 333.2771911621094 Z" fill-opacity="1" fill-rule="evenodd" clip-path="url(#TrqZgrTnBxhX)"/><path fill="none" stroke="rgb(0,0,0)" paint-order="fill" d="M 196.0453643798828 333.2771911621094 L 204.07240295410156 336.0521240234375 L 198.6533203125 351.4056091308594 L 190.39295959472656 349.291748046875 L 196.0453643798828 333.2771911621094 Z" stroke-opacity="1" stroke-linejoin="bevel" stroke-miterlimit="10" stroke-dasharray="" clip-path="url(#TrqZgrTnBxhX)"/><path fill="rgb(205,147,193)" stroke="none" paint-order="stroke" d="M 190.39295959472656 349.291748046875 L 189.61700439453125 349.0931701660156 L 185.22317504882812 365.5866394042969 L 186.01608276367188 365.72149658203125 L 190.39295959472656 349.291748046875 Z" fill-opacity="1" fill-rule="evenodd" clip-path="url(#TrqZgrTnBxhX)"/><path fill="none" stroke="rgb(0,0,0)" paint-order="fill" d="M 190.39295959472656 349.291748046875 L 189.61700439453125 349.0931701660156 L 185.22317504882812 365.5866394042969 L 186.01608276367188 365.72149658203125 L 190.39295959472656 349.291748046875 Z" stroke-opacity="1" stroke-linejoin="bevel" stroke-miterlimit="10" stroke-dasharray="" clip-path="url(#TrqZgrTnBxhX)"/><path fill="rgb(213,165,204)" stroke="none" paint-order="stroke" d="M 186.01608276367188 365.72149658203125 L 190.4867401123047 366.4818420410156 L 187.47454833984375 382.8527526855469 L 182.9365692138672 382.4582824707031 L 186.01608276367188 365.72149658203125 Z" fill-opacity="1" fill-rule="evenodd" clip-path="url(#TrqZgrTnBxhX)"/><path fill="none" stroke="rgb(0,0,0)" paint-order="fill" d="M 186.01608276367188 365.72149658203125 L 190.4867401123047 366.4818420410156 L 187.47454833984375 382.8527526855469 L 182.9365692138672 382.4582824707031 L 186.01608276367188 365.72149658203125 Z" stroke-opacity="1" stroke-linejoin="bevel" stroke-miterlimit="10" stroke-dasharray="" clip-path="url(#TrqZgrTnBxhX)"/><path fill="rgb(213,165,204)" stroke="none" paint-order="stroke" d="M 182.9365692138672 382.4582824707031 L 193.00572204589844 383.3335266113281 L 191.3225555419922 399.4473876953125 L 181.16758728027344 399.39373779296875 L 182.9365692138672 382.4582824707031 Z" fill-opacity="1" fill-rule="evenodd" clip-path="url(#TrqZgrTnBxhX)"/><path fill="none" stroke="rgb(0,0,0)" paint-order="fill" d="M 182.9365692138672 382.4582824707031 L 193.00572204589844 383.3335266113281 L 191.3225555419922 399.4473876953125 L 181.16758728027344 399.39373779296875 L 182.9365692138672 382.4582824707031 Z" stroke-opacity="1" stroke-linejoin="bevel" stroke-miterlimit="10" stroke-dasharray="" clip-path="url(#TrqZgrTnBxhX)"/><path fill="rgb(205,147,193)" stroke="none" paint-order="stroke" d="M 181.16758728027344 399.39373779296875 L 178.2315216064453 399.3782043457031 L 177.7714080810547 416.6429748535156 L 180.71383666992188 416.419677734375 L 181.16758728027344 399.39373779296875 Z" fill-opacity="1" fill-rule="evenodd" clip-path="url(#TrqZgrTnBxhX)"/><path fill="none" stroke="rgb(0,0,0)" paint-order="fill" d="M 181.16758728027344 399.39373779296875 L 178.2315216064453 399.3782043457031 L 177.7714080810547 416.6429748535156 L 180.71383666992188 416.419677734375 L 181.16758728027344 399.39373779296875 Z" stroke-opacity="1" stroke-linejoin="bevel" stroke-miterlimit="10" stroke-dasharray="" clip-path="url(#TrqZgrTnBxhX)"/><path fill="rgb(197,129,183)" stroke="none" paint-order="stroke" d="M 180.71383666992188 416.419677734375 L 164.92784118652344 417.61761474609375 L 165.8502655029297 435.9069519042969 L 181.57171630859375 433.4291076660156 L 180.71383666992188 416.419677734375 Z" fill-opacity="1" fill-rule="evenodd" clip-path="url(#TrqZgrTnBxhX)"/><path fill="none" stroke="rgb(0,0,0)" paint-order="fill" d="M 180.71383666992188 416.419677734375 L 164.92784118652344 417.61761474609375 L 165.8502655029297 435.9069519042969 L 181.57171630859375 433.4291076660156 L 180.71383666992188 416.419677734375 Z" stroke-opacity="1" stroke-linejoin="bevel" stroke-miterlimit="10" stroke-dasharray="" clip-path="url(#TrqZgrTnBxhX)"/><path fill="rgb(197,129,183)" stroke="none" paint-order="stroke" d="M 181.57171630859375 433.4291076660156 L 168.63211059570312 435.468505859375 L 170.92356872558594 453.4018859863281 L 183.7295379638672 450.31658935546875 L 181.57171630859375 433.4291076660156 Z" fill-opacity="1" fill-rule="evenodd" clip-path="url(#TrqZgrTnBxhX)"/><path fill="none" stroke="rgb(0,0,0)" paint-order="fill" d="M 181.57171630859375 433.4291076660156 L 168.63211059570312 435.468505859375 L 170.92356872558594 453.4018859863281 L 183.7295379638672 450.31658935546875 L 181.57171630859375 433.4291076660156 Z" stroke-opacity="1" stroke-linejoin="bevel" stroke-miterlimit="10" stroke-dasharray="" clip-path="url(#TrqZgrTnBxhX)"/><path fill="rgb(213,165,204)" stroke="none" paint-order="stroke" d="M 183.7295379638672 450.31658935546875 L 191.44937133789062 448.4566650390625 L 194.75926208496094 464.4969482421875 L 187.1678009033203 466.97894287109375 L 183.7295379638672 450.31658935546875 Z" fill-opacity="1" fill-rule="evenodd" clip-path="url(#TrqZgrTnBxhX)"/><path fill="none" stroke="rgb(0,0,0)" paint-order="fill" d="M 183.7295379638672 450.31658935546875 L 191.44937133789062 448.4566650390625 L 194.75926208496094 464.4969482421875 L 187.1678009033203 466.97894287109375 L 183.7295379638672 450.31658935546875 Z" stroke-opacity="1" stroke-linejoin="bevel" stroke-miterlimit="10" stroke-dasharray="" clip-path="url(#TrqZgrTnBxhX)"/><path fill="rgb(213,165,204)" stroke="none" paint-order="stroke" d="M 187.1678009033203 466.97894287109375 L 190.6304931640625 465.8468322753906 L 195.24227905273438 481.90557861328125 L 191.85948181152344 483.31591796875 L 187.1678009033203 466.97894287109375 Z" fill-opacity="1" fill-rule="evenodd" clip-path="url(#TrqZgrTnBxhX)"/><path fill="none" stroke="rgb(0,0,0)" paint-order="fill" d="M 187.1678009033203 466.97894287109375 L 190.6304931640625 465.8468322753906 L 195.24227905273438 481.90557861328125 L 191.85948181152344 483.31591796875 L 187.1678009033203 466.97894287109375 Z" stroke-opacity="1" stroke-linejoin="bevel" stroke-miterlimit="10" stroke-dasharray="" clip-path="url(#TrqZgrTnBxhX)"/><path fill="rgb(205,147,193)" stroke="none" paint-order="stroke" d="M 191.85948181152344 483.31591796875 L 185.8307647705078 485.8293762207031 L 191.9210968017578 502.2270202636719 L 197.77041625976562 499.2305603027344 L 191.85948181152344 483.31591796875 Z" fill-opacity="1" fill-rule="evenodd" clip-path="url(#TrqZgrTnBxhX)"/><path fill="none" stroke="rgb(0,0,0)" paint-order="fill" d="M 191.85948181152344 483.31591796875 L 185.8307647705078 485.8293762207031 L 191.9210968017578 502.2270202636719 L 197.77041625976562 499.2305603027344 L 191.85948181152344 483.31591796875 Z" stroke-opacity="1" stroke-linejoin="bevel" stroke-miterlimit="10" stroke-dasharray="" clip-path="url(#TrqZgrTnBxhX)"/><path fill="rgb(205,147,193)" stroke="none" paint-order="stroke" d="M 197.77041625976562 499.2305603027344 L 195.2653045654297 500.51385498046875 L 202.44662475585938 516.11328125 L 204.85958862304688 514.6298217773438 L 197.77041625976562 499.2305603027344 Z" fill-opacity="1" fill-rule="evenodd" clip-path="url(#TrqZgrTnBxhX)"/><path fill="none" stroke="rgb(0,0,0)" paint-order="fill" d="M 197.77041625976562 499.2305603027344 L 195.2653045654297 500.51385498046875 L 202.44662475585938 516.11328125 L 204.85958862304688 514.6298217773438 L 197.77041625976562 499.2305603027344 Z" stroke-opacity="1" stroke-linejoin="bevel" stroke-miterlimit="10" stroke-dasharray="" clip-path="url(#TrqZgrTnBxhX)"/><path fill="rgb(213,165,204)" stroke="none" paint-order="stroke" d="M 204.85958862304688 514.6298217773438 L 205.43406677246094 514.2766723632812 L 213.628662109375 529.0260620117188 L 213.07962036132812 529.4249877929688 L 204.85958862304688 514.6298217773438 Z" fill-opacity="1" fill-rule="evenodd" clip-path="url(#TrqZgrTnBxhX)"/><path fill="none" stroke="rgb(0,0,0)" paint-order="fill" d="M 204.85958862304688 514.6298217773438 L 205.43406677246094 514.2766723632812 L 213.628662109375 529.0260620117188 L 213.07962036132812 529.4249877929688 L 204.85958862304688 514.6298217773438 Z" stroke-opacity="1" stroke-linejoin="bevel" stroke-miterlimit="10" stroke-dasharray="" clip-path="url(#TrqZgrTnBxhX)"/><path fill="rgb(213,165,204)" stroke="none" paint-order="stroke" d="M 213.07962036132812 529.4249877929688 L 216.25218200683594 527.11962890625 L 225.3834686279297 540.9745483398438 L 222.3771514892578 543.5321655273438 L 213.07962036132812 529.4249877929688 Z" fill-opacity="1" fill-rule="evenodd" clip-path="url(#TrqZgrTnBxhX)"/><path fill="none" stroke="rgb(0,0,0)" paint-order="fill" d="M 213.07962036132812 529.4249877929688 L 216.25218200683594 527.11962890625 L 225.3834686279297 540.9745483398438 L 222.3771514892578 543.5321655273438 L 213.07962036132812 529.4249877929688 Z" stroke-opacity="1" stroke-linejoin="bevel" stroke-miterlimit="10" stroke-dasharray="" clip-path="url(#TrqZgrTnBxhX)"/><path fill="rgb(213,165,204)" stroke="none" paint-order="stroke" d="M 222.3771514892578 543.5321655273438 L 226.3221435546875 540.1759033203125 L 236.39620971679688 553.2031860351562 L 232.6932830810547 556.8724975585938 L 222.3771514892578 543.5321655273438 Z" fill-opacity="1" fill-rule="evenodd" clip-path="url(#TrqZgrTnBxhX)"/><path fill="none" stroke="rgb(0,0,0)" paint-order="fill" d="M 222.3771514892578 543.5321655273438 L 226.3221435546875 540.1759033203125 L 236.39620971679688 553.2031860351562 L 232.6932830810547 556.8724975585938 L 222.3771514892578 543.5321655273438 Z" stroke-opacity="1" stroke-linejoin="bevel" stroke-miterlimit="10" stroke-dasharray="" clip-path="url(#TrqZgrTnBxhX)"/><path fill="rgb(205,147,193)" stroke="none" paint-order="stroke" d="M 232.6932830810547 556.8724975585938 L 230.88174438476562 558.6675415039062 L 242.28187561035156 571.3112182617188 L 243.96405029296875 569.3726196289062 L 232.6932830810547 556.8724975585938 Z" fill-opacity="1" fill-rule="evenodd" clip-path="url(#TrqZgrTnBxhX)"/><path fill="none" stroke="rgb(0,0,0)" paint-order="fill" d="M 232.6932830810547 556.8724975585938 L 230.88174438476562 558.6675415039062 L 242.28187561035156 571.3112182617188 L 243.96405029296875 569.3726196289062 L 232.6932830810547 556.8724975585938 Z" stroke-opacity="1" stroke-linejoin="bevel" stroke-miterlimit="10" stroke-dasharray="" clip-path="url(#TrqZgrTnBxhX)"/><path fill="rgb(205,147,193)" stroke="none" paint-order="stroke" d="M 243.96405029296875 569.3726196289062 L 240.27108764648438 573.6285400390625 L 252.7342987060547 585.5130615234375 L 256.1208801269531 580.9650268554688 L 243.96405029296875 569.3726196289062 Z" fill-opacity="1" fill-rule="evenodd" clip-path="url(#TrqZgrTnBxhX)"/><path fill="none" stroke="rgb(0,0,0)" paint-order="fill" d="M 243.96405029296875 569.3726196289062 L 240.27108764648438 573.6285400390625 L 252.7342987060547 585.5130615234375 L 256.1208801269531 580.9650268554688 L 243.96405029296875 569.3726196289062 Z" stroke-opacity="1" stroke-linejoin="bevel" stroke-miterlimit="10" stroke-dasharray="" clip-path="url(#TrqZgrTnBxhX)"/><path fill="rgb(213,165,204)" stroke="none" paint-order="stroke" d="M 256.1208801269531 580.9650268554688 L 261.5187072753906 573.7160034179688 L 273.96795654296875 583.9124755859375 L 269.09112548828125 591.5881958007812 L 256.1208801269531 580.9650268554688 Z" fill-opacity="1" fill-rule="evenodd" clip-path="url(#TrqZgrTnBxhX)"/><path fill="none" stroke="rgb(0,0,0)" paint-order="fill" d="M 256.1208801269531 580.9650268554688 L 261.5187072753906 573.7160034179688 L 273.96795654296875 583.9124755859375 L 269.09112548828125 591.5881958007812 L 256.1208801269531 580.9650268554688 Z" stroke-opacity="1" stroke-linejoin="bevel" stroke-miterlimit="10" stroke-dasharray="" clip-path="url(#TrqZgrTnBxhX)"/><path fill="rgb(213,165,204)" stroke="none" paint-order="stroke" d="M 269.09112548828125 591.5881958007812 L 271.8635559082031 587.2246704101562 L 285.2579345703125 596.6041259765625 L 282.7985534667969 601.1868286132812 L 269.09112548828125 591.5881958007812 Z" fill-opacity="1" fill-rule="evenodd" clip-path="url(#TrqZgrTnBxhX)"/><path fill="none" stroke="rgb(0,0,0)" paint-order="fill" d="M 269.09112548828125 591.5881958007812 L 271.8635559082031 587.2246704101562 L 285.2579345703125 596.6041259765625 L 282.7985534667969 601.1868286132812 L 269.09112548828125 591.5881958007812 Z" stroke-opacity="1" stroke-linejoin="bevel" stroke-miterlimit="10" stroke-dasharray="" clip-path="url(#TrqZgrTnBxhX)"/><path fill="rgb(213,165,204)" stroke="none" paint-order="stroke" d="M 282.7985534667969 601.1868286132812 L 287.2284851074219 592.9323120117188 L 301.0028381347656 601.1068115234375 L 297.16375732421875 609.7120971679688 L 282.7985534667969 601.1868286132812 Z" fill-opacity="1" fill-rule="evenodd" clip-path="url(#TrqZgrTnBxhX)"/><path fill="none" stroke="rgb(0,0,0)" paint-order="fill" d="M 282.7985534667969 601.1868286132812 L 287.2284851074219 592.9323120117188 L 301.0028381347656 601.1068115234375 L 297.16375732421875 609.7120971679688 L 282.7985534667969 601.1868286132812 Z" stroke-opacity="1" stroke-linejoin="bevel" stroke-miterlimit="10" stroke-dasharray="" clip-path="url(#TrqZgrTnBxhX)"/></svg>