<svg version="1.1" xmlns="http://www.w3.org/2000/svg" xmlns:xlink="http://www.w3.org/1999/xlink" width="800" height="800"><defs><clipPath id="eNWRpVknbsis"><path fill="none" stroke="none" d="M 10.5 10.5 L 770.5 10.5 L 770.5 790.5 L 10.5 790.5 L 10.5 10.5"/></clipPath><clipPath id="GZkeKAZLexZa"><path fill="none" stroke="none" d="M 10.5 10.5 L 770.5 10.5 L 770.5 790.5 L 10.5 790.5 L 10.5 10.5"/></clipPath><clipPath id="FQBOVZCZMxdg"><path fill="none" stroke="none" d="M 10.5 10.5 L 770.5 10.5 L 770.5 790.5 L 10.5 790.5 L 10.5 10.5"/></clipPath><clipPath id="HJKRQzrNWynA"><path fill="none" stroke="none" d="M 10.5 10.5 L 770.5 10.5 L 770.5 790.5 L 10.5 790.5 L 10.5 10.5"/></clipPath></defs><path fill="rgb(255,255,255)" stroke="none" paint-order="stroke" d="M 0.5 0.5 L 800.5 0.5 L 800.5 800.5 L 0.5 800.5 L 0.5 0.5" fill-opacity="1"/><rect fill="#FFFFFF" stroke="none" x="10" y="10" width="760" height="780" transform="matrix(1, 0, 0, 1, 0.5, 0.5)"/><path fill="rgb(0,0,0)" stroke="none" paint-order="stroke" d="M 10.5 10.5 L 770.5 10.5 L 770.5 790.5 L 10.5 790.5 L 10.5 10.5" fill-opacity="1"/><path fill="none" stroke="rgb(229,229,229)" paint-order="fill" d="M 10.5 10.5 L 770.5 10.5 L 770.5 790.5 L 10.5 790.5 L 10.5 10.5" stroke-opacity="1" stroke-linejoin="bevel" stroke-miterlimit="10" stroke-dasharray=""/><path fill="none" stroke="none"/><path fill="rgb(213,165,204)" stroke="none" paint-order="stroke" d="M 396.90509033203125 380.2684326171875 L 396.70880126953125 380.888427734375 L 381.71942138671875 372.7650451660156 L 381.4418640136719 371.88824462890625 L 396.90509033203125 380.2684326171875 Z" fill-opacity="1" fill-rule="evenodd" clip-path="url(#FQBOVZCZMxdg)"/><path fill="none" stroke="rgb(0,0,0)" paint-order="fill" d="M 396.90509033203125 380.2684326171875 L 396.70880126953125 380.888427734375 L 381.71942138671875 372.7650451660156 L 381.4418640136719 371.88824462890625 L 396.90509033203125 380.2684326171875 Z" stroke-opacity="1" stroke-linejoin="bevel" stroke-miterlimit="10" stroke-dasharray="" clip-path="url(#FQBOVZCZMxdg)"/><path fill="rgb(213,165,204)" stroke="none" paint-order="stroke" d="M 381.4418640136719 371.88824462890625 L 381.9103088378906 373.3680114746094 L 365.9236755371094 376.3216857910156 L 364.58331298828125 375.0030212402344 L 381.4418640136719 371.88824462890625 Z" fill-opacity="1" fill-rule="evenodd" clip-path="url(#FQBOVZCZMxdg)"/><path fill="none" stroke="rgb(0,0,0)" paint-order="fill" d="M 381.4418640136719 371.88824462890625 L 381.9103088378906 373.3680114746094 L 365.9236755371094 376.3216857910156 L 364.58331298828125 375.0030212402344 L 381.4418640136719 371.88824462890625 Z" stroke-opacity="1" stroke-linejoin="bevel" stroke-miterlimit="10" stroke-dasharray="" clip-path="url(#FQBOVZCZMxdg)"/><path fill="rgb(221,183,214)" stroke="none" paint-order="stroke" d="M 364.58331298828125 375.0030212402344 L 366.27740478515625 376.669677734375 L 354.0431213378906 387.0378112792969 L 351.493408203125 386.0962829589844 L 364.58331298828125 375.0030212402344 Z" fill-opacity="1" fill-rule="evenodd" clip-path="url(#FQBOVZCZMxdg)"/><path fill="none" stroke="rgb(0,0,0)" paint-order="fill" d="M 364.58331298828125 375.0030212402344 L 366.27740478515625 376.669677734375 L 354.0431213378906 387.0378112792969 L 351.493408203125 386.0962829589844 L 364.58331298828125 375.0030212402344 Z" stroke-opacity="1" stroke-linejoin="bevel" stroke-miterlimit="10" stroke-dasharray="" clip-path="url(#FQBOVZCZMxdg)"/><path fill="rgb(221,183,214)" stroke="none" paint-order="stroke" d="M 351.493408203125 386.0962829589844 L 354.0915222167969 387.0556640625 L 347.25360107421875 401.6340026855469 L 344.16754150390625 401.71490478515625 L 351.493408203125 386.0962829589844 Z" fill-opacity="1" fill-rule="evenodd" clip-path="url(#FQBOVZCZMxdg)"/><path fill="none" stroke="rgb(0,0,0)" paint-order="fill" d="M 351.493408203125 386.0962829589844 L 354.0915222167969 387.0556640625 L 347.25360107421875 401.6340026855469 L 344.16754150390625 401.71490478515625 L 351.493408203125 386.0962829589844 Z" stroke-opacity="1" stroke-linejoin="bevel" stroke-miterlimit="10" stroke-dasharray="" clip-path="url(#FQBOVZCZMxdg)"/><path fill="rgb(221,183,214)" stroke="none" paint-order="stroke" d="M 344.16754150390625 401.71490478515625 L 347.86065673828125 401.6180725097656 L 346.80340576171875 417.4813537597656 L 343.0187072753906 418.9521789550781 L 344.16754150390625 401.71490478515625 Z" fill-opacity="1" fill-rule="evenodd" clip-path="url(#FQBOVZCZMxdg)"/><path fill="none" stroke="rgb(0,0,0)" paint-order="fill" d="M 344.16754150390625 401.71490478515625 L 347.86065673828125 401.6180725097656 L 346.80340576171875 417.4813537597656 L 343.0187072753906 418.9521789550781 L 344.16754150390625 401.71490478515625 Z" stroke-opacity="1" stroke-linejoin="bevel" stroke-miterlimit="10" stroke-dasharray="" clip-path="url(#FQBOVZCZMxdg)"/><path fill="rgb(221,183,214)" stroke="none" paint-order="stroke" d="M 343.0187072753906 418.9521789550781 L 345.7425537109375 417.8936462402344 L 350.04754638671875 433.5306701660156 L 347.585693359375 435.5408630371094 L 343.0187072753906 418.9521789550781 Z" fill-opacity="1" fill-rule="evenodd" clip-path="url(#FQBOVZCZMxdg)"/><path fill="none" stroke="rgb(0,0,0)" paint-order="fill" d="M 343.0187072753906 418.9521789550781 L 345.7425537109375 417.8936462402344 L 350.04754638671875 433.5306701660156 L 347.585693359375 435.5408630371094 L 343.0187072753906 418.9521789550781 Z" stroke-opacity="1" stroke-linejoin="bevel" stroke-miterlimit="10" stroke-dasharray="" clip-path="url(#FQBOVZCZMxdg)"/><path fill="rgb(221,183,214)" stroke="none" paint-order="stroke" d="M 347.585693359375 435.5408630371094 L 351.25390625 432.545654296875 L 359.80126953125 445.6123046875 L 356.93194580078125 449.82879638671875 L 347.585693359375 435.5408630371094 Z" fill-opacity="1" fill-rule="evenodd" clip-path="url(#FQBOVZCZMxdg)"/><path fill="none" stroke="rgb(0,0,0)" paint-order="fill" d="M 347.585693359375 435.5408630371094 L 351.25390625 432.545654296875 L 359.80126953125 445.6123046875 L 356.93194580078125 449.82879638671875 L 347.585693359375 435.5408630371094 Z" stroke-opacity="1" stroke-linejoin="bevel" stroke-miterlimit="10" stroke-dasharray="" clip-path="url(#FQBOVZCZMxdg)"/><path fill="rgb(221,183,214)" stroke="none" paint-order="stroke" d="M 356.93194580078125 449.82879638671875 L 358.88433837890625 446.9596862792969 L 371.0916442871094 457.2098083496094 L 369.8930969238281 460.7118835449219 L 356.93194580078125 449.82879638671875 Z" fill-opacity="1" fill-rule="evenodd" clip-path="url(#FQBOVZCZMxdg)"/><path fill="none" stroke="rgb(0,0,0)" paint-order="fill" d="M 356.93194580078125 449.82879638671875 L 358.88433837890625 446.9596862792969 L 371.0916442871094 457.2098083496094 L 369.8930969238281 460.7118835449219 L 356.93194580078125 449.82879638671875 Z" stroke-opacity="1" stroke-linejoin="bevel" stroke-miterlimit="10" stroke-dasharray="" clip-path="url(#FQBOVZCZMxdg)"/><path fill="rgb(230,201,224)" stroke="none" paint-order="stroke" d="M 369.8930969238281 460.7118835449219 L 372.237060546875 453.863037109375 L 385.8355407714844 459.926025390625 L 385.23687744140625 467.55303955078125 L 369.8930969238281 460.7118835449219 Z" fill-opacity="1" fill-rule="evenodd" clip-path="url(#FQBOVZCZMxdg)"/><path fill="none" stroke="rgb(0,0,0)" paint-order="fill" d="M 369.8930969238281 460.7118835449219 L 372.237060546875 453.863037109375 L 385.8355407714844 459.926025390625 L 385.23687744140625 467.55303955078125 L 369.8930969238281 460.7118835449219 Z" stroke-opacity="1" stroke-linejoin="bevel" stroke-miterlimit="10" stroke-dasharray="" clip-path="url(#FQBOVZCZMxdg)"/><path fill="rgb(221,183,214)" stroke="none" paint-order="stroke" d="M 385.23687744140625 467.55303955078125 L 385.673583984375 461.9891357421875 L 400.8320007324219 464.32440185546875 L 401.76690673828125 470.099609375 L 385.23687744140625 467.55303955078125 Z" fill-opacity="1" fill-rule="evenodd" clip-path="url(#FQBOVZCZMxdg)"/><path fill="none" stroke="rgb(0,0,0)" paint-order="fill" d="M 385.23687744140625 467.55303955078125 L 385.673583984375 461.9891357421875 L 400.8320007324219 464.32440185546875 L 401.76690673828125 470.099609375 L 385.23687744140625 467.55303955078125 Z" stroke-opacity="1" stroke-linejoin="bevel" stroke-miterlimit="10" stroke-dasharray="" clip-path="url(#FQBOVZCZMxdg)"/><path fill="rgb(213,165,204)" stroke="none" paint-order="stroke" d="M 401.76690673828125 470.099609375 L 401.26129150390625 466.9762878417969 L 417.13726806640625 465.3576965332031 L 418.3888244628906 468.40496826171875 L 401.76690673828125 470.099609375 Z" fill-opacity="1" fill-rule="evenodd" clip-path="url(#FQBOVZCZMxdg)"/><path fill="none" stroke="rgb(0,0,0)" paint-order="fill" d="M 401.76690673828125 470.099609375 L 401.26129150390625 466.9762878417969 L 417.13726806640625 465.3576965332031 L 418.3888244628906 468.40496826171875 L 401.76690673828125 470.099609375 Z" stroke-opacity="1" stroke-linejoin="bevel" stroke-miterlimit="10" stroke-dasharray="" clip-path="url(#FQBOVZCZMxdg)"/><path fill="rgb(221,183,214)" stroke="none" paint-order="stroke" d="M 418.3888244628906 468.40496826171875 L 415.5068054199219 461.38775634765625 L 429.63909912109375 456.3236999511719 L 434.1498107910156 462.7572937011719 L 418.3888244628906 468.40496826171875 Z" fill-opacity="1" fill-rule="evenodd" clip-path="url(#FQBOVZCZMxdg)"/><path fill="none" stroke="rgb(0,0,0)" paint-order="fill" d="M 418.3888244628906 468.40496826171875 L 415.5068054199219 461.38775634765625 L 429.63909912109375 456.3236999511719 L 434.1498107910156 462.7572937011719 L 418.3888244628906 468.40496826171875 Z" stroke-opacity="1" stroke-linejoin="bevel" stroke-miterlimit="10" stroke-dasharray="" clip-path="url(#FQBOVZCZMxdg)"/><path fill="rgb(230,201,224)" stroke="none" paint-order="stroke" d="M 434.1498107910156 462.7572937011719 L 429.2131042480469 455.71612548828125 L 441.7271423339844 447.60888671875 L 448.2596130371094 453.6162109375 L 434.1498107910156 462.7572937011719 Z" fill-opacity="1" fill-rule="evenodd" clip-path="url(#FQBOVZCZMxdg)"/><path fill="none" stroke="rgb(0,0,0)" paint-order="fill" d="M 434.1498107910156 462.7572937011719 L 429.2131042480469 455.71612548828125 L 441.7271423339844 447.60888671875 L 448.2596130371094 453.6162109375 L 434.1498107910156 462.7572937011719 Z" stroke-opacity="1" stroke-linejoin="bevel" stroke-miterlimit="10" stroke-dasharray="" clip-path="url(#FQBOVZCZMxdg)"/><path fill="rgb(213,165,204)" stroke="none" paint-order="stroke" d="M 448.2596130371094 453.6162109375 L 446.5468444824219 452.0411376953125 L 458.0340270996094 440.3406982421875 L 460.09783935546875 441.5582275390625 L 448.2596130371094 453.6162109375 Z" fill-opacity="1" fill-rule="evenodd" clip-path="url(#FQBOVZCZMxdg)"/><path fill="none" stroke="rgb(0,0,0)" paint-order="fill" d="M 448.2596130371094 453.6162109375 L 446.5468444824219 452.0411376953125 L 458.0340270996094 440.3406982421875 L 460.09783935546875 441.5582275390625 L 448.2596130371094 453.6162109375 Z" stroke-opacity="1" stroke-linejoin="bevel" stroke-miterlimit="10" stroke-dasharray="" clip-path="url(#FQBOVZCZMxdg)"/><path fill="rgb(221,183,214)" stroke="none" paint-order="stroke" d="M 460.09783935546875 441.5582275390625 L 452.8290100097656 437.27008056640625 L 460.9913330078125 424.43841552734375 L 469.2120666503906 427.2301025390625 L 460.09783935546875 441.5582275390625 Z" fill-opacity="1" fill-rule="evenodd" clip-path="url(#FQBOVZCZMxdg)"/><path fill="none" stroke="rgb(0,0,0)" paint-order="fill" d="M 460.09783935546875 441.5582275390625 L 452.8290100097656 437.27008056640625 L 460.9913330078125 424.43841552734375 L 469.2120666503906 427.2301025390625 L 460.09783935546875 441.5582275390625 Z" stroke-opacity="1" stroke-linejoin="bevel" stroke-miterlimit="10" stroke-dasharray="" clip-path="url(#FQBOVZCZMxdg)"/><path fill="rgb(246,237,244)" stroke="none" paint-order="stroke" d="M 469.2120666503906 427.2301025390625 L 451.58306884765625 421.243408203125 L 456.3146057128906 408.8890380859375 L 475.3091735839844 411.3101501464844 L 469.2120666503906 427.2301025390625 Z" fill-opacity="1" fill-rule="evenodd" clip-path="url(#FQBOVZCZMxdg)"/><path fill="none" stroke="rgb(0,0,0)" paint-order="fill" d="M 469.2120666503906 427.2301025390625 L 451.58306884765625 421.243408203125 L 456.3146057128906 408.8890380859375 L 475.3091735839844 411.3101501464844 L 469.2120666503906 427.2301025390625 Z" stroke-opacity="1" stroke-linejoin="bevel" stroke-miterlimit="10" stroke-dasharray="" clip-path="url(#FQBOVZCZMxdg)"/><path fill="rgb(213,165,204)" stroke="none" paint-order="stroke" d="M 475.3091735839844 411.3101501464844 L 471.8393859863281 410.8678894042969 L 474.65252685546875 394.7229919433594 L 478.2423095703125 394.4765625 L 475.3091735839844 411.3101501464844 Z" fill-opacity="1" fill-rule="evenodd" clip-path="url(#FQBOVZCZMxdg)"/><path fill="none" stroke="rgb(0,0,0)" paint-order="fill" d="M 475.3091735839844 411.3101501464844 L 471.8393859863281 410.8678894042969 L 474.65252685546875 394.7229919433594 L 478.2423095703125 394.4765625 L 475.3091735839844 411.3101501464844 Z" stroke-opacity="1" stroke-linejoin="bevel" stroke-miterlimit="10" stroke-dasharray="" clip-path="url(#FQBOVZCZMxdg)"/><path fill="rgb(238,219,234)" stroke="none" paint-order="stroke" d="M 478.2423095703125 394.4765625 L 461.1654052734375 395.64886474609375 L 460.9663391113281 381.8815612792969 L 477.9951477050781 377.3822326660156 L 478.2423095703125 394.4765625 Z" fill-opacity="1" fill-rule="evenodd" clip-path="url(#FQBOVZCZMxdg)"/><path fill="none" stroke="rgb(0,0,0)" paint-order="fill" d="M 478.2423095703125 394.4765625 L 461.1654052734375 395.64886474609375 L 460.9663391113281 381.8815612792969 L 477.9951477050781 377.3822326660156 L 478.2423095703125 394.4765625 Z" stroke-opacity="1" stroke-linejoin="bevel" stroke-miterlimit="10" stroke-dasharray="" clip-path="url(#FQBOVZCZMxdg)"/><path fill="rgb(230,201,224)" stroke="none" paint-order="stroke" d="M 477.9951477050781 377.3822326660156 L 467.2408752441406 380.22369384765625 L 464.319580078125 365.5351867675781 L 474.6644592285156 360.63531494140625 L 477.9951477050781 377.3822326660156 Z" fill-opacity="1" fill-rule="evenodd" clip-path="url(#FQBOVZCZMxdg)"/><path fill="none" stroke="rgb(0,0,0)" paint-order="fill" d="M 477.9951477050781 377.3822326660156 L 467.2408752441406 380.22369384765625 L 464.319580078125 365.5351867675781 L 474.6644592285156 360.63531494140625 L 477.9951477050781 377.3822326660156 Z" stroke-opacity="1" stroke-linejoin="bevel" stroke-miterlimit="10" stroke-dasharray="" clip-path="url(#FQBOVZCZMxdg)"/></svg>